<?xml version="1.0" encoding="utf-8"?>
<!-- Generator: Adobe Illustrator 22.1.0, SVG Export Plug-In . SVG Version: 6.00 Build 0)  -->
<svg version="1.1" id="Слой_1" xmlns="http://www.w3.org/2000/svg" xmlns:xlink="http://www.w3.org/1999/xlink" x="0px" y="0px"
	 viewBox="0 0 384 384" style="enable-background:new 0 0 384 384;" xml:space="preserve">
<style type="text/css">
	.st0{fill:#19918E;stroke:#FFFFFF;stroke-miterlimit:10;}
	.st1{fill:#123D83;stroke:#FFFFFF;stroke-miterlimit:10;}
</style>
<g>
	<path class="st0" d="M246.6,85.1c8.7,10.7,14.2,21.7,16.2,34.2c4.5,29.1-5.1,52.8-28.3,70.9c-3.6,2.8-7,2.5-9.3-0.4
		s-1.4-6.5,2.2-9.3c16.7-12.9,25-29.9,24.4-50.9c-0.4-13.1-4.9-24.8-13-34.8c-5.7,5.7-11.2,11.3-17,17.1c5.8,9,7.9,19.2,4.7,30.2
		c-2.4,8.5-7.4,15.2-14.7,20.1c-14.9,9.9-34.6,7.3-46.7-6.1c-11.7-13-12.2-32.9-1.2-46.5c10.6-13.2,30.7-18.8,48.3-7.3
		c5.6-5.7,11.2-11.3,17-17.1c-7.6-6.3-16.8-10.5-27.1-12.1c-32.8-5.2-62.7,15.3-68.9,47.7c-4.5,23.5,3.3,43,21.6,58.4
		c0.8,0.6,1.6,1.2,2.4,1.8c3,2.5,3.7,5.9,1.7,8.6c-2.1,3-5.5,3.4-8.9,1c-8.1-5.7-14.8-12.8-19.6-21.4c-14-24.6-14.6-49.7,0-74
		c14.8-24.5,37.4-36,66.1-34.9c14.6,0.6,27.7,5.9,39.4,14.8c0.6,0.5,1.2,0.9,1.8,1.4c0.2,0.1,0.4,0.2,1.5,0.6
		c1.6-1.7,3.6-3.6,5.2-5.8c0.6-0.8,0.6-2.3,0.4-3.4c-1.3-5.7-2.6-11.4-4.2-17.1c-0.8-3-0.2-5.4,1.9-7.5c9.6-9.5,19.1-19.1,28.7-28.6
		c4.4-4.3,9.4-2.9,11,3.1c1.5,5.5,3,11.1,4.2,16.7c0.5,2.2,1.5,3.1,3.6,3.5c5.5,1.2,10.9,2.6,16.3,4.1c6.4,1.7,7.7,6.6,3,11.4
		c-9.3,9.4-18.7,18.7-28.1,28.1c-2.2,2.2-4.7,3-7.8,2.1c-4.9-1.4-10-2.4-14.9-3.9c-3.2-1-5.6-0.7-7.8,2.1
		C249.7,83.2,248.1,84,246.6,85.1z M204.1,111.6c-11.2-6.3-24.3-3.4-31.5,6.5c-7.2,10-5.7,23.8,3.4,31.9c9.2,8.2,22.9,8.2,32.1-0.1
		c8.4-7.6,10.4-21,3.9-30.2c-0.9,1.2-1.6,2.5-2.5,3.5c-4.3,4.4-8.5,8.9-13.1,12.9c-1.5,1.3-4.5,2-6.3,1.4c-1.7-0.5-3.5-3-3.8-4.8
		c-0.3-1.7,1-4.1,2.4-5.5C193.6,121.9,198.8,116.9,204.1,111.6z M272.3,30.4c-6.2,6.2-12.4,12.4-18.6,18.7c-0.4,0.5-0.8,1.4-0.7,1.9
		c0.7,2.9,1.5,5.8,2.4,9.3c4.9-5,8.9-9.8,13.7-13.7C274.7,42.1,276.6,37.2,272.3,30.4z M294.2,51.5c-3.3-0.9-5.9-1.7-8.7-2.3
		c-0.7-0.2-1.8,0-2.3,0.5c-6.4,6.2-12.6,12.6-19.2,19.2c3.2,0.8,5.8,1.6,8.5,2.1c0.8,0.2,2.1,0,2.6-0.6
		C281.4,64.4,287.6,58.1,294.2,51.5z"/>
	<path class="st1" d="M138,204.2c0,26.3-21.6,48-47.9,48c-26.5,0-48-21.5-48.1-47.8c0-26.6,21.4-48.1,48.1-48.1
		C116.4,156.2,137.9,177.7,138,204.2z M54,204.4c0.1,19.8,16.2,35.8,36.1,35.8c19.8,0,36-16.4,35.8-36.1c0-19.9-16.2-35.9-36.1-35.9
		C70.1,168.2,53.9,184.5,54,204.4z"/>
	<path class="st1" d="M246,203.8c0.1-26.5,21.9-47.8,48.6-47.6c26.3,0.2,47.5,22,47.4,48.5c-0.2,26.2-22.1,47.7-48.4,47.5
		C267.2,252,245.9,230.3,246,203.8z M294.2,168.2c-19.6-0.1-36,15.8-36.2,35.4c-0.2,20.1,15.8,36.5,35.8,36.6
		c19.7,0.1,36-15.8,36.2-35.4C330.2,184.7,314.2,168.4,294.2,168.2z"/>
	<path class="st1" d="M192.2,186.2c26.3,0,47.8,21.6,47.8,48.1c0,26.3-21.7,48-48,47.9c-26.5,0-48-21.5-48-47.9
		C144,207.7,165.5,186.2,192.2,186.2z M192,270.2c19.6,0.1,35.9-16,36-35.6c0.1-20.1-16-36.3-36-36.4c-19.8-0.1-36,16.1-36,36
		C156,254,172.1,270.1,192,270.2z"/>
	<path class="st1" d="M185.6,288c25.3,0.5,43.8,1.9,61.5,8.5c5.4,2,10.6,5,15.4,8.2c5.2,3.6,7.6,8.9,7.5,15.5
		c-0.2,10.7,0,21.5-0.1,32.2c0,4.8-2.1,7.5-5.8,7.7c-3.8,0.1-6.2-2.7-6.2-7.7c0-10.4-0.2-20.8,0.1-31.1c0.1-4.2-1.4-7.3-5-8.8
		c-6.8-3-13.7-6.3-20.9-7.9c-29.1-6.5-58.3-6.4-87.1,1.7c-5.2,1.5-10.1,4.2-15,6.7c-3.1,1.6-4.4,4.3-4.3,8.1
		c0.2,10.5,0.1,21,0.1,31.5c0,4.8-2.2,7.5-5.9,7.6c-3.8,0.1-6.1-2.7-6.1-7.7c0-10.6,0.2-21.3-0.1-31.9c-0.2-7.2,2.8-12.5,8.4-16.6
		c9-6.6,19.4-10,30.1-11.8C165.5,290,178.9,288.8,185.6,288z"/>
	<path class="st0" d="M83.8,132.1c0.3-53.2,38.7-97.9,91.6-106.5c20.5-3.3,40.3-0.6,59.4,7.5c4.4,1.9,6.1,4.9,4.8,8.3
		c-1.4,3.6-4.9,4.7-9.4,2.8c-30.8-12.6-60.9-11-88.9,6.9C108.6,72,94,102.7,96.5,141.5c0.1,2.3-0.4,5.1-1.7,6.9
		c-1,1.3-4.1,2.1-5.6,1.4c-1.8-0.8-3.8-3-4.2-5C84,140.6,84.1,136.3,83.8,132.1z"/>
	<path class="st1" d="M12,305.4c0-5,0.2-10,0-15c-0.3-6.9,2.6-12,7.9-16.1c6.9-5.4,15-8.3,23.4-10.5c19.6-5.2,39.6-6.4,59.8-5.2
		c14.4,0.9,28.6,2.8,42.2,7.8c3.5,1.3,6.9,2.9,10.2,4.7c3,1.6,3.8,4.9,2.3,7.8c-1.5,3-4.7,4.2-7.9,2.6c-19.2-9.6-40-11.1-60.9-11.2
		c-16.9-0.1-33.7,1.7-49.8,7.4c-1.4,0.5-2.8,1.1-4.2,1.6c-7.6,2.9-12.1,7.2-11.1,16.5c0.9,8.9,0.2,18,0.2,27c0,4.7-2.3,7.5-6,7.5
		s-6-2.8-6-7.5C12,316.9,12,311.2,12,305.4z"/>
	<path class="st1" d="M372,305.8c0,5.5,0,11,0,16.5c0,5.1-2.1,7.9-5.9,7.9c-3.8,0.1-6.1-2.8-6.1-7.8c0-10.2-0.3-20.5,0.1-30.7
		c0.2-4.6-1.6-7.7-5.4-9.3c-6.7-2.9-13.5-6.1-20.6-7.7c-29-6.5-58-6.1-86.7,1.6c-4.3,1.2-8.4,3.2-12.5,5c-3.8,1.7-7.1,0.9-8.7-2.3
		c-1.6-3.2-0.5-6.4,3.2-8.4c9.7-5.2,20.2-7.9,30.9-9.6c26.6-4.2,53.1-4,79.2,2.7c7.5,1.9,14.8,5.2,21.7,8.8
		c7.5,3.9,11.5,10.4,10.7,19.4C371.7,296.5,372,301.1,372,305.8z"/>
	<path class="st0" d="M300.2,132.4c-0.3,3.6-0.5,7.2-0.8,10.8c-0.4,4.7-2.8,7.3-6.5,7c-3.8-0.3-5.9-3.5-5.4-8.3
		c1.5-13.2,0-26.1-4-38.8c-1-3.3-2.4-6.5-3.7-9.8c-1.5-4-0.3-7.4,3.1-8.7c3.2-1.2,6.3,0.3,8,4.1C297,102.7,300,117.2,300.2,132.4z"
		/>
</g>
</svg>
