<?xml version="1.0" encoding="utf-8"?>
<!-- Generator: Adobe Illustrator 22.1.0, SVG Export Plug-In . SVG Version: 6.00 Build 0)  -->
<svg version="1.1" id="Слой_1" xmlns="http://www.w3.org/2000/svg" xmlns:xlink="http://www.w3.org/1999/xlink" x="0px" y="0px"
	 viewBox="0 0 384 384" style="enable-background:new 0 0 384 384;" xml:space="preserve">
<style type="text/css">
	.st0{fill:#123D83;stroke:#FFFFFF;stroke-miterlimit:10;}
	.st1{fill:#19918E;stroke:#FFFFFF;stroke-miterlimit:10;}
</style>
<path class="st0" d="M377.6,210.2c-1.6,4.1-4.6,5.8-9,5.8c-19-0.1-37.9,0-56.9,0c-4.5,0-7.3-1.8-8.3-4.9c-1.6-5.1,1.9-9.4,8-9.4
	c15.8-0.1,31.7,0,47.5,0c1.3,0,2.6,0,4.2,0c-0.4-17,2.4-34-6.8-49.4c-8.4-14.1-20.6-22.9-36.8-25.7c-1.3-0.2-3.2,0.6-4.2,1.6
	c-8.9,8.7-17.7,17.6-26.6,26.4c-5.5,5.5-8.7,5.5-14.3-0.1c-8.8-8.8-17.6-17.7-26.6-26.4c-1-1-3.2-1.7-4.6-1.4
	c-24.9,4.5-42.7,25.5-43.1,50.8c-0.1,7.9,0,15.8,0,24.2c1.5,0,2.7,0,4,0c14.8,0,29.5,0,44.3,0c1.3,0,2.7,0,3.9,0.3
	c3.2,0.7,5.4,3.4,5.5,6.7s-1.8,6-5.1,7c-1.4,0.4-2.8,0.5-4.3,0.5c-17.8,0-35.5,0-53.3,0c-7.1,0-9.5-2.5-9.5-9.6
	c0-9.8-0.1-19.7,0.1-29.5c0.7-33.5,25.3-61,58.6-65.3c1-0.1,2-0.3,3.5-0.6c-5.6-6.4-9.5-13.2-11.3-21.1c-0.3-1.3-0.7-2.6-0.7-3.9
	c0-16.1-1.1-32.2,0.3-48.2c1.4-15.5,14-27,29.3-30.1c0.6-0.1,1.1-0.4,1.6-0.6c18.5,0,37,0,55.5,0c3.3,1.9,5.2,4.6,5.1,8.7
	c-0.1,21.2,0,42.5-0.1,63.7c0,11-3.7,20.7-10.6,29.2c-0.5,0.7-1,1.4-1.6,2.4c1.3,0.2,2.1,0.4,2.9,0.5c24.7,3.6,42.6,16.5,53.1,39.2
	c3,6.4,4.1,13.7,6,20.6C377.6,184.2,377.6,197.2,377.6,210.2z M250.4,67.9c0,5.6-0.5,10.8,0.1,15.9c1.6,13.4,12.4,24.3,25.7,26.7
	c13.3,2.4,26.7-4.2,33.4-16c5.4-9.6,3.7-20,4-30.8c-8.3,5-17,4.3-25.6,4.3C275.5,67.9,263,67.9,250.4,67.9z M313.4,21.4
	c-14.2,0-28-0.2-41.8,0.1c-9.4,0.2-17.6,6.2-20,14.9c-1.5,5.3-1.4,11-2.2,17.1c4.2,0,7.6,0,10.9,0c13.2-0.1,26.4,0.1,39.6-0.3
	c7-0.2,12.9-5.9,13.4-12.8C313.8,34.2,313.4,28,313.4,21.4z M267.5,125.5c4.9,5,9.9,9.9,13.9,14c4.6-4.6,9.5-9.5,13.9-14
	C286.6,125.5,276.9,125.5,267.5,125.5z"/>
<path class="st0" d="M139.8,7c5.6,2.4,11.7,3.9,16.6,7.3c10.4,7.2,14.8,17.8,14.9,30.4c0,9.7,0.1,19.4,0,29.2c0,2.7,0.7,4.7,2.7,6.6
	c8.8,8.6,17.3,17.3,26,25.9c2.7,2.6,4.4,5.5,2.9,9.3s-4.8,4.6-8.6,4.5c-7.7-0.1-15.4-0.1-23,0.1c-1.3,0-3.1,1.1-3.8,2.3
	c-7,13.1-18,19.8-32.6,19.9c-30.1,0.2-60.2,0.2-90.4,0c-19.7-0.1-35.6-16.1-35.8-35.8c-0.1-20.9,0-41.7,0-62.4
	c0-18.3,11.2-32.4,29-36.6c0.7-0.2,1.3-0.5,2-0.7C73.1,7,106.5,7,139.8,7z M179,105.7c-6.5-6.5-12.2-12.3-18.1-17.9
	c-2.9-2.8-4.1-5.9-4.1-9.9c0.2-10.9,0.1-21.9,0-32.8c-0.1-14.8-9-23.7-23.9-23.7c-28.7,0-57.4,0-86.1,0C32,21.4,23,30.3,23,45.2
	c0,19.7,0,39.4,0,59.1c0,14.8,8.9,23.8,23.8,23.8c28.8,0,57.6,0,86.5,0c11.8,0,18.8-5,22.8-16.1c1.7-4.8,3.7-6.2,8.9-6.2
	C169.3,105.7,173.6,105.7,179,105.7z"/>
<path class="st1" d="M377.6,344.9c-2,6.5-4,13-8.7,18.2c-6.9,7.8-15.4,12.5-25.7,12.6c-31.2,0.3-62.4,0.4-93.6,0
	c-19.3-0.2-34.2-16.6-34.5-37.1c-0.1-10.2,0.1-20.4-0.1-30.6c0-1.7-0.9-3.7-2.1-4.9c-8.7-8.9-17.5-17.8-26.4-26.5
	c-2.7-2.6-4.5-5.5-3-9.3c1.6-4,5-4.7,8.9-4.6c7.6,0.1,15.1,0,22.7,0.1c1.9,0,3-0.5,3.9-2.3c6.9-13.5,18.2-20,33.2-20.1
	c23.6-0.1,47.3,0,70.9,0c5.8,0,11.5,0,17.3,0c18.3,0.1,32.4,11.2,36.6,29c0.2,0.7,0.5,1.3,0.7,1.9
	C377.6,295.9,377.6,320.4,377.6,344.9z M207.6,277.2c1.4,1.5,2.3,2.4,3.2,3.3c6,6.3,12.1,12.7,18.1,19c0.2,8.7,0.4,17.5,0.6,26.2
	c0.1,4.3-0.1,8.6,0,13c0.4,14,9.3,22.7,23.4,22.7c29.1,0,58.1,0,87.2,0c14.1,0,23.2-9.1,23.2-23.3c0-20.1,0-40.1,0-60.2
	c0-14.1-9.1-23.2-23.3-23.2c-29.1,0-58.1,0-87.2,0c-11.5,0-18.6,5.1-22.5,16c-1.7,4.8-3.7,6.3-8.8,6.3
	C217.1,277.2,212.7,277.2,207.6,277.2z"/>
<path class="st1" d="M71.1,271c-7.1-7.9-11.3-16.4-12.3-26.2c-0.6-6.3-0.4-12.7-0.4-19.1c0.1-9.3-0.5-18.8,0.8-28
	c2.3-17,17.3-30.1,34.5-30.6c16.3-0.4,32.6-0.2,49-0.1c5.2,0,8.1,2.9,8.1,8c0,22.3,0.1,44.7-0.1,67c-0.1,9.8-4,18.4-10,26.1
	c-0.6,0.7-1.2,1.5-1.8,2.3c-0.1,0.1,0,0.2-0.1,0.7c2.5,0.4,5.1,0.7,7.6,1.2c30.5,5.8,53.3,32.7,54,63.8c0.2,10.4,0.1,20.9,0.1,31.3
	c0,5.8-2.8,8.5-8.7,8.5c-12.2,0-24.5,0-36.7,0c-45.4,0-90.8,0-136.1,0c-7.9,0-10.2-2.3-10.1-10c0.1-12-0.6-24.1,0.8-36
	c3.5-31.2,27.1-54.3,58.4-58.4C68.7,271.4,69.5,271.2,71.1,271z M23.3,361.3c54.4,0,108.5,0,162.7,0c0-8.4,0.1-16.5,0-24.7
	c-0.5-24.7-18.7-45.9-43-50.3c-2.3-0.4-3.5,0.2-5,1.7c-8.9,9-17.8,17.9-26.7,26.8c-5,5-8.4,5-13.5,0c-9-9-18-18-27.1-26.9
	c-1-1-2.9-1.6-4.3-1.4c-11.2,1.7-20.6,7-28.4,15c-8.3,8.6-13.4,18.8-14.6,31.3c5.4,0,10.5,0,15.7,0c4.6,0,9.1-0.1,13.7,0.1
	c4.3,0.2,7.1,3.1,7.2,7c0.1,4.1-2.8,7-7.3,7.3c-1.6,0.1-3.1,0-4.7,0c-8.2,0-16.5,0-24.9,0C23.3,352,23.3,356.5,23.3,361.3z
	 M136.2,223.8c-10.2,5.8-20.9,4-31.3,4.2c-10.6,0.2-21.2,0-31.8,0c0,5.2-0.4,9.9,0.1,14.5c1.5,13.7,10.3,24.1,23.8,27.4
	c13.1,3.2,24.1-0.9,32.7-11.3C138,248.3,136.3,236.2,136.2,223.8z M136.2,181.5c-14.3,0-28.2,0-42.1,0c-1.7,0-3.4,0.4-4.9,0.9
	c-13,4.1-18.4,15.4-15.7,31.2c0.9,0,1.8,0,2.8,0c14.3,0,28.6,0,42.9,0c1.8,0,3.6-0.2,5.4-0.5c6-1.2,11.3-6.5,11.7-12.6
	C136.5,194.3,136.2,188.1,136.2,181.5z M105.1,300.8c4.5-4.6,9.2-9.3,13.8-14c0.2-0.2,0.3-0.6,0.6-1.1c-10,0-19.8,0-29.5,0
	C95,290.7,99.8,295.6,105.1,300.8z"/>
<path class="st0" d="M281.9,201.5c3.8,0.1,7.1,3.5,7,7.3s-3.6,7.1-7.3,7c-3.8-0.1-7.1-3.6-7-7.3
	C274.7,204.7,278.1,201.4,281.9,201.5z"/>
<path class="st0" d="M122.6,59.2c-0.5,8-5.2,15.7-14.7,20c-1.8,0.8-2.8,1.7-3.1,3.8c-0.6,4.4-3.8,7-7.5,6.6
	c-3.9-0.3-6.4-3.2-6.7-7.6c-0.5-8.7,1.6-11.7,11.2-16c4.5-2,6.9-6.3,6.3-11c-0.6-4.6-4.2-8.1-9-9c-4.1-0.7-8.8,1.7-10.7,5.7
	c-0.6,1.4-0.9,3-1.2,4.5c-0.7,4.9-3.9,7.8-8.1,7.3c-4.3-0.6-6.7-4-6.2-9c1.3-13.6,12.7-23.6,26.2-23
	C112.3,32.2,122.8,43.4,122.6,59.2z"/>
<path class="st0" d="M104.9,110.1c0,3.8-3.3,7.1-7.1,7.1c-3.9,0-7-3.3-7-7.2c0-3.9,3.3-7.2,7.1-7.1
	C101.6,102.9,104.9,106.3,104.9,110.1z"/>
<path class="st1" d="M299.2,308.4c6.3-6.3,12.1-12.2,18-17.9c1.5-1.4,3.4-2.6,5.4-3.2c2.8-0.8,5.2,0.4,6.8,2.8
	c1.7,2.5,1.9,5.1,0.2,7.7c-0.6,1-1.4,1.9-2.3,2.8c-7.1,7.1-14.2,14.3-21.4,21.4c-4.9,4.8-8.3,4.8-13.2,0c-3.9-3.9-7.8-7.7-11.7-11.7
	c-3.6-3.7-3.8-7.8-0.7-10.8c3-3,7.3-2.8,10.8,0.7C293.9,302.6,296.3,305.4,299.2,308.4z"/>
<path class="st1" d="M81.8,347c-3.8,0-7-3.3-7-7.2c0-3.9,3.3-7.1,7.1-7.1c3.8,0,7,3.3,7,7.2C88.9,343.8,85.6,347.1,81.8,347z"/>
</svg>
