<svg width="1366" height="196" viewBox="0 0 1366 196" fill="none" xmlns="http://www.w3.org/2000/svg">
<path opacity="0.35" d="M437.453 95.5062C384.391 92.6823 335.6 87.6862 295.641 79.9385C121.688 46.124 23.4544 72.9149 0 80.8074V88.6275C13.5369 92.1031 48.067 100.068 102.287 105.933C185.391 106.15 307.151 104.412 437.453 95.5062Z" fill="white"/>
<path opacity="0.35" d="M0 183.048V183.41H323.728L0 183.048Z" fill="white"/>
<path opacity="0.19" d="M739.464 59.7367C642.896 77.4767 537.641 88.6275 437.453 95.5063C457.65 96.5924 478.498 97.3165 499.636 97.8233C593.96 88.9171 681.625 78.418 740.478 73.8562C811.999 68.2808 888.009 69.0049 957.503 75.4492C975.601 72.9873 989.789 70.5979 999.2 68.3532C1078.83 49.5271 1170.04 33.5973 1235.19 49.5271C1293.18 63.7191 1350 65.2397 1365.86 63.4295V60.9676C1308.16 50.6132 1028.52 6.51671 739.464 59.7367Z" fill="white"/>
<path opacity="0.19" d="M1365.93 184.568V183.41H323.728L1365.93 184.568Z" fill="white"/>
<path opacity="0.35" d="M1235.26 49.5271C1170.11 33.5973 1078.9 49.5271 999.272 68.3532C989.861 70.5979 975.601 72.9873 957.575 75.4492C995.653 78.9972 1031.85 84.283 1064.13 91.2342C1155.34 110.784 1273.7 119.473 1299.76 119.473C1319.89 119.473 1352.25 114.984 1366 112.884V63.4295C1350.07 65.2397 1293.25 63.7191 1235.26 49.5271Z" fill="white"/>
<path opacity="0.19" d="M1235.26 49.5271C1170.11 33.5973 1078.9 49.5271 999.272 68.3532C989.861 70.5979 975.601 72.9873 957.575 75.4492C995.653 78.9972 1031.85 84.283 1064.13 91.2342C1155.34 110.784 1273.7 119.473 1299.76 119.473C1319.89 119.473 1352.25 114.984 1366 112.884V63.4295C1350.07 65.2397 1293.25 63.7191 1235.26 49.5271Z" fill="white"/>
<path opacity="0.35" d="M102.287 105.933C141.378 110.133 190.675 113.319 249.746 112.884C328.072 112.377 416.46 105.643 499.636 97.7509C478.426 97.244 457.65 96.52 437.453 95.4338C307.151 104.412 185.391 106.15 102.287 105.933Z" fill="white"/>
<path opacity="0.19" d="M102.287 105.933C141.378 110.133 190.675 113.319 249.746 112.884C328.072 112.377 416.46 105.643 499.636 97.7509C478.426 97.244 457.65 96.52 437.453 95.4338C307.151 104.412 185.391 106.15 102.287 105.933Z" fill="white"/>
<path opacity="0.35" d="M0 183.048L323.728 183.41H1365.93V181.961H0V183.048Z" fill="white"/>
<path opacity="0.19" d="M0 183.048L323.728 183.41H1365.93V181.961H0V183.048Z" fill="white"/>
<path d="M0 88.6274V104.485C14.9847 104.919 51.397 105.788 102.287 105.933C48.067 100.068 13.5369 92.1754 0 88.6274Z" fill="white"/>
<path d="M957.575 75.4492C888.081 68.9325 812.071 68.2085 740.55 73.8563C681.697 78.4904 594.033 88.9172 499.708 97.8233C669.897 101.733 864.699 88.0482 957.575 75.4492Z" fill="white"/>
<path d="M1064.13 91.1618C1031.85 84.2106 995.725 78.9248 957.575 75.3768C864.699 88.0482 669.897 101.733 499.708 97.8233C416.532 105.716 328.144 112.45 249.818 112.957C190.748 113.319 141.45 110.205 102.359 106.005C51.4692 105.861 15.0571 104.992 0.0723267 104.557V182.034H1366V112.957C1352.25 115.056 1319.89 119.546 1299.76 119.546C1273.63 119.401 1155.27 110.712 1064.13 91.1618Z" fill="white"/>
</svg>
