<svg width="195" height="156" viewBox="0 0 195 156" fill="none" xmlns="http://www.w3.org/2000/svg">
<g clip-path="url(#clip0_94:365)">
<path d="M128.366 130.751C128.896 130.751 129.558 130.751 130.088 130.751C131.281 130.486 132.075 129.691 132.075 128.499C132.075 127.174 131.413 126.379 130.221 126.114C129.691 125.982 129.029 126.114 128.499 126.114C120.02 126.114 111.675 126.114 103.196 126.114C102.534 127.704 101.872 129.294 101.209 130.883C110.217 130.751 119.226 130.751 128.366 130.751Z" fill="#3A5082"/>
<path d="M192.086 125.982C191.423 125.982 190.761 125.849 190.231 125.982C188.906 126.114 188.244 125.584 187.714 124.524C168.108 88.7568 148.502 53.1216 128.896 17.4864C127.174 14.3071 126.114 11.1277 126.379 7.41848C126.512 3.17935 123.2 0 119.226 0C115.119 0 111.94 3.04688 111.807 7.28601C111.807 8.61073 111.94 9.80299 111.807 11.1277C111.675 12.055 111.41 13.1148 110.88 13.9096C104.256 23.3152 97.5 32.5883 90.7439 41.8614C89.6841 43.4511 88.3593 44.9083 87.432 46.498C87.0346 47.1603 87.1671 48.4851 87.5645 49.0149C88.0944 49.6773 89.2867 49.9423 90.214 49.8098C90.7439 49.8098 91.4062 49.0149 91.8036 48.3526C98.0299 39.7419 104.256 31.1311 110.35 22.6529C110.747 22.123 111.012 21.7255 111.675 20.9307C111.675 45.7031 111.675 70.0781 111.675 94.5856C109.952 94.5856 108.098 94.5856 106.376 94.5856C106.641 96.1753 106.773 97.8974 106.906 99.4871C107.833 99.4871 108.76 99.4871 109.82 99.4871C110.482 99.4871 111.012 99.4871 111.675 99.4871C111.675 103.726 111.675 107.833 111.675 111.94C111.145 111.94 110.615 112.072 110.217 112.072C109.025 112.072 107.833 112.072 106.641 112.072C106.376 113.662 106.111 115.384 105.846 116.974C106.773 116.974 107.7 116.841 108.628 116.841C121.08 116.841 133.665 116.841 146.118 116.841C146.912 116.841 147.575 116.841 148.37 116.974C149.827 117.238 151.019 118.298 151.151 119.755C151.416 121.743 151.151 123.862 151.151 125.982C150.489 125.982 149.827 125.982 149.297 125.982C146.118 125.982 142.806 125.982 139.626 125.982C138.037 125.982 136.977 127.041 136.977 128.366C136.977 129.691 138.037 130.618 139.626 130.751C140.024 130.751 140.421 130.751 140.951 130.751C156.053 130.751 171.287 130.751 186.389 130.751C186.919 130.751 187.449 130.751 188.111 130.751C187.979 131.148 187.846 131.281 187.846 131.413C178.838 143.203 166.916 149.959 152.079 150.357C132.34 150.887 112.602 150.489 92.8634 150.489C92.0686 150.489 91.1413 150.357 90.7439 150.754C90.0815 151.284 89.2867 152.211 89.2867 153.006C89.1542 154.066 89.949 154.993 91.2738 155.126C91.6712 155.126 92.0686 155.126 92.5985 155.126C111.807 155.126 131.016 155.126 150.224 155.126C161.087 155.126 170.89 151.946 179.766 145.853C185.859 141.613 190.893 136.315 194.603 129.956C195.795 127.704 194.735 125.982 192.086 125.982ZM121.61 110.35C121.61 110.88 121.61 111.277 121.61 111.94C119.888 111.94 118.298 111.94 116.576 111.94C116.576 111.277 116.576 110.747 116.576 110.217C116.576 76.3044 116.576 42.3913 116.576 8.61073C116.576 8.08084 116.576 7.41848 116.709 6.88859C117.106 5.56386 118.033 4.76902 119.358 4.90149C120.683 5.03397 121.478 5.8288 121.61 7.15353C121.61 7.55095 121.61 7.94837 121.61 8.21332C121.61 42.2588 121.61 76.3044 121.61 110.35ZM126.379 23.3152C126.512 23.3152 126.512 23.3152 126.644 23.1827C140.819 49.0149 154.993 74.9796 169.3 101.077C154.861 101.077 140.686 101.077 126.379 101.077C126.379 75.1121 126.379 49.1474 126.379 23.3152ZM155.92 125.849C155.92 124.392 155.92 122.935 155.92 121.478C155.92 115.649 152.344 112.072 146.515 112.072C140.421 112.072 134.327 112.072 128.234 112.072C127.704 112.072 127.041 112.072 126.379 112.072C126.379 109.952 126.379 108.098 126.379 106.111C126.909 106.111 127.439 105.978 127.969 105.978C142.143 105.978 156.318 105.978 170.493 105.978C171.552 105.978 172.215 106.243 172.745 107.303C176.056 113.397 179.368 119.491 182.812 125.849C173.937 125.849 165.061 125.849 155.92 125.849Z" fill="#3A5082"/>
<path d="M53.1216 20.4008C54.0489 20.6658 54.9762 20.7982 55.7711 21.0632C61.3349 22.9178 64.9117 26.7595 66.1039 32.4558C67.2962 38.1522 65.5741 42.9212 61.3349 46.8954C60.6726 47.5577 60.2751 48.0876 60.4076 49.0149C60.5401 50.6046 60.4076 52.0618 60.4076 53.519C63.7194 54.5788 67.0312 55.2412 70.0781 56.5659C88.2269 64.3818 98.9572 78.159 102.004 97.6325C102.269 99.6196 102.269 101.607 102.402 103.726C102.402 105.183 101.739 106.111 100.547 106.111C99.2222 106.111 98.4273 105.316 98.4273 103.726C98.4273 98.5598 97.6325 93.3933 95.7779 88.6243C88.8893 70.608 75.9069 59.7452 56.6984 57.2283C32.3234 54.3139 10.2004 70.4755 4.90149 94.7181C-0.662372 120.418 16.9565 146.382 42.9212 150.754C67.5611 154.861 90.4789 140.289 96.9701 116.179C97.3675 114.721 97.6325 113.397 97.8974 111.94C98.1624 110.615 99.0897 109.952 100.282 110.217C101.474 110.482 102.004 111.41 101.872 112.734C98.4273 134.062 81.2058 151.284 59.8777 154.728C33.2507 159.1 8.08084 142.541 1.58967 116.709C-5.29892 89.6841 10.9952 61.9973 37.7547 54.8438C39.0795 54.4463 40.5367 54.1814 41.9939 53.9164C41.9939 52.0618 41.9939 50.2072 41.9939 48.3526C41.9939 48.0876 41.7289 47.6902 41.464 47.5577C36.695 43.1861 34.8403 37.8872 36.695 31.661C38.4171 25.4348 42.7887 21.858 49.1474 20.6658C49.2799 20.6658 49.4124 20.5333 49.5448 20.5333C50.6046 20.4008 51.9293 20.4008 53.1216 20.4008ZM60.4076 41.9939C63.8519 38.1522 63.0571 30.9986 58.6855 27.1569C54.0489 23.0503 46.8954 23.5802 42.7887 28.2167C38.947 32.5883 39.4769 39.3444 42.1264 41.8614C43.716 36.8274 46.8954 34.178 51.3995 34.3105C55.7711 34.4429 59.0829 37.0924 60.4076 41.9939ZM56.4334 53.1216C56.4334 49.6773 56.5659 46.233 56.4334 42.9212C56.3009 40.1393 53.784 38.2846 51.002 38.4171C48.3526 38.5496 46.1005 40.6692 46.1005 43.4511C46.1005 45.4382 46.1005 47.4253 46.1005 49.4124C46.1005 50.7371 46.1005 52.0618 46.1005 53.2541C49.5448 53.1216 52.9891 53.1216 56.4334 53.1216Z" fill="#3A5082"/>
<path d="M53.254 68.091C53.254 69.9456 53.254 71.8003 53.254 73.5224C53.254 74.8471 52.4592 75.642 51.267 75.7744C50.0747 75.7744 49.2799 74.9796 49.2799 73.6549C49.2799 71.8003 49.2799 70.0781 49.2799 67.9585C47.1603 68.2235 45.3057 68.4884 43.3186 68.8859C38.1522 69.9456 33.3831 72.1977 29.2765 75.377C29.144 75.5095 29.0115 75.642 28.8791 75.642C27.6868 76.4368 26.627 76.3043 25.8322 75.377C25.1698 74.4497 25.3023 73.2575 26.4945 72.4626C29.2765 70.608 32.0584 68.6209 35.2377 67.2962C59.0829 56.8308 86.5047 71.5353 91.0088 97.235C94.8505 119.49 79.4837 140.951 57.0958 143.998C47.5577 145.323 38.682 143.468 30.4687 138.434C29.9388 138.169 29.4089 137.772 29.144 137.242C28.6141 136.447 28.8791 135.652 29.5414 134.99C30.3363 134.195 31.1311 134.327 32.0584 134.725C34.5754 135.917 36.9599 137.374 39.6093 138.302C42.6562 139.361 45.968 139.891 49.5448 140.686C49.5448 139.229 49.5448 138.169 49.5448 137.109C49.5448 136.315 49.5448 135.387 49.5448 134.592C49.5448 133.268 50.4721 132.473 51.5319 132.473C52.7242 132.473 53.3865 133.268 53.519 134.725C53.519 136.05 53.519 137.374 53.519 138.699C53.519 139.229 53.519 139.626 53.519 140.289C62.1297 139.759 69.5482 136.712 75.7744 131.016C83.0604 124.392 86.9021 116.046 87.697 106.111C85.8424 106.111 84.1202 106.111 82.3981 106.111C80.6759 106.111 79.8811 105.448 79.8811 104.124C79.8811 102.799 80.8084 102.137 82.3981 102.137C84.1202 102.137 85.7099 102.137 87.432 102.137C87.2996 85.8424 72.4626 68.7534 53.254 68.091Z" fill="#3A5082"/>
<path d="M71.5354 86.1073C71.4029 86.3723 71.2704 86.9022 71.0055 87.432C66.7663 94.983 62.5272 102.401 58.2881 109.952C58.0231 110.482 57.3608 111.012 56.8309 111.41C49.4124 115.649 41.8614 119.755 34.443 123.995C33.3832 124.524 32.4559 124.789 31.5286 123.862C30.6012 122.935 30.9987 122.007 31.5286 120.948C35.7677 113.529 39.8743 105.978 44.1135 98.5598C44.3784 98.0299 44.9083 97.5 45.4382 97.235C52.9892 92.9959 60.5401 88.7568 68.0911 84.5176C69.8132 83.4579 71.4029 84.3852 71.5354 86.1073ZM64.1169 91.6712L63.9844 91.5387C59.2154 94.1882 54.4464 96.9701 49.6773 99.6195C51.9294 101.872 54.0489 103.859 56.1685 106.111C58.6855 101.209 61.3349 96.4402 64.1169 91.6712ZM46.498 102.534C43.8485 107.303 41.0666 112.072 38.4171 116.973C38.5496 116.973 38.5496 117.106 38.6821 117.106C43.4511 114.457 48.2201 111.675 52.9892 109.025C50.7371 106.773 48.75 104.654 46.498 102.534Z" fill="#19918E"/>
<path d="M15.1019 102.269C16.9565 102.269 18.6786 102.269 20.4008 102.269C21.9905 102.269 22.7853 103.064 22.7853 104.256C22.7853 105.581 21.9905 106.243 20.4008 106.243C18.6786 106.243 16.9565 106.243 14.8369 106.243C15.2343 108.628 15.4993 110.88 16.0292 112.999C17.4864 119.226 20.6657 124.789 25.0373 129.426C25.1698 129.558 25.3023 129.691 25.4347 129.956C26.3621 131.016 26.4945 132.075 25.5672 133.003C24.7724 133.798 23.5801 133.798 22.5203 132.738C18.4137 128.631 15.2343 123.862 13.2472 118.298C8.47822 104.521 10.4653 91.6712 19.076 79.8811C19.341 79.4837 19.6059 79.0863 20.0034 78.6889C20.7982 77.894 21.858 77.7616 22.7853 78.2914C23.7126 78.9538 23.8451 80.1461 23.1827 81.0734C23.0502 81.3383 22.7853 81.6033 22.5203 81.8682C18.4137 87.4321 15.8967 93.7908 15.1019 100.679C15.1019 101.077 15.1019 101.607 15.1019 102.269Z" fill="#3A5082"/>
</g>
<defs>
<clipPath id="clip0_94:365">
<rect width="195" height="155.523" fill="white"/>
</clipPath>
</defs>
</svg>
