<svg width="202" height="155" viewBox="0 0 202 155" fill="none" xmlns="http://www.w3.org/2000/svg">
<g clip-path="url(#clip0_94:336)">
<path d="M192.904 86.7729C192.362 87.3144 191.821 87.9912 191.144 88.5327C185.459 93 179.773 97.4672 173.952 101.799C173.14 102.341 171.786 102.747 170.974 102.476C168.943 101.934 168.673 99.3624 170.432 98.0087C173.817 95.3013 177.201 92.7292 180.721 90.0218C181.127 89.6157 181.668 89.345 182.345 88.6681C181.533 88.6681 180.991 88.5327 180.585 88.5327C145.253 88.5327 110.057 88.5327 74.7249 88.5327C73.6419 88.5327 72.9651 88.8035 72.2882 89.8864C69.3101 94.8952 66.1965 99.7685 63.2183 104.642C62.2707 106.266 61.0524 107.079 59.0218 106.943C49.0044 106.808 38.9869 106.943 28.9694 106.943C27.7511 106.943 27.0742 107.214 26.3974 108.297C24.6376 111.41 22.7424 114.253 20.7118 117.638C21.6594 117.638 22.3362 117.638 22.8777 117.638C62.9476 117.638 102.882 117.638 142.952 117.638C144.035 117.638 145.253 117.231 146.201 116.555C149.585 114.118 152.834 111.41 156.218 108.838C157.843 107.62 159.197 107.755 160.28 108.974C161.362 110.327 160.956 111.681 159.467 112.9C157.572 114.389 155.812 115.742 154.052 117.502C154.729 117.502 155.271 117.502 155.948 117.502C167.048 117.502 178.148 117.502 189.114 117.502C190.738 117.502 191.956 117.908 192.769 119.262C192.769 119.668 192.769 120.21 192.769 120.616C192.092 122.511 190.467 122.646 188.707 122.646C142.817 122.646 96.9258 122.646 51.0349 122.646C39.7991 122.646 28.5633 122.646 17.3275 122.646C15.9738 122.646 14.6201 122.646 13.8079 121.157C12.9956 119.803 13.8079 118.721 14.4847 117.502C17.3275 112.764 20.3057 108.162 23.1485 103.424C24.0961 101.934 25.179 101.258 26.9389 101.258C30.4585 101.393 33.9782 101.258 37.3624 101.258C38.4454 101.258 39.1223 100.987 39.6638 100.039C41.9651 96.1135 44.4018 92.3231 46.9738 87.9912C45.6201 87.9912 44.6725 87.9912 43.5895 87.9912C40.8821 87.9912 39.6638 85.9607 41.0175 83.6594C44.4017 77.9738 47.9214 72.4236 51.5764 66.738C52.1179 65.9257 53.3362 65.3843 54.2838 65.2489C56.0437 64.9781 57.9389 65.2489 59.8341 65.1135C60.3756 65.1135 61.0524 64.8428 61.3232 64.572C63.3537 61.3231 65.3843 58.0742 67.5502 54.5546C66.1965 54.5546 65.1135 54.5546 64.1659 54.5546C62 54.4192 60.7817 52.3886 61.8646 50.4934C64.1659 46.8384 66.4673 43.1834 68.9039 39.5284C69.4454 38.8515 70.5284 38.1746 71.3406 38.1746C80.2751 38.0393 89.0742 38.0393 98.0088 38.1746C104.1 38.31 110.057 43.3188 111.817 49.2751C112.087 50.0873 112.493 50.8995 113.17 51.441C118.179 55.7729 123.323 59.9694 128.467 64.1659C129.279 64.8428 130.498 65.2489 131.445 65.2489C136.996 65.3843 142.546 65.9257 147.555 68.7685C152.563 71.6113 156.354 75.6725 158.52 80.9519C159.197 82.5764 160.009 82.8471 161.498 82.8471C170.568 82.8471 179.773 82.8471 188.843 82.8471C190.467 82.8471 191.686 83.2533 192.633 84.607C192.904 85.6899 192.904 86.2314 192.904 86.7729ZM47.9214 83.2533C83.3887 83.2533 118.45 83.2533 153.511 83.2533C153.511 82.9825 153.376 82.8471 153.376 82.7118C153.24 82.3057 152.969 82.0349 152.834 81.6288C149.45 76.0786 144.576 72.8297 138.214 71.7467C135.507 71.3406 132.799 71.3406 130.092 71.3406C123.052 71.3406 115.878 71.3406 108.838 71.3406C107.079 71.3406 105.996 70.2576 105.996 68.6332C105.996 67.1441 107.079 66.0611 108.838 66.0611C111.817 66.0611 114.795 66.0611 117.773 66.0611C118.856 66.0611 120.074 66.0611 121.699 66.0611C117.231 62.4061 113.306 59.0218 109.245 55.7729C108.838 55.5022 108.297 55.3668 107.755 55.3668C100.852 55.3668 93.9476 55.3668 86.9083 55.3668C86.3668 55.3668 85.5546 55.7729 85.2839 56.179C84.0655 57.8035 83.1179 59.5633 82.0349 61.3231C80.6812 63.6244 81.8996 65.9257 84.607 65.9257C86.6376 65.9257 88.6681 65.9257 90.6987 65.9257C92.4585 65.9257 93.4061 67.0087 93.5415 68.4978C93.5415 69.9869 92.4585 71.0698 90.8341 71.2052C88.5328 71.2052 86.2315 71.3406 83.9301 71.2052C77.5677 70.7991 74.1834 64.3013 77.4323 58.8864C78.786 56.7205 80.2751 54.5546 81.4935 52.3886C82.4411 50.6288 83.7948 49.9519 85.8253 49.9519C91.917 50.0873 98.1441 49.9519 104.236 49.9519C104.777 49.9519 105.454 49.9519 106.266 49.8166C104.1 46.4323 101.528 44.131 97.6026 44.131C89.6157 44.131 81.7642 44.131 73.7773 44.131C73.3712 44.131 72.6943 44.131 72.4236 44.4017C71.2052 46.1615 70.1223 47.9214 68.9039 49.8166C70.1223 49.8166 70.9345 49.8166 71.6114 49.8166C74.4542 49.9519 75.6725 51.8471 74.1834 54.4192C71.2052 59.4279 68.0917 64.3013 65.1135 69.31C64.3013 70.6637 63.2183 71.2052 61.7293 71.2052C59.9694 71.2052 58.2096 71.2052 56.4498 71.2052C56.0437 71.2052 55.3668 71.476 55.0961 71.7467C52.6594 75.4017 50.3581 79.1921 47.9214 83.2533ZM45.214 101.528C45.6201 101.664 45.7555 101.664 45.7555 101.664C48.5983 101.664 51.3057 101.393 54.1485 101.799C57.8035 102.205 59.8341 100.987 61.4585 97.738C62.9476 94.6244 64.9782 91.7816 67.0087 88.5327C62.4061 88.5327 58.0742 88.5327 53.7424 88.5327C53.4716 88.5327 52.9301 88.8035 52.7948 89.0742C50.2227 93.2707 47.786 97.3319 45.214 101.528Z" fill="#3A5082"/>
<path d="M191.415 34.2489C188.978 34.1135 186.542 34.1135 184.105 34.2489C182.751 34.2489 182.345 33.8428 182.074 32.4891C180.721 24.5022 173.681 18.6812 165.694 18.8166C165.559 18.8166 165.288 18.8166 165.153 18.952C165.017 18.952 164.747 18.8166 164.611 18.8166C156.624 18.6812 149.585 24.6375 148.231 32.4891C147.961 33.8428 147.555 34.2489 146.201 34.2489C143.764 34.1135 141.328 34.1135 138.891 34.2489C133.205 34.5196 129.144 39.1223 129.144 45.214C129.144 51.441 133.205 56.0437 138.891 56.179C143.223 56.3144 147.555 56.179 151.886 56.179C155.677 56.179 159.467 56.179 163.258 56.179C164.07 56.179 164.611 56.179 165.153 56.0437C165.694 56.179 166.371 56.179 167.048 56.179C170.838 56.179 174.629 56.179 178.419 56.179C182.751 56.179 187.083 56.3144 191.415 56.179C197.1 55.9083 201.162 51.3057 201.162 45.214C201.162 39.1223 197.1 34.5196 191.415 34.2489ZM189.926 51.1703C182.345 51.1703 174.764 51.3057 167.183 51.1703C166.371 51.1703 165.694 51.1703 165.153 51.3057C164.611 51.1703 163.935 51.1703 163.122 51.1703C155.541 51.3057 147.961 51.1703 140.38 51.1703C135.777 51.1703 133.07 47.3799 134.559 43.048C135.371 40.6113 137.131 39.5284 139.703 39.393C142.952 39.393 146.066 39.393 149.314 39.393C152.293 39.393 152.969 38.5808 153.105 35.738C153.24 29.1048 157.843 24.5022 164.476 23.9607C164.747 23.9607 164.882 23.9607 165.153 23.8253C165.424 23.8253 165.694 23.9607 165.83 23.9607C172.463 24.5022 177.066 29.2402 177.201 35.738C177.201 38.5808 178.013 39.393 180.991 39.393C184.24 39.393 187.354 39.393 190.603 39.393C193.175 39.393 194.935 40.6113 195.747 43.048C197.236 47.2445 194.528 51.0349 189.926 51.1703Z" fill="#3A5082"/>
<path d="M105.183 155C93.9476 155 82.7118 155 71.476 155C70.9345 155 70.2576 155 69.7162 154.865C68.3624 154.594 67.6856 153.646 67.6856 152.293C67.6856 150.939 68.3624 149.991 69.7162 149.721C70.393 149.585 71.0699 149.585 71.6114 149.585C93.9476 149.585 116.148 149.585 138.485 149.585C141.328 149.585 142.546 150.397 142.546 152.157C142.546 154.052 141.328 154.865 138.485 154.865C127.52 155 116.284 155 105.183 155Z" fill="#3A5082"/>
<path d="M114.389 28.1572C106.672 28.1572 100.31 21.7948 100.175 14.0786C100.175 6.36245 106.537 0 114.389 0C122.105 0 128.332 6.22708 128.467 13.9432C128.467 21.6594 122.105 28.1572 114.389 28.1572ZM114.389 22.8777C119.262 22.8777 123.188 18.952 123.188 14.0786C123.188 9.20524 119.262 5.27948 114.389 5.1441C109.515 5.1441 105.454 9.20524 105.454 14.0786C105.454 18.952 109.515 22.8777 114.389 22.8777Z" fill="#19918E"/>
<path d="M163.528 139.162C157.166 139.162 150.804 139.162 144.576 139.162C143.358 139.162 142.275 138.891 141.869 137.672C141.057 135.913 142.14 134.153 144.17 134.017C145.524 133.882 146.742 134.017 148.096 134.017C159.197 134.017 170.297 134.017 181.533 134.017C182.074 134.017 182.616 134.017 183.157 134.017C184.917 134.153 185.865 135.1 185.865 136.589C185.865 138.079 184.782 139.162 183.157 139.162C176.389 139.297 170.026 139.162 163.528 139.162Z" fill="#3A5082"/>
<path d="M95.3013 139.162C90.9694 139.162 86.5022 139.162 82.1703 139.162C80.0044 139.162 78.6507 137.537 79.4629 135.777C79.869 134.965 80.952 134.153 81.7642 134.153C90.6987 134.017 99.6332 134.017 108.568 134.153C110.192 134.153 111.14 135.236 111.14 136.725C111.14 138.214 110.192 139.297 108.568 139.297C104.236 139.297 99.7686 139.162 95.3013 139.162Z" fill="#3A5082"/>
<path d="M39.5284 139.162C36.821 139.162 34.2489 139.162 31.5415 139.162C29.6463 139.162 28.6987 138.214 28.6987 136.59C28.6987 134.965 29.6463 134.017 31.5415 134.017C36.9563 134.017 42.2358 134.017 47.6507 134.017C49.4105 134.017 50.6288 135.1 50.6288 136.59C50.6288 138.079 49.4105 139.162 47.6507 139.162C44.9432 139.297 42.2358 139.162 39.5284 139.162Z" fill="#3A5082"/>
<path d="M98.9563 98.821C98.9563 100.31 97.8734 101.393 96.5197 101.393C95.0306 101.393 94.083 100.445 93.9476 98.821C93.9476 97.1965 94.8952 96.2489 96.3843 96.2489C97.8734 96.3843 98.9563 97.3319 98.9563 98.821Z" fill="#19918E"/>
<path d="M128.196 96.3843C129.686 96.3843 130.633 97.4673 130.633 98.9563C130.633 100.445 129.55 101.528 128.061 101.393C126.572 101.393 125.624 100.31 125.624 98.821C125.76 97.3319 126.707 96.2489 128.196 96.3843Z" fill="#19918E"/>
<path d="M83.1179 98.9563C83.1179 100.445 82.0349 101.528 80.5458 101.393C79.0568 101.393 78.1092 100.31 78.1092 98.821C78.1092 97.3319 79.1921 96.2489 80.6812 96.3843C82.1703 96.3843 83.1179 97.3319 83.1179 98.9563Z" fill="#19918E"/>
<path d="M144.035 101.528C142.546 101.528 141.463 100.445 141.463 98.9563C141.463 97.4672 142.41 96.5196 143.9 96.3843C145.389 96.3843 146.472 97.3319 146.472 98.9563C146.607 100.31 145.524 101.528 144.035 101.528Z" fill="#19918E"/>
<path d="M114.795 98.9563C114.795 100.445 113.712 101.528 112.223 101.393C110.869 101.393 109.786 100.31 109.786 98.821C109.786 97.3319 110.869 96.2489 112.358 96.2489C113.847 96.3843 114.795 97.4672 114.795 98.9563Z" fill="#19918E"/>
<path d="M56.7205 38.8516C55.5022 34.655 52.524 32.083 48.0568 31.5415C47.2446 31.4061 46.4323 31.4061 45.6201 31.2708C45.3494 30.1878 45.0786 29.1048 44.8079 28.0219C42.6419 20.9826 36.5502 16.3799 29.2402 16.1092C29.1048 16.1092 28.8341 16.1092 28.6987 16.1092C28.5633 16.1092 28.2926 16.1092 28.1572 16.1092C20.8472 16.5153 14.6201 21.1179 12.5895 28.0219C12.3188 29.1048 12.048 30.1878 11.7773 31.2708C10.9651 31.4061 10.1528 31.4061 9.34062 31.5415C4.87337 32.083 2.03057 34.655 0.676862 38.8516C-1.35371 45.6201 2.30132 53.7424 11.5066 53.607C17.1921 53.607 23.0131 53.607 28.6987 53.607C34.3843 53.607 40.2052 53.607 45.8908 53.607C55.0961 53.7424 58.7511 45.6201 56.7205 38.8516ZM46.4323 48.3275C40.476 48.3275 34.5197 48.3275 28.6987 48.3275C22.7424 48.3275 16.786 48.3275 10.9651 48.3275C7.44542 48.3275 5.27948 46.0262 5.27948 42.5066C5.27948 38.9869 7.58079 36.6856 10.9651 36.6856C11.6419 36.6856 12.3188 36.6856 13.131 36.6856C16.3799 36.6856 16.9214 36.1441 17.0568 32.8952C17.3275 26.8035 21.6594 21.9302 27.345 21.3887C27.8865 21.3887 28.2926 21.2533 28.8341 21.2533C29.2402 21.2533 29.7817 21.2533 30.3232 21.3887C36.0087 22.0655 40.3406 26.9389 40.6114 32.8952C40.7467 36.1441 41.2882 36.6856 44.5371 36.6856C45.214 36.6856 45.8908 36.6856 46.7031 36.6856C50.2227 36.821 52.3887 39.1223 52.3887 42.5066C52.1179 46.0262 49.952 48.3275 46.4323 48.3275Z" fill="#3A5082"/>
</g>
<defs>
<clipPath id="clip0_94:336">
<rect width="201.162" height="155" fill="white"/>
</clipPath>
</defs>
</svg>
