<svg width="147" height="162" viewBox="0 0 147 162" fill="none" xmlns="http://www.w3.org/2000/svg">
<g clip-path="url(#clip0_94:356)">
<path d="M43.2167 114.021C43.5322 113.545 43.6899 113.07 44.0054 112.594C46.529 113.704 48.8948 114.814 51.7339 115.924L67.191 109.581C64.8251 110.532 62.4592 111.484 60.0933 112.435C59.4624 112.753 58.3584 112.753 57.7275 112.594C53.6266 111.008 49.5257 109.264 45.4249 107.519C44.9517 107.361 44.4785 106.568 44.1631 105.933C43.059 102.92 41.9549 99.7487 40.6931 96.4185C42.1127 94.9912 43.059 92.7711 42.7436 90.0751C42.4281 87.5378 41.1663 85.6348 38.8004 84.3662C37.8541 83.8904 37.5386 83.4147 37.5386 82.3046C37.6963 81.1945 37.5386 79.9258 37.5386 78.4986C38.3272 78.8158 38.9581 79.1329 39.5891 79.2915C47.3176 82.7803 55.3616 85.7934 63.5633 87.5378C65.2983 87.855 67.191 88.0136 68.926 87.5378C82.6481 84.3662 95.2661 78.8158 107.569 71.8381C108.357 71.3624 109.304 70.8866 110.408 70.2523C110.408 70.8866 110.408 71.3624 110.408 71.6795C110.408 77.8643 110.408 84.049 110.408 90.2337C110.408 91.0267 110.25 91.661 109.619 92.1367L115.297 89.758C115.297 82.4632 115.297 75.4855 115.297 68.5079C115.297 67.2392 115.613 66.6049 116.559 65.9705C120.66 63.116 124.603 60.103 128.546 57.0899C131.227 55.0283 132.489 52.1738 132.489 48.8436C132.489 45.6719 132.489 42.5003 132.489 39.3286C132.489 35.8398 131.227 32.9853 128.546 30.7651C112.3 17.2856 93.6888 7.29483 73.0268 1.26867C70.6609 0.634342 67.8219 -0.317156 65.6137 1.03414e-05C60.2511 1.11009 55.2039 2.8545 49.9989 4.44033C48.7371 4.91608 48.1062 6.02616 48.5794 7.45341C48.8948 8.88066 49.9989 9.51499 51.2607 9.19782C51.8916 9.03924 52.3648 8.88066 52.9957 8.72207C56.7811 7.61199 60.5665 6.34333 64.3519 5.39183C65.456 5.07467 66.8755 5.07467 68.1373 5.23325C89.7457 10.6251 108.988 20.933 126.18 35.0469C128.862 37.267 128.704 40.4387 126.18 42.6588C124.918 43.7689 123.657 44.7204 122.395 45.6719C105.991 58.2 88.1684 67.3978 68.1373 72.3139C67.191 72.631 65.9292 72.631 64.9828 72.3139C58.8315 70.4109 52.6802 68.3493 46.6867 66.2877C44.3208 65.4948 42.1127 64.3847 39.7468 63.2746C40.3777 62.7989 40.6931 62.3231 41.0086 62.006C47.0021 56.9313 52.9957 51.8567 58.8315 46.6234C59.7779 45.8305 60.5665 45.6719 61.8283 45.9891C66.0869 47.2577 70.3455 47.0992 74.2886 44.5618C79.1781 41.3902 79.1781 35.8398 74.2886 32.6681C70.5032 30.1308 66.4024 29.9722 62.1438 31.0823C57.2543 32.3509 53.1534 36.4741 55.9925 42.5003C55.677 42.8174 55.3616 43.1346 54.8884 43.4518C48.5794 48.8436 42.1127 54.394 35.8036 59.9444C35.015 60.7373 34.3841 60.7373 33.4378 60.2616C24.2897 55.5041 15.7725 49.7951 7.72854 43.2932C4.10085 40.2801 4.10085 37.267 7.72854 34.2539C18.2961 25.6905 29.6524 18.7128 41.9549 13.1624C43.8476 12.3695 44.4785 10.9422 43.8476 9.51499C43.2167 8.08774 41.7972 7.77058 39.9045 8.56349C27.4442 14.1139 16.088 21.0916 5.36266 29.655C2.83905 31.7166 0.630896 33.9368 -0.15773 37.1084C-0.15773 41.8659 -0.15773 46.4648 -0.15773 51.2223C0.788622 54.5526 2.83905 56.7727 5.52038 58.8343C8.99034 61.3716 12.4603 63.909 15.9303 66.4463C16.8766 67.0806 17.1921 67.715 17.1921 68.825C17.1921 76.1199 17.1921 83.4147 17.1921 90.7095C17.1921 93.564 18.1384 95.7841 20.5043 97.5286C22.2393 98.7972 23.8165 100.224 25.7092 101.493C26.8133 102.286 27.1287 102.92 26.6556 104.189C26.1824 105.458 26.0247 107.044 25.8669 108.471C25.5515 112.911 28.0751 116.876 32.176 118.144C36.4345 119.572 41.0086 117.827 43.2167 114.021ZM61.1974 37.267C62.7747 36.3155 64.6674 35.9984 66.5601 35.2054C68.4528 35.8398 70.1878 36.3155 71.9227 37.267C73.3423 38.0599 73.1845 39.3286 71.9227 40.4387C69.3991 42.5003 63.721 42.5003 61.1974 40.4387C59.7779 39.3286 59.6202 38.0599 61.1974 37.267ZM37.6963 68.0321C38.3272 68.3493 38.9581 68.5079 39.4313 68.6665C46.529 71.2038 53.4689 73.7411 60.5665 76.2784C64.5096 77.7057 68.4528 77.3885 72.3959 76.2784C91.9538 70.728 109.619 61.5302 125.707 49.1607C126.338 48.685 126.811 48.2092 127.442 47.8921C127.442 47.8921 127.6 47.8921 127.915 47.7335C128.231 49.9537 127.6 51.8567 125.865 53.1253C109.619 66.6049 91.4807 76.437 71.1341 82.146C67.8219 83.0975 64.8251 83.0975 61.5129 82.146C53.7843 79.9258 46.2135 77.0714 38.8004 73.5825C37.8541 73.1068 37.5386 72.631 37.6963 71.6795C37.6963 70.5694 37.6963 69.4594 37.6963 68.0321ZM35.3305 88.4893C36.75 88.4893 37.8541 89.758 37.8541 91.1852C37.8541 92.6125 36.5923 93.7226 35.1727 93.7226C33.7532 93.7226 32.6491 92.4539 32.6491 91.0267C32.6491 89.5994 33.9109 88.4893 35.3305 88.4893ZM7.57081 53.7597C5.52038 52.3324 4.73175 50.4294 5.0472 47.7335C7.09763 49.1607 8.83261 50.7466 10.7253 51.8567C17.5075 56.1384 24.2897 60.4201 31.0719 64.5433C32.3337 65.3362 32.9646 66.1291 32.8069 67.5564C32.6491 68.3493 32.8069 69.3008 32.8069 70.5694C29.3369 68.5079 25.8669 66.7635 22.8702 64.5433C17.6652 61.0545 12.618 57.4071 7.57081 53.7597ZM29.1792 95.9427C29.4946 96.4185 29.6524 97.0528 29.8101 97.5286C29.6524 97.6871 29.3369 97.8457 29.1792 98.0043C27.1287 96.2599 24.9206 94.6741 22.8702 92.9296C22.397 92.6125 22.2393 91.8196 22.2393 91.3438C22.2393 84.5247 22.2393 77.7057 22.2393 70.728C25.7092 72.631 28.8637 74.3754 32.0182 76.1199C32.3337 76.2784 32.4914 76.7542 32.4914 77.2299C32.4914 78.1814 32.4914 78.9743 32.4914 79.9258C32.6491 82.3046 32.4914 84.049 30.1255 85.7934C26.8133 87.6964 26.6556 92.6125 29.1792 95.9427ZM31.0719 110.215C30.2833 107.202 32.6491 100.7 35.4882 98.6386C37.8541 101.017 38.8004 103.872 39.4313 107.044C39.5891 108.154 39.7468 109.422 39.4313 110.532C38.9581 112.435 37.0654 113.545 35.1727 113.545C33.1223 113.387 31.3873 112.118 31.0719 110.215Z" fill="#3A5082"/>
<path d="M146.211 115.29C146.685 113.863 147 112.277 147 110.691C147.158 104.823 145.423 99.5901 142.584 94.5154C141.006 91.5024 138.956 88.8065 136.275 86.7449C133.593 84.6833 130.754 84.049 127.442 85.4762C119.24 88.965 111.039 92.1367 102.837 95.4669C102.364 95.6255 101.891 95.7841 101.26 96.1013L96.5279 98.0043C96.3702 98.1629 96.2124 98.1629 95.897 98.3214C84.2253 102.92 72.7114 107.678 61.0397 112.435L48.1062 117.669C46.2135 118.461 44.6363 119.096 43.059 119.73C40.8509 120.523 39.4313 122.109 38.8004 124.329C38.3273 125.915 38.0118 127.659 38.0118 129.245C38.0118 134.161 39.4313 138.919 41.6395 143.2C43.3745 146.848 45.5826 150.178 48.8949 152.715C51.5762 154.777 54.2575 155.253 57.412 153.825C63.8788 150.971 70.5032 148.434 77.1277 145.738C77.6009 145.579 77.9163 145.421 78.3895 145.262C80.2822 150.178 82.1749 154.777 84.0676 159.534C84.3831 160.486 85.014 161.279 86.118 161.437C87.2221 161.596 87.853 160.803 88.3262 159.852C90.3766 156.521 92.427 153.191 94.3197 149.861C94.7929 148.909 95.4238 148.751 96.3702 149.068C99.9979 150.178 103.783 150.971 107.411 152.081C108.515 152.398 109.461 152.557 110.25 151.605C111.039 150.654 110.723 149.702 110.408 148.751C108.83 144.945 107.411 141.297 105.834 137.491C105.518 136.54 105.045 135.588 104.73 134.478C108.042 133.051 111.354 131.782 114.509 130.514C118.294 129.087 121.922 127.501 125.707 126.073C127.284 125.439 127.915 124.17 127.127 122.902C126.338 121.792 125.392 121.633 124.288 122.109C120.66 123.536 117.032 124.963 113.562 126.391C113.089 126.549 112.616 126.708 112.3 126.866C112.616 116.4 109.146 107.678 101.733 100.383C102.048 100.224 102.521 100.066 102.995 99.9073C111.67 96.4184 120.502 92.9296 129.177 89.2822C131.07 88.4893 132.647 88.8065 134.067 90.0751C135.013 91.0266 136.117 91.9781 136.906 92.9296C139.745 96.577 141.637 100.859 142.584 105.458C143.057 107.678 142.899 110.215 142.899 112.435C142.899 114.18 141.953 115.29 140.218 115.924C137.852 116.717 135.486 117.827 133.12 118.779C131.543 119.413 131.07 120.523 131.543 121.633C132.016 122.743 133.12 123.219 134.697 122.585C137.379 121.475 139.902 120.523 142.584 119.413C144.319 118.779 145.58 117.351 146.211 115.29ZM55.9925 148.751C55.5193 150.337 54.4152 150.812 52.838 150.019C51.7339 149.385 50.6298 148.592 49.8412 147.641C45.1094 142.408 42.7436 136.064 42.2704 128.611C42.4281 127.659 42.5858 126.391 43.059 125.122C43.5322 123.536 44.6363 123.06 46.2135 123.853C47.4753 124.488 48.5794 125.439 49.5258 126.549C53.9421 131.624 56.3079 137.65 56.7811 144.469C56.7811 145.896 56.4657 147.482 55.9925 148.751ZM61.8283 147.482C61.5129 147.641 61.0397 147.799 60.5665 147.958C61.1974 142.725 60.0934 137.967 58.3584 133.368C56.4657 128.769 54.0998 124.646 49.9989 121.316C50.4721 121.157 50.7876 120.84 51.103 120.84C58.5161 117.827 65.7715 114.973 73.1846 111.96C74.4464 111.484 75.5504 111.484 76.6545 112.277C77.2854 112.594 77.7586 113.07 78.2318 113.545C83.7522 119.413 86.5912 126.391 86.4335 134.637C86.4335 136.857 85.4871 138.284 83.279 139.077C76.0236 141.615 68.926 144.628 61.8283 147.482ZM105.518 147.165C104.73 147.006 104.099 146.848 103.626 146.689C100.944 145.896 98.1052 145.262 95.4238 144.469C94.0043 143.993 93.0579 144.469 92.427 145.738C90.8498 148.275 89.4303 150.812 87.853 153.35C87.6953 153.667 87.3798 154.143 86.9067 154.618C85.3294 150.812 83.9099 147.324 82.4903 143.676C88.7994 141.139 94.7929 138.602 101.102 136.223C102.521 139.712 103.941 143.359 105.518 147.165ZM102.048 106.885C105.676 111.642 107.726 117.034 108.2 123.06C108.2 123.695 108.2 124.329 108.2 124.805C108.2 127.501 107.095 129.245 104.414 130.197C99.8401 131.782 95.2661 133.844 90.6921 135.747C91.1652 125.281 87.5376 116.4 80.1245 109.105C80.9131 108.788 81.544 108.471 82.3326 108.154C86.5912 106.409 90.8498 104.823 94.9506 102.92C96.2125 102.445 97.3165 102.445 98.2629 103.238C99.6824 104.506 100.944 105.616 102.048 106.885Z" fill="#19918E"/>
</g>
<defs>
<clipPath id="clip0_94:356">
<rect width="147" height="161.438" fill="white"/>
</clipPath>
</defs>
</svg>
