<svg width="24" height="24" viewBox="0 0 24 24" fill="none" xmlns="http://www.w3.org/2000/svg">
<path d="M17.5034 0H6.49658C2.91431 0 0 2.91431 0 6.49658V17.5036C0 21.0857 2.91431 24 6.49658 24H17.5036C21.0857 24 24 21.0857 24 17.5036V6.49658C24 2.91431 21.0857 0 17.5034 0ZM12 18.5623C8.38147 18.5623 5.43768 15.6185 5.43768 12C5.43768 8.38147 8.38147 5.43768 12 5.43768C15.6185 5.43768 18.5623 8.38147 18.5623 12C18.5623 15.6185 15.6185 18.5623 12 18.5623ZM18.7192 6.98529C17.6499 6.98529 16.7802 6.11554 16.7802 5.0462C16.7802 3.97687 17.6499 3.10693 18.7192 3.10693C19.7886 3.10693 20.6585 3.97687 20.6585 5.0462C20.6585 6.11554 19.7886 6.98529 18.7192 6.98529Z" fill="white"/>
<path d="M12 6.84467C9.15747 6.84467 6.84467 9.15729 6.84467 12C6.84467 14.8425 9.15747 17.1553 12 17.1553C14.8427 17.1553 17.1553 14.8425 17.1553 12C17.1553 9.15729 14.8427 6.84467 12 6.84467Z" fill="white"/>
<path d="M18.7192 4.5141C18.4259 4.5141 18.1871 4.75287 18.1871 5.0462C18.1871 5.33954 18.4259 5.57831 18.7192 5.57831C19.0128 5.57831 19.2515 5.33972 19.2515 5.0462C19.2515 4.75269 19.0128 4.5141 18.7192 4.5141Z" fill="white"/>
</svg>
