<svg width="27" height="27" viewBox="0 0 27 27" fill="none" xmlns="http://www.w3.org/2000/svg">
<path d="M13.5 0.375C6.255 0.375 0.375 6.255 0.375 13.5C0.375 20.745 6.255 26.625 13.5 26.625C20.745 26.625 26.625 20.745 26.625 13.5C26.625 6.255 20.745 0.375 13.5 0.375ZM20.745 19.66C20.745 21.62 17.0175 22.075 13.5175 22.075C10.035 22.075 6.255 21.62 6.255 19.66V19.1175C6.255 17.6825 8.8275 16.2125 11.015 15.4075C11.1725 15.355 11.925 14.935 11.505 13.815C10.42 12.695 9.5975 10.875 9.5975 9.09C9.5975 6.36 11.3825 4.925 13.4825 4.925C15.5825 4.925 17.385 6.36 17.385 9.09C17.385 10.875 16.5625 12.6775 15.4775 13.7975C15.0575 15.075 15.7225 15.3725 15.8275 15.4075C18.1375 16.1775 20.71 17.63 20.71 19.1175V19.66H20.745Z" fill="white"/>
</svg>
