<svg width="71" height="47" viewBox="0 0 71 47" fill="none" xmlns="http://www.w3.org/2000/svg">
<path d="M0 39.6579C0.0559312 39.645 0.111862 39.6279 0.167793 39.6279C1.87584 39.6365 3.57959 39.6365 5.28764 39.6664C5.61032 39.6707 5.94591 39.7434 6.25568 39.8376C7.12477 40.1071 7.56792 40.6762 7.46896 41.8271C7.42594 42.3106 7.1807 42.6871 6.78058 42.9609C6.73325 42.9909 6.69023 43.0294 6.62999 43.0807C6.68162 43.1192 6.72465 43.1535 6.76767 43.1791C7.5378 43.6541 7.83897 44.3087 7.68408 45.1729C7.52919 46.0543 7.0086 46.5934 6.1094 46.756C5.70068 46.8287 5.28765 46.8801 4.87462 46.8844C3.4032 46.9015 1.93608 46.8929 0.464659 46.8972C0.309773 46.8972 0.154886 46.8929 0 46.8886C0 46.8159 0 46.7475 0 46.6747C0.275353 46.572 0.348494 46.3667 0.348494 46.0843C0.339889 44.2274 0.335587 42.3705 0.348494 40.5136C0.348494 40.2184 0.314075 39.9831 0.0043024 39.8718C0 39.7991 0 39.7263 0 39.6579ZM2.02213 45.6094C2.11678 45.6179 2.19852 45.6265 2.28457 45.6265C2.97296 45.6265 3.65704 45.6307 4.34542 45.6222C4.6595 45.6179 4.97787 45.6051 5.28764 45.558C5.78672 45.4853 6.03196 45.1858 6.01905 44.6895C6.00184 44.1675 5.79963 43.8808 5.28764 43.838C5.18009 43.8295 5.07683 43.7995 4.96927 43.7952C4.03135 43.7824 3.09342 43.7739 2.1555 43.7696C2.11678 43.7696 2.07376 43.7867 2.02643 43.7952C2.02213 44.4028 2.02213 44.9975 2.02213 45.6094ZM2.01782 42.4689C2.09527 42.4732 2.1469 42.4817 2.19422 42.4817C3.06761 42.4817 3.94099 42.4817 4.81438 42.4774C4.96927 42.4774 5.12846 42.4561 5.28334 42.4304C5.54579 42.3833 5.72219 42.2378 5.79103 41.9726C5.94161 41.3907 5.69207 41.0227 5.10264 40.9457C5.08113 40.9414 5.05962 40.9414 5.03811 40.9414C4.09158 40.9329 3.14935 40.9243 2.20283 40.9158C2.14259 40.9158 2.08236 40.9372 2.01782 40.95C2.01782 41.4592 2.01782 41.9555 2.01782 42.4689Z" fill="#19918E" fill-opacity="0.3"/>
<path d="M70 46.033C69.4192 46.4138 68.7824 46.6662 68.1113 46.8159C67.1174 47.0341 66.1106 47.0898 65.1383 46.756C63.968 46.3539 63.2108 45.558 63.086 44.2916C62.957 42.9866 63.469 41.9854 64.6263 41.3308C65.7578 40.6933 66.9496 40.689 68.1629 41.0441C68.3737 41.104 68.5845 41.1896 68.7996 41.2324C68.976 41.2709 69.1611 41.2795 69.3461 41.2837C69.4622 41.2837 69.5526 41.3137 69.4966 41.4335C69.2901 41.8785 69.075 42.3192 68.8556 42.7598C68.8427 42.7855 68.7996 42.8026 68.7609 42.8283C68.7222 42.7898 68.6749 42.7598 68.662 42.7171C68.5802 42.4432 68.3608 42.3405 68.1156 42.2507C67.3325 41.9555 66.5495 41.8656 65.7492 42.178C64.9533 42.4903 64.5015 43.2048 64.5661 44.0648C64.6306 44.9548 65.1254 45.5281 66.0031 45.7249C66.7732 45.896 67.5261 45.8404 68.2661 45.5751C68.4598 45.5067 68.5372 45.3954 68.5243 45.1901C68.5114 45.0061 68.52 44.8221 68.52 44.6168C68.0381 44.6168 67.5735 44.6082 67.1131 44.6253C67.04 44.6296 66.9711 44.728 66.9023 44.7879C66.8507 44.835 66.8033 44.8863 66.756 44.9376C66.7345 44.9291 66.7087 44.9248 66.6872 44.9163C66.6743 44.6638 66.6484 44.4114 66.6441 44.1589C66.6398 43.9322 66.6484 43.7011 66.6613 43.4744C66.6657 43.4273 66.7044 43.3717 66.7431 43.3417C66.7603 43.3289 66.842 43.3717 66.8593 43.4059C66.9668 43.6455 67.1776 43.6626 67.4014 43.6626C68.1844 43.6626 68.9631 43.6583 69.7462 43.6669C69.8322 43.6669 69.9183 43.7268 70.0086 43.7568C70.0086 43.7867 70.0086 43.8124 70.0086 43.8423C69.772 43.9707 69.7118 44.1803 69.7204 44.4328C69.729 44.7451 69.729 45.0574 69.7247 45.3741C69.7204 45.6051 69.7935 45.7891 70.0129 45.896C70 45.9474 70 45.9902 70 46.033Z" fill="#19918E" fill-opacity="0.3"/>
<path d="M21.5163 26.7581C21.3485 26.5227 21.185 26.3174 21.0473 26.0949C20.0535 24.5033 19.4597 22.7662 19.15 20.9307C18.397 16.4638 19.7609 12.6303 22.7554 9.31437C25.1475 6.66166 28.1162 4.98446 31.6226 4.25711C33.1457 3.9405 34.6816 3.91055 36.2219 4.13303C36.708 4.20149 37.1942 4.27422 37.7148 4.34696C35.9723 11.6376 33.4942 18.6117 29.8973 25.252C30.0307 25.1921 30.1125 25.1579 30.1856 25.1194C31.7044 24.3792 33.2231 23.6433 34.8193 23.0828C35.5292 22.8303 36.2477 22.6121 37.0049 22.5694C37.2932 22.5522 37.5943 22.5694 37.8783 22.6293C38.5021 22.7662 38.9281 23.2625 38.984 23.8957C39.0098 24.208 38.9883 24.5204 38.9883 24.8327C39.0055 24.8413 39.027 24.8498 39.0442 24.8584C39.1088 24.7814 39.1776 24.7129 39.2379 24.6316C40.236 23.224 40.8469 21.6537 41.217 19.9808C41.6601 17.9785 41.7289 15.959 41.5697 13.9224C41.346 11.0386 40.7093 8.25329 39.6208 5.57063C39.5089 5.2968 39.3884 5.02297 39.3067 4.6978C39.4142 4.73203 39.5261 4.76198 39.6294 4.80477C41.2729 5.49789 42.7314 6.49052 44.1383 7.56016C46.2034 9.13039 47.6103 11.1969 48.587 13.563C49.4603 15.6766 49.839 17.8843 49.7185 20.1648C49.5593 23.1384 48.4837 25.7612 46.6035 28.0673C44.2157 30.9938 41.1395 32.8165 37.4739 33.6808C37.0135 33.7877 36.5445 33.8434 36.0756 33.9204C35.9981 33.9332 35.925 33.9503 35.8433 34.0102C36.1573 34.0787 36.4714 34.1514 36.7855 34.2156C40.1112 34.8788 43.4757 35.1355 46.8574 34.9772C50.3036 34.8189 53.6466 34.1514 56.8002 32.6924C57.9619 32.1533 59.0633 31.5244 60.083 30.7542C60.2034 30.6644 60.3282 30.5831 60.453 30.5018C60.4659 30.5146 60.4788 30.5232 60.4917 30.536C60.453 30.5917 60.4185 30.6558 60.3669 30.6986C56.2366 34.1899 51.5298 36.4961 46.1819 37.463C43.6521 37.9208 41.1008 38.0406 38.5366 37.8823C34.9914 37.6641 31.5796 36.8426 28.228 35.7088C26.1629 35.0114 24.0805 34.3525 21.9852 33.7407C20.1481 33.2059 18.2594 32.8892 16.3362 32.808C13.7548 32.6967 11.2293 33.0433 8.75968 33.7792C7.61524 34.1215 6.49662 34.545 5.36939 34.9301C5.29194 34.9558 5.2102 34.9772 5.13276 34.9986C5.10694 34.9643 5.07682 34.9344 5.05101 34.9002C5.11985 34.8702 5.18869 34.8403 5.25322 34.806C7.51198 33.531 9.81807 32.363 12.3049 31.5886C14.8476 30.797 17.4548 30.5232 20.1137 30.6002C22.6177 30.673 25.1045 30.9553 27.5956 31.1693C29.8457 31.3618 32.0442 31.0751 34.204 30.4547C36.8242 29.7017 39.2551 28.5636 41.3804 26.8436C41.9182 26.4115 42.3786 25.8852 42.8734 25.4018C42.925 25.3504 42.9594 25.282 43.0412 25.1664C36.3423 26.2575 29.6865 27.3357 23.035 28.4096C23.0264 28.3882 23.0178 28.3668 23.0092 28.3454C23.0824 28.3069 23.1512 28.2556 23.2286 28.2299C24.472 27.802 25.6466 27.2244 26.748 26.5099C27.7418 25.8638 28.5034 24.991 29.1831 24.0326C30.8267 21.7179 32.0615 19.1978 33.0897 16.5665C34.0922 14.0037 34.8924 11.3724 35.7142 8.7496C35.8045 8.46294 35.8863 8.17627 35.9723 7.88961C35.9809 7.86394 35.9723 7.83399 35.9723 7.73558C35.8906 7.86394 35.839 7.93667 35.7959 8.00941C34.2643 10.4824 32.7627 12.9811 31.1881 15.4242C29.5101 18.0255 27.6687 20.5071 25.6337 22.8475C24.4677 24.1909 23.1727 25.4018 21.8088 26.5399C21.7271 26.6126 21.6367 26.6682 21.5163 26.7581ZM42.4733 19.4417C43.5101 18.74 44.5126 18.7999 45.4978 19.5658C45.7689 19.1679 46.0227 18.7785 46.2938 18.4063C46.7498 17.7731 47.3608 17.3623 48.1352 17.2126C48.2342 17.1912 48.3331 17.1741 48.4364 17.1527C48.3718 17.0928 48.3073 17.0628 48.2385 17.0457C47.3651 16.8618 46.5993 17.0372 46.0098 17.7346C45.756 18.0341 45.5366 18.3593 45.3128 18.6844C45.2182 18.8213 45.1192 18.8556 44.9686 18.8085C44.7707 18.7443 44.5728 18.6844 44.3749 18.6288C43.622 18.4234 42.8045 18.7614 42.4733 19.4417Z" fill="#19918E" fill-opacity="0.3"/>
<path d="M15.3424 43.0937C15.3811 43.1236 15.4026 43.145 15.4284 43.1578C16.3577 43.6456 16.5857 44.5698 16.3061 45.5025C16.0953 46.2127 15.5661 46.585 14.8734 46.739C14.512 46.8203 14.1377 46.8759 13.7677 46.8802C12.1844 46.8973 10.5968 46.893 9.01353 46.8887C8.92318 46.8887 8.83283 46.8331 8.74248 46.8075C8.7898 46.7304 8.84143 46.6534 8.88876 46.5764C8.94039 46.4823 9.00922 46.3839 9.03504 46.2812C9.06085 46.1742 9.04795 46.0544 9.04795 45.9389C9.04795 44.1334 9.04795 42.3321 9.04795 40.5265C9.04795 40.2827 9.06946 40.0431 8.7941 39.8976C8.69085 39.842 8.70375 39.7222 8.82852 39.6665C8.88446 39.6409 8.95329 39.6323 9.01783 39.6323C10.4247 39.6323 11.8273 39.628 13.2342 39.6451C13.7074 39.6494 14.1807 39.6837 14.6454 39.7564C15.3897 39.8719 15.906 40.2998 16.1211 41.0228C16.3319 41.7245 16.1727 42.3492 15.6134 42.8498C15.5274 42.9311 15.437 43.0081 15.3424 43.0937ZM12.2833 45.6308C12.2833 45.6394 12.2833 45.648 12.2833 45.6608C12.8556 45.6266 13.4278 45.6052 13.9957 45.5581C14.3012 45.5324 14.5464 45.3827 14.6368 45.0746C14.7357 44.7281 14.7572 44.3815 14.512 44.082C14.4518 44.0093 14.3571 43.9494 14.2668 43.9151C14.1291 43.8638 13.9785 43.8167 13.8322 43.8125C12.8427 43.7953 11.8574 43.7825 10.8679 43.7825C10.8162 43.7825 10.7216 43.8766 10.7173 43.928C10.7087 44.4329 10.7173 44.9377 10.7173 45.4426C10.7173 45.6009 10.7947 45.6394 10.9453 45.6394C11.3928 45.6223 11.8359 45.6308 12.2833 45.6308ZM10.7173 42.4776C11.5648 42.4776 12.3866 42.4818 13.2084 42.4776C13.445 42.4776 13.6816 42.469 13.914 42.4348C14.3055 42.3791 14.5335 42.1139 14.5378 41.7416C14.5421 41.3009 14.3485 41.0528 13.9312 40.9715C13.8537 40.9587 13.7763 40.9415 13.6988 40.9373C12.7265 40.9287 11.7542 40.9202 10.7818 40.9159C10.7646 40.9159 10.7431 40.9287 10.7173 40.9416C10.7173 41.4421 10.7173 41.947 10.7173 42.4776Z" fill="#19918E" fill-opacity="0.3"/>
<path d="M60.2164 41.0526C60.41 40.8901 62.0105 40.8858 62.2041 41.0441C62.1826 41.0783 62.174 41.1297 62.1395 41.1468C61.8771 41.2837 61.8728 41.5233 61.8728 41.7757C61.8728 43.1791 61.8771 44.5824 61.8728 45.9901C61.8728 46.2596 61.8728 46.5206 62.1438 46.6832C62.174 46.7003 62.1826 46.7559 62.1998 46.7902C61.9803 46.9228 60.2637 46.9185 60.0701 46.7902C60.0744 46.7773 60.0744 46.7602 60.083 46.7517C60.2766 46.4479 60.2895 46.4393 60.0357 46.1869C59.0332 45.19 58.0178 44.2017 57.0111 43.209C56.9767 43.1748 56.9336 43.1534 56.8691 43.1106C56.8605 43.2347 56.8476 43.3288 56.8476 43.4272C56.8433 44.2958 56.8476 45.1643 56.8433 46.0371C56.8433 46.2853 56.8476 46.5249 57.1014 46.6704C57.1358 46.6918 57.1444 46.7517 57.1832 46.8244C57.0756 46.8458 56.9853 46.8757 56.8992 46.8757C56.4044 46.88 55.9097 46.8843 55.4149 46.8757C55.3417 46.8757 55.2686 46.8201 55.1955 46.7902C55.2385 46.7346 55.2944 46.6789 55.3245 46.619C55.3891 46.4992 55.488 46.3709 55.4923 46.2468C55.5052 44.6851 55.5009 43.1235 55.5009 41.5618C55.5009 41.3949 55.4364 41.2623 55.2815 41.1724C55.2385 41.1468 55.2213 41.074 55.1912 41.0227C55.2428 40.9927 55.2944 40.9414 55.346 40.9414C55.9914 40.9371 56.6368 40.9328 57.2821 40.9414C57.351 40.9414 57.4155 40.9927 57.4843 41.0227C57.4714 41.0698 57.4714 41.0954 57.4585 41.1083C57.2434 41.412 57.2391 41.4163 57.4972 41.673C58.4395 42.61 59.386 43.5428 60.3325 44.4755C60.3712 44.514 60.4186 44.5482 60.496 44.6167C60.5089 44.5097 60.5304 44.4412 60.5304 44.3728C60.5347 43.4529 60.5304 42.533 60.5347 41.6131C60.5347 41.4292 60.4917 41.2794 60.3196 41.181C60.2766 41.151 60.2508 41.0954 60.2164 41.0526Z" fill="#19918E" fill-opacity="0.3"/>
<path d="M42.8131 46.8202C42.8433 46.756 42.8433 46.7304 42.8605 46.7175C43.1659 46.5122 43.1358 46.2041 43.1315 45.896C43.1229 45.3826 43.1315 44.8735 43.1315 44.3429C42.0559 44.3429 41.0061 44.3429 39.9348 44.3429C39.9305 44.467 39.9219 44.5868 39.9176 44.7023C39.9133 45.173 39.9176 45.6436 39.9133 46.1143C39.9133 46.3282 39.9219 46.5293 40.1414 46.6534C40.1801 46.6748 40.193 46.7347 40.2317 46.8031C40.1371 46.8288 40.0553 46.8716 39.9779 46.8716C39.4272 46.8758 38.8722 46.8758 38.3214 46.8716C38.2526 46.8716 38.1881 46.8202 38.1192 46.7945C38.158 46.7346 38.201 46.679 38.2354 46.6149C38.2999 46.4951 38.4161 46.3752 38.4161 46.2554C38.429 44.6938 38.429 43.1321 38.4161 41.5704C38.4161 41.4421 38.2913 41.318 38.2225 41.1939C38.1924 41.134 38.1537 41.0784 38.1235 41.0228C38.1838 40.9971 38.244 40.9457 38.3042 40.9415C38.8765 40.9372 39.453 40.9372 40.0252 40.9415C40.0854 40.9415 40.1457 40.9928 40.2059 41.0228C40.1758 41.0741 40.1586 41.1511 40.1155 41.1768C39.965 41.2709 39.9133 41.4121 39.9133 41.579C39.9133 42.0496 39.9176 42.5203 39.9133 42.9909C39.9133 43.1107 39.9607 43.1578 40.0768 43.1578C41.0449 43.1578 42.0129 43.1578 42.9809 43.162C43.1057 43.162 43.1358 43.0979 43.1358 42.9866C43.1315 42.5074 43.1487 42.0325 43.1229 41.5533C43.1186 41.4249 42.9938 41.3051 42.925 41.1811C42.8906 41.1212 42.8605 41.0613 42.8261 41.0056C42.8906 40.9842 42.9508 40.9415 43.0154 40.9415C43.5833 40.9372 44.1469 40.9329 44.7148 40.9415C44.7879 40.9415 44.8611 41.0056 44.9299 41.0356C44.8826 41.0912 44.8439 41.1554 44.7879 41.1982C44.6331 41.3094 44.6072 41.4634 44.6072 41.6303C44.6072 42.1994 44.6072 42.7727 44.6072 43.3417C44.6072 44.2402 44.6072 45.1387 44.6029 46.0372C44.6029 46.2854 44.6072 46.5207 44.8654 46.6662C44.9729 46.7304 44.9471 46.8245 44.8181 46.8587C44.7621 46.8716 44.7062 46.8716 44.646 46.8716C44.1426 46.8716 43.6435 46.8758 43.1401 46.8716C43.0369 46.8758 42.9379 46.8416 42.8131 46.8202Z" fill="#19918E" fill-opacity="0.3"/>
<path d="M21.8519 46.8501C21.7142 46.863 21.6195 46.8758 21.5292 46.8758C20.9355 46.8801 20.3374 46.8844 19.7437 46.8758C19.6663 46.8758 19.5845 46.8116 19.5071 46.7817C19.5544 46.7175 19.606 46.6576 19.6447 46.5891C19.7093 46.4693 19.8211 46.3495 19.8211 46.2255C19.8383 45.4895 19.834 44.7579 19.8254 44.022C19.8254 43.9022 19.7652 43.7696 19.6964 43.6712C18.9133 42.563 18.126 41.4591 17.3257 40.3638C17.1924 40.1841 16.9686 40.0686 16.7922 39.9231C16.7449 39.8846 16.7062 39.829 16.6632 39.7777C16.7191 39.7392 16.7707 39.6878 16.831 39.6664C16.8869 39.645 16.96 39.6579 17.0246 39.6579C17.7689 39.6579 18.5175 39.6536 19.2618 39.6622C19.3522 39.6622 19.4382 39.7178 19.5243 39.752C19.4683 39.8247 19.4253 39.9231 19.3565 39.9659C19.1844 40.0729 19.1285 40.1927 19.2489 40.3724C19.705 41.0527 20.1653 41.733 20.6429 42.4432C20.7117 42.3619 20.772 42.3063 20.8193 42.2421C21.2194 41.6688 21.6152 41.0912 22.0154 40.5179C22.0498 40.4708 22.0799 40.4237 22.1057 40.3724C22.2176 40.1585 22.1918 40.0857 21.9939 39.9488C21.9336 39.906 21.8992 39.829 21.8562 39.7648C21.9293 39.7306 22.0025 39.6707 22.0799 39.6707C22.8629 39.6622 23.6417 39.6621 24.4247 39.6664C24.5021 39.6664 24.5796 39.7049 24.657 39.7263C24.6828 39.7648 24.7044 39.7991 24.7302 39.8376C24.6527 39.8718 24.571 39.8975 24.5065 39.9488C24.3128 40.1028 24.0848 40.2355 23.9428 40.4323C23.1555 41.5019 22.3811 42.5801 21.6195 43.6669C21.5292 43.7952 21.4862 43.9835 21.4819 44.1461C21.4647 44.7964 21.4776 45.4425 21.4733 46.0928C21.4733 46.3153 21.4948 46.5164 21.7185 46.6448C21.7658 46.6704 21.7873 46.7517 21.8519 46.8501Z" fill="#19918E" fill-opacity="0.3"/>
<path d="M27.4665 41.0098C27.4106 41.0954 27.3891 41.1424 27.3546 41.1767C27.1309 41.4034 27.1008 41.4976 27.2471 41.7757C28.0301 43.2646 28.8132 44.7535 29.6091 46.2339C29.6995 46.3965 29.8845 46.512 30.0221 46.6489C30.0609 46.6875 30.0867 46.7345 30.1168 46.7773C30.0738 46.8073 30.035 46.85 29.9834 46.8672C29.9318 46.8843 29.8716 46.88 29.8113 46.88C29.1875 46.88 28.5636 46.8843 27.9398 46.88C27.858 46.88 27.7763 46.8244 27.6945 46.7901C27.7462 46.726 27.7849 46.6489 27.8494 46.6062C28.0043 46.5035 28.0301 46.3794 27.957 46.2211C27.8537 46.0029 27.7677 45.7718 27.6429 45.5665C27.5956 45.4852 27.4665 45.4082 27.3719 45.4082C26.6103 45.3953 25.8531 45.3996 25.0916 45.3996C24.9453 45.3996 24.8506 45.4595 24.7947 45.5964C24.713 45.7932 24.6312 45.99 24.5409 46.1869C24.4591 46.3666 24.4634 46.512 24.6484 46.6276C24.7044 46.6618 24.7431 46.726 24.7947 46.7773C24.5882 46.9271 22.8242 46.9271 22.6048 46.7859C22.6263 46.7516 22.6392 46.7003 22.6693 46.6875C22.9447 46.5591 23.0565 46.3024 23.1813 46.0542C23.8138 44.7835 24.4505 43.517 25.083 42.2506C25.1776 42.0581 25.2594 41.8612 25.3411 41.6644C25.4186 41.4847 25.3755 41.335 25.2164 41.2109C25.1604 41.1681 25.1303 41.0911 25.0916 41.0312C25.1647 41.0012 25.2379 40.9456 25.311 40.9456C25.9219 40.9371 26.5286 40.9371 27.1395 40.9456C27.2428 40.9371 27.3374 40.9799 27.4665 41.0098ZM26.2059 42.7512C25.909 43.3545 25.6294 43.9149 25.3454 44.4926C25.9392 44.4926 26.4942 44.4926 27.0836 44.4926C26.791 43.9107 26.5114 43.3587 26.2059 42.7512Z" fill="#19918E" fill-opacity="0.3"/>
<path d="M36.3208 44.6639C36.6435 45.1174 36.9275 45.5153 37.2114 45.9175C37.2717 46.0031 37.2501 46.0844 37.1426 46.0758C36.7554 46.0544 36.4628 46.2726 36.153 46.4481C35.0215 47.0856 33.8211 47.1326 32.6165 46.7818C31.5409 46.4695 30.7664 45.7678 30.5083 44.6468C30.0867 42.8027 31.1709 41.2368 33.051 40.8945C34.1868 40.6891 35.2581 40.8303 36.2606 41.4293C36.4155 41.5192 36.5747 41.6047 36.7382 41.6732C36.8328 41.7117 36.9404 41.7031 37.0436 41.716C37.0996 41.7245 37.1727 41.7117 37.1985 41.7416C37.2243 41.7716 37.2243 41.8572 37.1985 41.8957C36.9447 42.2679 36.6908 42.6401 36.4241 42.9995C36.3423 43.1108 36.2391 43.0894 36.2133 42.9482C36.1358 42.5246 35.8304 42.3406 35.4603 42.208C34.7418 41.9513 34.019 41.8999 33.2919 42.1395C32.2163 42.4904 31.6828 43.4659 32.0141 44.4928C32.2594 45.2586 32.8703 45.6137 33.606 45.7635C34.3632 45.9218 35.086 45.7806 35.7744 45.434C35.9809 45.3314 36.1272 45.1731 36.1875 44.942C36.209 44.8693 36.2563 44.7965 36.3208 44.6639Z" fill="#19918E" fill-opacity="0.3"/>
<path d="M17.67 28.4866C17.6011 28.431 17.528 28.3839 17.4634 28.324C16.8568 27.7464 16.1813 27.2758 15.3725 27.0105C14.1592 26.6126 13.0105 26.788 11.9306 27.4427C11.6681 27.601 11.4143 27.7721 11.1389 27.9518C11.04 27.8234 10.9453 27.7122 10.8593 27.5924C10.4505 26.9891 10.059 26.3773 9.63308 25.7869C8.82423 24.6659 7.77445 23.8701 6.38908 23.5962C5.93732 23.5064 5.46406 23.4978 5.0037 23.455C4.92626 23.4465 4.85312 23.455 4.75417 23.4037C4.79289 23.3737 4.82731 23.331 4.87463 23.3181C5.76953 23.0443 6.66873 22.8175 7.61956 22.9202C8.53167 23.0186 9.3018 23.3994 9.97297 24.0113C10.6484 24.6316 11.1647 25.3761 11.6165 26.1676C11.7283 26.3645 11.8488 26.3944 12.0553 26.3388C12.6319 26.1762 13.2084 26.0051 13.7978 25.881C14.4173 25.7483 15.0111 25.8938 15.5532 26.2104C16.4825 26.7581 17.1149 27.5881 17.713 28.4481C17.6958 28.461 17.6829 28.4738 17.67 28.4866Z" fill="#19918E" fill-opacity="0.3"/>
<path d="M49.6067 46.8417C49.4561 46.8588 49.3571 46.876 49.2582 46.876C48.7333 46.8802 48.2127 46.8802 47.6878 46.876C47.606 46.876 47.5286 46.8161 47.4468 46.7861C47.4899 46.7305 47.5458 46.6749 47.5802 46.615C47.6448 46.4994 47.748 46.3796 47.748 46.2641C47.7566 44.895 47.7523 43.5258 47.7523 42.161C47.7523 42.1396 47.7394 42.1225 47.7265 42.0754C47.4382 42.0754 47.1457 42.0754 46.8574 42.0754C46.6767 42.0754 46.5003 42.0797 46.3196 42.0711C46.0658 42.0626 45.8291 42.0797 45.6872 42.3321C45.67 42.3578 45.6312 42.3706 45.6011 42.3877C45.4376 42.2252 45.4204 40.8603 45.5796 40.6421C45.6011 40.6506 45.6398 40.6506 45.6527 40.672C45.8291 40.9501 46.1088 40.9459 46.3928 40.9416C47.847 40.9373 49.3012 40.9373 50.7554 40.9416C50.9705 40.9416 51.1727 40.9288 51.2975 40.7148C51.319 40.6763 51.4051 40.6464 51.4395 40.6592C51.4739 40.672 51.5083 40.7491 51.5083 40.7961C51.5126 41.2753 51.5126 41.7502 51.5083 42.2294C51.5083 42.2808 51.4524 42.3364 51.4223 42.3877C51.3749 42.3535 51.3061 42.3321 51.276 42.2851C51.177 42.1268 51.0264 42.0754 50.8543 42.0754C50.3811 42.0711 49.9078 42.0754 49.4346 42.0754C49.2926 42.0754 49.228 42.1268 49.228 42.2722C49.2323 43.5815 49.228 44.895 49.228 46.2042C49.228 46.3796 49.2711 46.5422 49.4432 46.6406C49.5034 46.6706 49.5335 46.7433 49.6067 46.8417Z" fill="#19918E" fill-opacity="0.3"/>
<path d="M38.1967 2.71251C38.3903 1.95949 38.5667 1.26208 38.7474 0.564676C38.7947 0.384977 38.9238 0.303684 39.0916 0.248063C39.7843 0.0170206 40.4942 -0.0172079 41.2127 0.00846345C41.6644 0.0255777 42.0731 0.153935 42.4518 0.384977C42.7959 0.590348 43.1444 0.79144 43.4671 1.02248C44.831 2.01083 46.3712 2.23759 48.0061 2.06645C48.4063 2.02367 48.7978 1.95093 49.1979 1.89531C49.2926 1.88247 49.3872 1.88247 49.4819 1.87819C49.4862 1.89959 49.4905 1.9167 49.4905 1.93809C49.3571 1.9766 49.228 2.02367 49.0947 2.04934C47.89 2.31033 46.681 2.54565 45.4376 2.5157C45.0676 2.50714 44.6933 2.46436 44.3319 2.38734C44.0953 2.336 43.8328 2.25043 43.6521 2.10068C42.9637 1.53591 42.1936 1.45462 41.3848 1.68994C40.4038 1.9766 39.4401 2.31461 38.4677 2.62694C38.386 2.65261 38.3129 2.67401 38.1967 2.71251Z" fill="#19918E" fill-opacity="0.3"/>
<path d="M54.2016 46.8373C54.0854 46.8544 53.9908 46.8758 53.8918 46.8758C53.3669 46.8801 52.8463 46.8801 52.3214 46.8758C52.2784 46.8758 52.2311 46.8801 52.1967 46.863C52.1493 46.8416 52.0934 46.8073 52.0719 46.7645C52.0633 46.7432 52.1106 46.6704 52.145 46.6533C52.3429 46.5506 52.3774 46.3752 52.3774 46.1827C52.3774 44.6552 52.3774 43.132 52.3774 41.6046C52.3774 41.4163 52.3386 41.2495 52.1493 41.1596C52.1106 41.1425 52.0848 41.0912 52.0547 41.0527C52.2311 40.8858 53.952 40.873 54.1672 41.0313C54.15 41.0655 54.1413 41.1168 54.1112 41.1339C53.8617 41.2751 53.8574 41.5019 53.8574 41.7458C53.8617 43.1577 53.8617 44.5696 53.8574 45.9816C53.8574 46.2554 53.8617 46.5121 54.1284 46.6747C54.1457 46.6833 54.1543 46.7089 54.1672 46.726C54.1758 46.756 54.1801 46.7731 54.2016 46.8373Z" fill="#19918E" fill-opacity="0.3"/>
<path d="M50.7468 23.7245C50.7855 23.6946 50.8199 23.6518 50.8629 23.639C51.5728 23.4208 52.287 23.2582 53.0356 23.4208C53.8015 23.5876 54.3823 24.0411 54.8513 24.6359C55.0922 24.9439 55.3073 25.2734 55.5138 25.6071C55.6128 25.7697 55.716 25.8125 55.901 25.7569C56.271 25.6413 56.6411 25.5344 57.0197 25.4531C57.5144 25.3461 57.9748 25.4659 58.3921 25.7355C58.9557 26.0991 59.3645 26.6126 59.7474 27.1517C59.7646 27.1773 59.7646 27.2158 59.7904 27.3228C58.3405 25.9408 56.8433 25.6627 55.2213 26.9377C55.1223 26.8137 55.0277 26.7153 54.9545 26.6083C54.6792 26.2061 54.421 25.7954 54.1414 25.4017C53.3798 24.3321 52.343 23.7802 51.0178 23.7887C50.9361 23.7887 50.85 23.7887 50.7683 23.7887C50.7554 23.763 50.7511 23.7459 50.7468 23.7245Z" fill="#19918E" fill-opacity="0.3"/>
</svg>
