<svg width="169" height="115" viewBox="0 0 169 115" fill="none" xmlns="http://www.w3.org/2000/svg">
<g clip-path="url(#clip0_1139_1227)">
<path d="M92.2007 6.90726C92.668 5.07945 93.0938 3.38665 93.53 1.69384C93.6442 1.25766 93.9558 1.06034 94.3608 0.925329C96.0329 0.364523 97.7464 0.28144 99.4808 0.343752C100.571 0.385293 101.558 0.696852 102.472 1.25766C103.303 1.75615 104.144 2.24426 104.923 2.80507C108.215 5.20407 111.933 5.75449 115.879 5.33908C116.845 5.23523 117.79 5.05868 118.756 4.92367C118.984 4.89251 119.213 4.89251 119.441 4.88213C119.452 4.93406 119.462 4.9756 119.462 5.02752C119.14 5.12099 118.829 5.23523 118.507 5.29754C115.599 5.93104 112.681 6.50224 109.679 6.42954C108.786 6.40877 107.882 6.30492 107.01 6.11798C106.439 5.99336 105.805 5.78565 105.369 5.42216C103.708 4.0513 101.849 3.85398 99.8962 4.42518C97.5283 5.12099 95.202 5.94143 92.855 6.69956C92.6576 6.76187 92.4811 6.8138 92.2007 6.90726Z" fill="white"/>
<path d="M16.3361 105.132C16.2322 105.069 16.1284 104.986 16.0037 104.893C16.1491 104.768 16.253 104.675 16.3672 104.602C17.3331 103.937 17.925 103.023 18.0289 101.85C18.2677 99.0561 17.1981 97.6749 15.1002 97.0206C14.3525 96.7921 13.5424 96.6156 12.7635 96.6052C8.64057 96.5325 4.52799 96.5325 0.405027 96.5117C0.270018 96.5117 0.135009 96.5533 0 96.5844C0 96.7506 0 96.9271 0.0103853 97.1037C0.758127 97.3737 0.841209 97.9449 0.841209 98.6615C0.810054 103.169 0.820439 107.676 0.841209 112.183C0.841209 112.869 0.664659 113.367 0 113.616C0 113.793 0 113.959 0 114.136C0.373871 114.146 0.747742 114.156 1.12161 114.156C4.67339 114.146 8.21477 114.167 11.7665 114.125C12.7635 114.115 13.7605 113.99 14.7471 113.814C16.9177 113.419 18.1743 112.11 18.5481 109.971C18.922 107.873 18.195 106.284 16.3361 105.132ZM4.87071 99.7208C5.02649 99.6896 5.17188 99.6377 5.31727 99.6377C7.60204 99.6585 9.87642 99.6792 12.1612 99.7C12.2131 99.7 12.265 99.7 12.317 99.7104C13.7398 99.8973 14.3421 100.79 13.9786 102.203C13.8125 102.847 13.3867 103.2 12.7531 103.314C12.3793 103.376 11.995 103.428 11.6212 103.428C9.51294 103.439 7.40472 103.439 5.2965 103.439C5.18227 103.439 5.05764 103.418 4.87071 103.408C4.87071 102.161 4.87071 100.957 4.87071 99.7208ZM12.7635 110.906C12.0158 111.02 11.2473 111.051 10.4892 111.062C8.82751 111.082 7.17624 111.072 5.51459 111.072C5.30689 111.072 5.10957 111.051 4.88109 111.03C4.88109 109.545 4.88109 108.102 4.89148 106.627C5.00571 106.606 5.10957 106.565 5.20304 106.565C7.46703 106.575 9.73103 106.596 11.995 106.627C12.2547 106.637 12.5039 106.71 12.7635 106.731C13.9994 106.835 14.4875 107.531 14.529 108.798C14.5602 110.002 13.9682 110.729 12.7635 110.906Z" fill="white"/>
<path d="M168.304 110.459C168.315 109.69 168.315 108.932 168.294 108.174C168.273 107.561 168.418 107.052 168.99 106.741C168.99 106.668 168.99 106.606 168.99 106.533C168.772 106.46 168.564 106.315 168.356 106.315C166.466 106.294 164.586 106.305 162.696 106.305C162.156 106.305 161.647 106.263 161.388 105.682C161.346 105.598 161.149 105.495 161.107 105.526C161.014 105.598 160.92 105.733 160.91 105.848C160.879 106.398 160.858 106.959 160.868 107.509C160.879 108.122 160.941 108.735 160.972 109.348C161.024 109.368 161.086 109.379 161.138 109.399C161.253 109.275 161.367 109.15 161.491 109.036C161.658 108.891 161.824 108.652 162 108.641C163.112 108.6 164.233 108.621 165.396 108.621C165.396 109.119 165.376 109.566 165.407 110.012C165.438 110.511 165.251 110.781 164.784 110.947C162.997 111.591 161.18 111.726 159.321 111.31C157.202 110.833 156.008 109.441 155.852 107.281C155.696 105.193 156.787 103.459 158.708 102.701C160.64 101.943 162.53 102.161 164.42 102.877C165.012 103.096 165.542 103.345 165.739 104.009C165.77 104.113 165.884 104.186 165.978 104.279C166.071 104.217 166.175 104.176 166.206 104.113C166.736 103.044 167.255 101.974 167.754 100.894C167.889 100.603 167.671 100.53 167.39 100.53C166.944 100.52 166.497 100.499 166.071 100.406C165.552 100.302 165.043 100.094 164.534 99.9488C161.606 99.0868 158.729 99.0972 155.998 100.645C153.204 102.234 151.968 104.664 152.28 107.831C152.581 110.905 154.409 112.837 157.233 113.813C159.581 114.623 162.011 114.488 164.41 113.959C166.03 113.595 167.567 112.982 168.969 112.058C168.969 111.954 168.969 111.85 169 111.726C168.47 111.466 168.294 111.02 168.304 110.459Z" fill="white"/>
<path d="M50.8049 63.6628C51.1372 64.2028 51.5318 64.7013 51.9369 65.2725C52.2277 65.0544 52.4457 64.9194 52.6431 64.7429C55.9352 61.9804 59.0612 59.0413 61.8756 55.7803C66.7878 50.0996 71.2328 44.0761 75.283 37.7619C79.084 31.8318 82.7085 25.7668 86.4057 19.7641C86.5095 19.5876 86.6342 19.411 86.8315 19.0995C86.8315 19.3383 86.8522 19.411 86.8315 19.4733C86.6238 20.1692 86.4264 20.865 86.2084 21.5608C84.2248 27.927 82.2931 34.3139 79.8733 40.5347C77.3912 46.9217 74.4107 53.0386 70.4435 58.6571C68.8026 60.9834 66.9644 63.102 64.5654 64.6702C61.9068 66.4045 59.0716 67.8065 56.0702 68.8451C55.8833 68.9074 55.7171 69.032 55.5406 69.1255C55.5613 69.1774 55.5821 69.2293 55.6029 69.2812C71.6586 66.6745 87.7246 64.0574 103.895 61.4092C103.697 61.6896 103.614 61.8558 103.49 61.9804C102.295 63.1539 101.184 64.4313 99.8858 65.4802C94.7555 69.6551 88.8878 72.4176 82.5631 74.2454C77.3497 75.7513 72.0428 76.4471 66.6113 75.9798C60.5982 75.4605 54.5955 74.7751 48.5513 74.5985C42.1331 74.4116 35.8397 75.0762 29.7019 76.9975C23.6992 78.8773 18.1327 81.7124 12.6804 84.8073C12.5247 84.8904 12.3585 84.963 12.1923 85.0357C12.2546 85.1188 12.3273 85.1915 12.3896 85.2746C12.5766 85.2227 12.7739 85.1708 12.9608 85.1084C15.6818 84.1738 18.382 83.1456 21.1445 82.3148C27.1056 80.5285 33.2018 79.6873 39.433 79.9573C44.0752 80.1546 48.6343 80.9232 53.0689 82.2213C58.1265 83.7064 63.153 85.3058 68.1379 86.9986C76.2281 89.7507 84.4636 91.7446 93.0211 92.2743C99.2108 92.6586 105.369 92.3678 111.476 91.2565C124.385 88.9095 135.746 83.3118 145.716 74.8374C145.841 74.7335 145.924 74.5777 146.017 74.4427C145.986 74.4116 145.955 74.3908 145.924 74.3597C145.623 74.557 145.321 74.7543 145.031 74.9724C142.569 76.8417 139.911 78.3684 137.107 79.6769C129.494 83.2183 121.425 84.8384 113.106 85.2227C104.943 85.6069 96.8221 84.9838 88.7943 83.3741C88.0362 83.2183 87.278 83.0418 86.5199 82.8756C86.7172 82.7302 86.8938 82.6887 87.0807 82.6575C88.2127 82.4706 89.3447 82.3356 90.4559 82.0759C99.3042 79.9781 106.73 75.554 112.494 68.4504C117.032 62.8527 119.628 56.4865 120.013 49.2688C120.303 43.7334 119.389 38.3746 117.281 33.2442C114.924 27.5012 111.528 22.4851 106.543 18.6737C103.147 16.0773 99.6262 13.668 95.659 11.9855C95.4097 11.8817 95.1397 11.809 94.8801 11.7259C95.0774 12.5152 95.3682 13.1798 95.6382 13.8445C98.2657 20.3561 99.8027 27.1169 100.343 34.1166C100.727 39.06 100.561 43.9619 99.4912 48.8222C98.598 52.8829 97.1233 56.6943 94.7139 60.111C94.5685 60.3083 94.4024 60.4745 94.2466 60.6614C94.205 60.6407 94.1531 60.6199 94.1116 60.5991C94.1116 59.841 94.1635 59.0829 94.1012 58.3247C93.9662 56.7877 92.938 55.583 91.4322 55.2507C90.7467 55.1053 90.0198 55.0638 89.3239 55.1053C87.4961 55.2092 85.7618 55.7388 84.0482 56.3515C80.1953 57.712 76.5293 59.4983 72.8632 61.2949C72.6867 61.3884 72.4894 61.4715 72.1674 61.6169C80.8495 45.4989 86.8315 28.5709 91.0375 10.8743C89.7809 10.6978 88.6074 10.5212 87.4338 10.355C83.7159 9.81501 80.0083 9.88771 76.3319 10.6562C67.8679 12.4217 60.7021 16.4928 54.9278 22.9316C47.6997 30.9803 44.4075 40.2855 46.225 51.1277C46.9727 55.583 48.4059 59.7995 50.8049 63.6628ZM107.114 45.5404C107.592 45.6755 108.069 45.8208 108.547 45.9766C108.911 46.0909 109.149 46.0078 109.378 45.6755C109.918 44.8862 110.448 44.0969 111.06 43.3699C112.483 41.6771 114.332 41.2513 116.44 41.6979C116.606 41.7394 116.762 41.8121 116.918 41.9575C116.668 42.0094 116.43 42.051 116.191 42.1029C114.321 42.4664 112.847 43.4634 111.746 45.0004C111.092 45.9039 110.479 46.849 109.825 47.8148C107.446 45.9559 105.027 45.8105 102.524 47.5136C103.323 45.8624 105.297 45.042 107.114 45.5404Z" fill="white"/>
<path d="M37.2416 105.08C37.1793 105.048 37.1274 104.997 37.0339 104.924C37.2624 104.716 37.4805 104.529 37.6882 104.332C39.0383 103.117 39.4226 101.601 38.9137 99.8974C38.3944 98.1423 37.1482 97.1037 35.3515 96.8233C34.2299 96.6468 33.0875 96.5637 31.9451 96.5533C28.5492 96.5118 25.1635 96.5222 21.7675 96.5222C21.6118 96.5222 21.4456 96.5429 21.3106 96.6052C21.0094 96.7402 20.9783 97.031 21.2275 97.166C21.8922 97.5191 21.8402 98.1007 21.8402 98.6927C21.8402 103.075 21.8402 107.447 21.8402 111.83C21.8402 112.11 21.8714 112.401 21.8091 112.661C21.7468 112.91 21.5806 113.149 21.456 113.377C21.3418 113.564 21.2171 113.751 21.1029 113.938C21.321 114.001 21.5391 114.136 21.7572 114.136C25.579 114.146 29.4111 114.156 33.2329 114.115C34.1261 114.104 35.0296 113.969 35.9019 113.772C37.574 113.398 38.8514 112.495 39.3602 110.771C40.0353 108.507 39.4849 106.264 37.2416 105.08ZM25.8697 99.7001C25.9321 99.6689 25.984 99.6377 26.0255 99.6377C28.3726 99.6481 30.7197 99.6689 33.0668 99.6897C33.2537 99.7001 33.4406 99.7416 33.6276 99.7727C34.6349 99.9701 35.1023 100.572 35.0919 101.642C35.0815 102.546 34.5311 103.19 33.586 103.325C33.0252 103.408 32.454 103.428 31.8828 103.428C29.8992 103.439 27.9156 103.428 25.8697 103.428C25.8697 102.141 25.8697 100.915 25.8697 99.7001ZM35.3308 109.732C35.1127 110.48 34.5207 110.843 33.7833 110.906C32.4125 111.02 31.0312 111.072 29.65 111.155C29.65 111.124 29.65 111.103 29.65 111.082C28.5699 111.082 27.5002 111.062 26.4202 111.103C26.0567 111.103 25.8697 111.01 25.8697 110.625C25.8697 109.4 25.849 108.174 25.8697 106.949C25.8801 106.824 26.1086 106.596 26.2332 106.596C28.6218 106.596 31.0001 106.627 33.3887 106.669C33.7418 106.679 34.1053 106.793 34.4376 106.918C34.6557 107.001 34.8842 107.146 35.0296 107.323C35.6215 108.05 35.5696 108.891 35.3308 109.732Z" fill="white"/>
<path d="M149.995 100.198C150.078 100.157 150.099 100.032 150.151 99.9488C149.683 99.5646 145.82 99.5749 145.353 99.9696C145.436 100.073 145.498 100.208 145.602 100.281C146.017 100.52 146.121 100.883 146.121 101.33C146.111 103.563 146.121 105.796 146.111 108.029C146.111 108.195 146.059 108.361 146.028 108.621C145.841 108.454 145.727 108.371 145.633 108.278C143.348 106.014 141.064 103.75 138.789 101.475C138.166 100.852 138.176 100.842 138.696 100.105C138.727 100.073 138.727 100.011 138.758 99.8969C138.592 99.8242 138.436 99.6996 138.27 99.6996C136.712 99.6788 135.154 99.6892 133.597 99.6996C133.472 99.6996 133.347 99.8242 133.223 99.8969C133.295 100.022 133.337 100.198 133.441 100.26C133.815 100.478 133.97 100.8 133.97 101.205C133.97 104.996 133.981 108.787 133.95 112.577C133.939 112.879 133.7 113.19 133.545 113.481C133.472 113.626 133.337 113.761 133.233 113.896C133.41 113.969 133.586 114.104 133.763 114.104C134.957 114.125 136.151 114.114 137.346 114.104C137.553 114.104 137.771 114.031 138.031 113.979C137.938 113.803 137.917 113.657 137.834 113.606C137.221 113.252 137.211 112.671 137.211 112.068C137.221 109.95 137.211 107.842 137.221 105.733C137.221 105.495 137.252 105.266 137.273 104.965C137.429 105.069 137.533 105.121 137.616 105.204C140.046 107.613 142.497 110.012 144.917 112.432C145.529 113.045 145.498 113.065 145.031 113.803C145.01 113.824 145.01 113.865 145 113.896C145.467 114.208 149.611 114.218 150.14 113.896C150.099 113.813 150.078 113.678 150.005 113.637C149.351 113.242 149.351 112.609 149.351 111.954C149.361 108.537 149.351 105.131 149.351 101.725C149.351 101.112 149.361 100.53 149.995 100.198Z" fill="white"/>
<path d="M108.298 113.595C107.675 113.242 107.664 112.671 107.664 112.069C107.675 109.888 107.675 107.707 107.675 105.526C107.675 104.145 107.675 102.753 107.675 101.372C107.675 100.967 107.737 100.593 108.111 100.323C108.246 100.219 108.339 100.063 108.454 99.9285C108.288 99.8558 108.111 99.7 107.934 99.7C106.564 99.6792 105.203 99.6896 103.832 99.7C103.676 99.7 103.531 99.8038 103.375 99.8558C103.458 99.9908 103.531 100.136 103.614 100.282C103.78 100.583 104.082 100.874 104.092 101.185C104.154 102.348 104.113 103.501 104.123 104.664C104.123 104.934 104.05 105.09 103.749 105.09C101.412 105.08 99.0758 105.08 96.7391 105.08C96.4587 105.08 96.3445 104.965 96.3445 104.675C96.3549 103.532 96.3445 102.39 96.3445 101.247C96.3445 100.842 96.4691 100.5 96.8326 100.271C96.9364 100.209 96.978 100.022 97.0507 99.8973C96.9053 99.8246 96.7599 99.7 96.6145 99.7C95.2332 99.6896 93.8416 99.6896 92.4604 99.7C92.315 99.7104 92.1696 99.835 92.0242 99.8973C92.0969 100.032 92.1903 100.167 92.263 100.313C92.4292 100.614 92.7304 100.915 92.7304 101.227C92.7615 105.017 92.7615 108.808 92.7304 112.598C92.7304 112.889 92.45 113.18 92.2942 113.471C92.2111 113.627 92.1073 113.762 92.0138 113.907C92.18 113.969 92.3357 114.094 92.5019 114.094C93.8312 114.104 95.1709 114.104 96.5002 114.094C96.6872 114.094 96.8845 113.99 97.113 113.928C97.0195 113.762 96.9884 113.616 96.8949 113.564C96.3652 113.263 96.3445 112.775 96.3445 112.256C96.3549 111.113 96.3445 109.971 96.3548 108.829C96.3652 108.548 96.386 108.257 96.3964 107.956C98.9823 107.956 101.516 107.956 104.113 107.956C104.113 109.244 104.092 110.48 104.113 111.726C104.123 112.474 104.196 113.222 103.458 113.72C103.417 113.751 103.417 113.814 103.344 113.969C103.645 114.021 103.884 114.104 104.133 114.094C105.349 114.104 106.553 114.094 107.768 114.094C107.914 114.094 108.049 114.094 108.184 114.063C108.495 113.98 108.558 113.751 108.298 113.595Z" fill="white"/>
<path d="M52.425 113.543C51.8849 113.232 51.833 112.743 51.833 112.203C51.8434 110.625 51.8122 109.057 51.8538 107.478C51.8642 107.083 51.968 106.627 52.1861 106.315C54.0243 103.677 55.8937 101.06 57.7942 98.4637C58.1369 97.986 58.6873 97.664 59.1546 97.2902C59.3104 97.1656 59.5077 97.1032 59.6947 97.0202C59.6324 96.9267 59.5804 96.8436 59.5181 96.7501C59.3312 96.6982 59.1443 96.6047 58.9573 96.6047C57.0672 96.5944 55.1875 96.5944 53.2973 96.6151C53.1104 96.6151 52.9338 96.7605 52.7573 96.8436C52.8611 96.9994 52.9442 97.1863 53.0896 97.2902C53.5673 97.6225 53.6297 97.799 53.3596 98.3183C53.2973 98.4429 53.2246 98.5572 53.1415 98.6714C52.1757 100.063 51.2203 101.465 50.2544 102.857C50.1402 103.012 49.9948 103.147 49.8286 103.345C48.6759 101.621 47.5646 99.9696 46.4638 98.3183C46.173 97.8821 46.308 97.5913 46.7234 97.3317C46.8896 97.2279 46.9934 96.989 47.1285 96.8125C46.9207 96.7294 46.713 96.5944 46.495 96.5944C44.6983 96.5736 42.8913 96.584 41.0946 96.584C40.9388 96.584 40.7623 96.5528 40.6273 96.6047C40.4819 96.6567 40.3572 96.7813 40.2222 96.8748C40.3261 96.9994 40.4195 97.1344 40.5338 97.2279C40.9596 97.581 41.4996 97.8614 41.8216 98.2975C43.7532 100.956 45.6537 103.636 47.5439 106.325C47.71 106.564 47.8554 106.886 47.8554 107.177C47.8762 108.963 47.8866 110.739 47.845 112.525C47.845 112.827 47.575 113.117 47.4192 113.408C47.3258 113.574 47.2012 113.72 47.0869 113.875C47.2738 113.948 47.4712 114.104 47.6581 114.104C49.0913 114.125 50.5348 114.114 51.968 114.104C52.1861 114.104 52.4146 114.073 52.7469 114.042C52.5911 113.803 52.5392 113.605 52.425 113.543Z" fill="white"/>
<path d="M71.4717 112.547C69.5504 108.953 67.6603 105.339 65.7701 101.725C65.417 101.05 65.4897 100.822 66.0298 100.271C66.1128 100.188 66.1648 100.074 66.2998 99.8662C65.9882 99.7935 65.7597 99.6896 65.5105 99.7104C64.0358 99.6896 62.5715 99.6896 61.0967 99.7104C60.9202 99.7104 60.7436 99.8454 60.5671 99.9181C60.6606 100.064 60.7333 100.25 60.8683 100.354C61.2525 100.655 61.3564 101.019 61.1694 101.455C60.9721 101.933 60.7748 102.411 60.5463 102.878C59.0197 105.952 57.4827 109.026 55.956 112.11C55.6548 112.713 55.3848 113.336 54.7202 113.647C54.6475 113.679 54.6163 113.803 54.5644 113.886C55.094 114.229 59.352 114.229 59.8505 113.866C59.7259 113.741 59.6324 113.585 59.4974 113.502C59.0508 113.222 59.0405 112.869 59.2378 112.432C59.4559 111.955 59.6532 111.477 59.8505 110.999C59.9855 110.667 60.214 110.521 60.5671 110.521C62.4053 110.521 64.2331 110.511 66.0713 110.542C66.2998 110.542 66.6113 110.729 66.7256 110.927C67.0268 111.425 67.2345 111.986 67.4837 112.515C67.6603 112.9 67.5979 113.201 67.2241 113.45C67.0683 113.554 66.9748 113.741 66.8502 113.897C67.0475 113.98 67.2448 114.115 67.4422 114.115C68.948 114.125 70.4539 114.115 71.9598 114.115C72.1052 114.115 72.2506 114.125 72.3752 114.084C72.4998 114.042 72.5933 113.938 72.6971 113.866C72.6244 113.762 72.5621 113.647 72.4686 113.554C72.1363 113.222 71.6898 112.941 71.4717 112.547ZM61.1798 108.32C61.8653 106.918 62.5403 105.557 63.2569 104.093C63.9942 105.568 64.6693 106.907 65.3755 108.32C63.9527 108.32 62.613 108.32 61.1798 108.32Z" fill="white"/>
<path d="M87.6727 108.735C87.5169 109.057 87.4027 109.234 87.3507 109.41C87.2053 109.971 86.8522 110.355 86.3537 110.604C84.6921 111.446 82.9474 111.788 81.1196 111.404C79.3437 111.041 77.869 110.179 77.277 108.32C76.4773 105.827 77.7651 103.459 80.3614 102.608C82.1165 102.026 83.8613 102.151 85.5956 102.774C86.4888 103.096 87.2261 103.542 87.413 104.571C87.4754 104.913 87.7246 104.965 87.9219 104.695C88.5658 103.823 89.1785 102.919 89.7913 102.016C89.8536 101.922 89.8536 101.715 89.7913 101.642C89.729 101.569 89.5524 101.6 89.4174 101.58C89.1682 101.548 88.9085 101.569 88.68 101.476C88.2854 101.31 87.9011 101.102 87.5273 100.884C85.1075 99.4298 82.5216 99.0871 79.7799 99.5856C75.2415 100.416 72.6244 104.217 73.6421 108.694C74.2653 111.414 76.1346 113.118 78.7309 113.876C81.6388 114.727 84.5363 114.613 87.2676 113.066C88.0154 112.64 88.7216 112.11 89.6563 112.162C89.9159 112.183 89.9678 111.986 89.8224 111.778C89.137 110.802 88.4516 109.836 87.6727 108.735Z" fill="white"/>
<path d="M15.4222 57.5975C18.7663 58.2622 21.3003 60.1939 23.2527 62.9148C24.2808 64.348 25.2259 65.8331 26.2125 67.2974C26.4202 67.5882 26.6487 67.8582 26.8876 68.1698C27.5522 67.7336 28.1649 67.3182 28.7985 66.9339C31.4052 65.345 34.178 64.9192 37.1067 65.885C39.0591 66.5289 40.6896 67.6713 42.1539 69.0733C42.3097 69.2187 42.4863 69.3329 42.6524 69.4679C42.6836 69.4368 42.7148 69.4056 42.7563 69.3745C41.3127 67.287 39.7861 65.2723 37.5429 63.943C36.2343 63.1744 34.8012 62.8214 33.3057 63.1433C31.8829 63.4445 30.4913 63.8599 29.0996 64.2545C28.6011 64.3895 28.3103 64.3168 28.0403 63.8391C26.9499 61.9178 25.7036 60.1108 24.0731 58.6049C22.453 57.1198 20.5941 56.1955 18.3924 55.9567C16.0972 55.7074 13.9267 56.2578 11.7666 56.9225C11.6523 56.9537 11.5692 57.0575 11.4758 57.1302C11.7146 57.2548 11.8912 57.2341 12.0781 57.2548C13.1893 57.3587 14.3317 57.3795 15.4222 57.5975Z" fill="white"/>
<path d="M124.167 99.0147C124.084 98.9835 123.876 99.0562 123.824 99.1497C123.523 99.669 123.035 99.7001 122.515 99.7001C119.005 99.6897 115.495 99.6897 111.985 99.7001C111.299 99.7105 110.624 99.7209 110.198 99.0458C110.167 98.9939 110.074 98.9939 110.022 98.9731C109.638 99.5028 109.679 102.816 110.074 103.21C110.146 103.169 110.24 103.138 110.282 103.075C110.624 102.463 111.195 102.421 111.808 102.442C112.244 102.463 112.67 102.452 113.106 102.452C113.802 102.452 114.508 102.452 115.204 102.452C115.235 102.566 115.266 102.608 115.266 102.66C115.266 105.973 115.277 109.296 115.256 112.619C115.256 112.9 115.007 113.191 114.851 113.471C114.768 113.616 114.633 113.751 114.529 113.886C114.726 113.959 114.913 114.105 115.111 114.105C116.378 114.115 117.634 114.115 118.901 114.105C119.14 114.105 119.379 114.063 119.743 114.021C119.566 113.783 119.493 113.606 119.348 113.533C118.932 113.294 118.829 112.9 118.829 112.474C118.829 109.296 118.839 106.108 118.829 102.93C118.829 102.577 118.984 102.452 119.327 102.452C120.469 102.452 121.612 102.442 122.754 102.452C123.17 102.452 123.533 102.577 123.772 102.961C123.845 103.075 124.011 103.127 124.125 103.21C124.198 103.086 124.333 102.951 124.333 102.826C124.343 101.663 124.343 100.51 124.333 99.347C124.333 99.2328 124.25 99.0458 124.167 99.0147Z" fill="white"/>
<path d="M130.657 113.616C130.014 113.221 130.003 112.598 130.003 111.934C130.014 108.506 130.014 105.079 130.003 101.652C130.003 101.06 130.014 100.51 130.616 100.167C130.689 100.126 130.709 100.001 130.751 99.9178C130.232 99.5336 126.078 99.5647 125.652 99.9697C125.724 100.063 125.787 100.188 125.88 100.229C126.337 100.447 126.431 100.852 126.431 101.309C126.431 105.017 126.431 108.714 126.431 112.422C126.431 112.889 126.348 113.315 125.87 113.564C125.787 113.606 125.673 113.782 125.693 113.834C125.745 113.938 125.88 114.021 125.994 114.073C126.078 114.115 126.192 114.104 126.296 114.104C127.563 114.115 128.819 114.115 130.086 114.104C130.325 114.104 130.554 114.052 130.834 114.011C130.782 113.855 130.772 113.813 130.751 113.741C130.72 113.699 130.699 113.637 130.657 113.616Z" fill="white"/>
<path d="M123.149 58.0651C126.348 58.0443 128.85 59.384 130.689 61.9804C131.364 62.9358 131.987 63.9328 132.651 64.909C132.828 65.1687 133.056 65.4075 133.295 65.7087C137.211 62.6139 140.825 63.2889 144.325 66.6434C144.262 66.3837 144.262 66.2903 144.221 66.228C143.296 64.9194 142.31 63.6732 140.949 62.7904C139.942 62.1361 138.831 61.8454 137.636 62.105C136.722 62.3023 135.829 62.5619 134.936 62.8423C134.49 62.9773 134.24 62.8735 134.002 62.4789C133.503 61.6688 132.984 60.8691 132.402 60.1214C131.27 58.6778 129.868 57.577 128.02 57.172C126.213 56.7773 124.489 57.172 122.775 57.7016C122.671 57.7328 122.588 57.8366 122.495 57.9093C122.505 57.9612 122.515 58.0028 122.547 58.0651C122.744 58.0651 122.952 58.0651 123.149 58.0651Z" fill="white"/>
</g>
<defs>
<clipPath id="clip0_1139_1227">
<rect width="169" height="114.083" fill="white" transform="translate(0 0.323242)"/>
</clipPath>
</defs>
</svg>
