<svg width="136" height="91" viewBox="0 0 136 91" fill="none" xmlns="http://www.w3.org/2000/svg">
<path d="M0 76.7846C0.107867 76.7598 0.215734 76.7266 0.323602 76.7266C3.6177 76.7432 6.9035 76.7432 10.1976 76.8012C10.8199 76.8095 11.4671 76.9503 12.0645 77.1325C13.7406 77.6544 14.5953 78.7562 14.4044 80.9846C14.3214 81.9207 13.8485 82.6497 13.0768 83.1799C12.9856 83.2379 12.9026 83.3124 12.7864 83.4118C12.886 83.4864 12.969 83.5527 13.0519 83.6024C14.5372 84.5219 15.118 85.7894 14.8193 87.4627C14.5206 89.1692 13.5166 90.213 11.7824 90.5278C10.9942 90.6686 10.1976 90.7681 9.40104 90.7763C6.56331 90.8095 3.73387 90.7929 0.896128 90.8012C0.597418 90.8012 0.298709 90.7929 0 90.7846C0 90.6438 0 90.5112 0 90.3704C0.531039 90.1716 0.672096 89.774 0.672096 89.2272C0.655501 85.632 0.647203 82.0367 0.672096 78.4414C0.672096 77.8698 0.605716 77.4142 0.00829748 77.1988C0 77.058 0 76.9172 0 76.7846ZM3.89981 88.3077C4.08236 88.3243 4.24001 88.3408 4.40596 88.3408C5.73356 88.3408 7.05286 88.3491 8.38045 88.3326C8.98617 88.3243 9.60018 88.2994 10.1976 88.2083C11.1601 88.0675 11.6331 87.4876 11.6082 86.5266C11.575 85.516 11.185 84.9609 10.1976 84.8781C9.99016 84.8615 9.79102 84.8036 9.58359 84.7953C7.77474 84.7704 5.96589 84.7539 4.15704 84.7456C4.08236 84.7456 3.99938 84.7787 3.90811 84.7953C3.89981 85.9716 3.89981 87.1231 3.89981 88.3077ZM3.89152 82.2272C4.04087 82.2355 4.14044 82.2521 4.23171 82.2521C5.9161 82.2521 7.60049 82.2521 9.28488 82.2438C9.58359 82.2438 9.89059 82.2024 10.1893 82.1527C10.6954 82.0615 11.0356 81.7799 11.1684 81.2663C11.4588 80.1396 10.9776 79.4272 9.84081 79.2781C9.79932 79.2698 9.75783 79.2698 9.71635 79.2698C7.8909 79.2533 6.07375 79.2367 4.24831 79.2201C4.13214 79.2201 4.01598 79.2615 3.89152 79.2864C3.89152 80.2722 3.89152 81.2331 3.89152 82.2272Z" fill="white"/>
<path d="M135 89.1278C133.88 89.8651 132.652 90.3539 131.357 90.6438C129.441 91.0663 127.499 91.174 125.624 90.5278C123.367 89.7491 121.907 88.2083 121.666 85.7562C121.417 83.2296 122.404 81.2911 124.636 80.0237C126.819 78.7893 129.117 78.781 131.457 79.4686C131.864 79.5846 132.27 79.7503 132.685 79.8331C133.025 79.9077 133.382 79.9242 133.739 79.9325C133.963 79.9325 134.137 79.9905 134.029 80.2225C133.631 81.084 133.216 81.9373 132.793 82.7905C132.768 82.8402 132.685 82.8734 132.61 82.9231C132.536 82.8485 132.444 82.7905 132.42 82.7077C132.262 82.1775 131.839 81.9787 131.366 81.8047C129.856 81.2331 128.345 81.0592 126.802 81.6639C125.267 82.2686 124.396 83.6521 124.52 85.3172C124.645 87.0402 125.599 88.1503 127.292 88.5314C128.777 88.8627 130.229 88.755 131.656 88.2414C132.03 88.1089 132.179 87.8935 132.154 87.4959C132.129 87.1396 132.146 86.7834 132.146 86.3858C131.216 86.3858 130.32 86.3692 129.432 86.4024C129.291 86.4107 129.159 86.6012 129.026 86.7172C128.926 86.8083 128.835 86.9077 128.744 87.0071C128.702 86.9905 128.652 86.9823 128.611 86.9657C128.586 86.4769 128.536 85.9882 128.528 85.4994C128.52 85.0604 128.536 84.613 128.561 84.174C128.569 84.0828 128.644 83.9752 128.719 83.9172C128.752 83.8923 128.91 83.9752 128.943 84.0414C129.15 84.5053 129.557 84.5385 129.988 84.5385C131.498 84.5385 133 84.5302 134.51 84.5467C134.676 84.5467 134.842 84.6627 135.017 84.7207C135.017 84.7787 135.017 84.8284 135.017 84.8864C134.56 85.1349 134.444 85.5408 134.461 86.0296C134.477 86.6343 134.477 87.2391 134.469 87.8521C134.461 88.2994 134.602 88.6556 135.025 88.8627C135 88.9621 135 89.045 135 89.1278Z" fill="white"/>
<path d="M41.4957 51.8083C41.1721 51.3527 40.8568 50.955 40.5913 50.5243C38.6745 47.4426 37.5295 44.0793 36.9321 40.5254C35.48 31.8769 38.1103 24.4544 43.8854 18.0343C48.4988 12.8982 54.224 9.65089 60.9865 8.2426C63.9238 7.62959 66.886 7.5716 69.8565 8.00237C70.7941 8.13491 71.7317 8.27574 72.7357 8.41657C69.3752 22.5325 64.5959 36.0355 57.6592 48.8923C57.9164 48.7763 58.074 48.7101 58.2151 48.6355C61.1441 47.2024 64.0731 45.7775 67.1515 44.6923C68.5206 44.2035 69.9062 43.7811 71.3666 43.6982C71.9225 43.6651 72.5034 43.6982 73.051 43.8142C74.2541 44.0793 75.0756 45.0402 75.1834 46.2663C75.2332 46.871 75.1917 47.4757 75.1917 48.0805C75.2249 48.097 75.2664 48.1136 75.2996 48.1302C75.4241 47.9811 75.5568 47.8485 75.673 47.6911C77.598 44.9657 78.7763 41.9254 79.4898 38.6864C80.3445 34.8095 80.4772 30.8994 80.1702 26.9562C79.7388 21.3728 78.5107 15.9799 76.4115 10.7858C76.1957 10.2556 75.9634 9.72544 75.8058 9.09586C76.0132 9.16213 76.2289 9.22012 76.4281 9.30296C79.5977 10.645 82.4106 12.5669 85.1238 14.6379C89.1066 17.6781 91.8199 21.6793 93.7034 26.2604C95.3878 30.3527 96.118 34.6272 95.8857 39.0426C95.5787 44.8 93.5043 49.8781 89.8783 54.3432C85.2732 60.0095 79.3405 63.5385 72.271 65.2118C71.3832 65.4189 70.4788 65.5266 69.5744 65.6757C69.425 65.7006 69.2839 65.7337 69.1263 65.8497C69.732 65.9822 70.3377 66.1231 70.9434 66.2473C77.3574 67.5314 83.846 68.0284 90.3678 67.7219C97.0141 67.4154 103.461 66.1231 109.543 63.2982C111.784 62.2544 113.908 61.0367 115.874 59.5456C116.107 59.3716 116.347 59.2142 116.588 59.0568C116.613 59.0817 116.638 59.0982 116.663 59.1231C116.588 59.2308 116.521 59.355 116.422 59.4379C108.456 66.1976 99.3789 70.6627 89.0651 72.5349C84.1862 73.4213 79.2658 73.6533 74.3205 73.3467C67.4834 72.9243 60.9035 71.3337 54.4398 69.1385C50.457 67.7882 46.441 66.5124 42.4001 65.3278C38.8571 64.2923 35.2145 63.6793 31.5055 63.5219C26.527 63.3065 21.6564 63.9775 16.8937 65.4024C14.6865 66.0651 12.5292 66.8852 10.3552 67.6308C10.2059 67.6805 10.0482 67.7219 9.89889 67.7633C9.8491 67.697 9.79102 67.639 9.74123 67.5728C9.87399 67.5148 10.0068 67.4568 10.1312 67.3905C14.4874 64.9219 18.9348 62.6604 23.7308 61.1609C28.6346 59.6284 33.6629 59.0982 38.7907 59.2473C43.6198 59.3882 48.4158 59.9349 53.22 60.3491C57.5596 60.7219 61.7996 60.1669 65.965 58.9657C71.0181 57.5077 75.7062 55.3041 79.8051 51.974C80.8423 51.1373 81.7302 50.1183 82.6844 49.1823C82.7839 49.0828 82.8503 48.9503 83.008 48.7266C70.0888 50.8391 57.2526 52.9266 44.4247 55.0059C44.4081 54.9645 44.3915 54.9231 44.3749 54.8817C44.516 54.8071 44.6487 54.7077 44.7981 54.658C47.1961 53.8296 49.4613 52.7112 51.5854 51.3278C53.5021 50.0769 54.9708 48.387 56.2818 46.5314C59.4514 42.0497 61.8328 37.1704 63.8159 32.0757C65.7492 27.1136 67.2925 22.0189 68.8774 16.9408C69.0516 16.3858 69.2093 15.8308 69.3752 15.2757C69.3918 15.226 69.3752 15.168 69.3752 14.9775C69.2176 15.226 69.118 15.3669 69.035 15.5077C66.0811 20.2959 63.1853 25.1337 60.1484 29.8639C56.9124 34.9006 53.3611 39.7053 49.4364 44.2367C47.1878 46.8379 44.6902 49.1822 42.0599 51.3858C41.9023 51.5266 41.728 51.6343 41.4957 51.8083ZM81.9127 37.6426C83.9124 36.284 85.8457 36.4 87.7458 37.8828C88.2686 37.1124 88.7581 36.3586 89.2809 35.6379C90.1604 34.4118 91.3386 33.6166 92.8322 33.3266C93.023 33.2852 93.2139 33.2521 93.413 33.2107C93.2886 33.0947 93.1641 33.0367 93.0313 33.0035C91.3469 32.6473 89.87 32.987 88.7332 34.3373C88.2437 34.9172 87.8205 35.5467 87.389 36.1763C87.2065 36.4414 87.0156 36.5077 86.7252 36.4166C86.3436 36.2923 85.9619 36.1763 85.5802 36.0686C84.1281 35.671 82.5516 36.3254 81.9127 37.6426Z" fill="white"/>
<path d="M29.5888 83.4367C29.6635 83.4947 29.705 83.5361 29.7548 83.5609C31.547 84.5053 31.9868 86.2947 31.4474 88.1006C31.0409 89.4757 30.0203 90.1964 28.6844 90.4947C27.9874 90.652 27.2655 90.7597 26.5519 90.768C23.4985 90.8012 20.4367 90.7929 17.3832 90.7846C17.209 90.7846 17.0347 90.6769 16.8605 90.6272C16.9518 90.4781 17.0513 90.329 17.1426 90.1799C17.2422 89.9976 17.3749 89.8071 17.4247 89.6083C17.4745 89.4012 17.4496 89.1692 17.4496 88.9455C17.4496 85.4497 17.4496 81.9621 17.4496 78.4663C17.4496 77.9941 17.4911 77.5302 16.9601 77.2485C16.7609 77.1408 16.7858 76.9089 17.0264 76.8012C17.1343 76.7515 17.2671 76.7349 17.3915 76.7349C20.1048 76.7349 22.8098 76.7266 25.523 76.7598C26.4358 76.768 27.3485 76.8343 28.2446 76.9752C29.6801 77.1988 30.6758 78.0272 31.0907 79.4272C31.4972 80.7858 31.1902 81.9953 30.1116 82.9645C29.9456 83.1219 29.7714 83.271 29.5888 83.4367ZM23.6893 88.3491C23.6893 88.3657 23.6893 88.3822 23.6893 88.4071C24.7929 88.3408 25.8964 88.2994 26.9917 88.2083C27.5808 88.1586 28.0538 87.8686 28.228 87.2722C28.4189 86.6012 28.4604 85.9302 27.9874 85.3503C27.8712 85.2095 27.6887 85.0935 27.5144 85.0272C27.2489 84.9278 26.9585 84.8367 26.6764 84.8284C24.768 84.7953 22.8679 84.7704 20.9594 84.7704C20.8599 84.7704 20.6773 84.9526 20.669 85.0521C20.6524 86.0296 20.669 87.0071 20.669 87.9846C20.669 88.2911 20.8184 88.3657 21.1088 88.3657C21.9717 88.3325 22.8264 88.3491 23.6893 88.3491ZM20.669 82.2438C22.3036 82.2438 23.8884 82.2521 25.4733 82.2438C25.9296 82.2438 26.386 82.2272 26.834 82.1609C27.5891 82.0532 28.0289 81.5396 28.0372 80.8189C28.0455 79.9657 27.6721 79.4852 26.8672 79.3278C26.7179 79.303 26.5685 79.2698 26.4192 79.2615C24.5439 79.245 22.6687 79.2284 20.7935 79.2201C20.7603 79.2201 20.7188 79.245 20.669 79.2698C20.669 80.2391 20.669 81.2166 20.669 82.2438Z" fill="white"/>
<path d="M116.132 79.4852C116.505 79.1704 119.592 79.1621 119.965 79.4686C119.923 79.5349 119.907 79.6343 119.841 79.6675C119.334 79.9325 119.326 80.3965 119.326 80.8852C119.326 83.6024 119.334 86.3195 119.326 89.0449C119.326 89.5668 119.326 90.0722 119.849 90.3869C119.907 90.4201 119.923 90.5278 119.957 90.594C119.534 90.8509 116.223 90.8426 115.849 90.594C115.858 90.5692 115.858 90.5361 115.874 90.5195C116.248 89.9313 116.273 89.9148 115.783 89.426C113.85 87.4958 111.892 85.5822 109.95 83.6603C109.884 83.5941 109.801 83.5527 109.676 83.4698C109.66 83.71 109.635 83.8923 109.635 84.0828C109.626 85.7645 109.635 87.4461 109.626 89.1361C109.626 89.6165 109.635 90.0804 110.124 90.3621C110.191 90.4035 110.207 90.5195 110.282 90.6603C110.074 90.7017 109.9 90.7597 109.734 90.7597C108.78 90.768 107.826 90.7763 106.872 90.7597C106.73 90.7597 106.589 90.652 106.448 90.594C106.531 90.4864 106.639 90.3787 106.697 90.2627C106.822 90.0307 107.013 89.7822 107.021 89.542C107.046 86.5183 107.037 83.4947 107.037 80.471C107.037 80.1479 106.913 79.8911 106.614 79.7172C106.531 79.6675 106.498 79.5266 106.44 79.4272C106.54 79.3692 106.639 79.2698 106.739 79.2698C107.983 79.2615 109.228 79.2533 110.473 79.2698C110.605 79.2698 110.73 79.3692 110.863 79.4272C110.838 79.5183 110.838 79.5681 110.813 79.5929C110.398 80.1811 110.39 80.1894 110.888 80.6864C112.705 82.5006 114.53 84.3065 116.356 86.1124C116.43 86.187 116.522 86.2532 116.671 86.3858C116.696 86.1787 116.737 86.0461 116.737 85.9136C116.746 84.1325 116.737 82.3515 116.746 80.5704C116.746 80.2142 116.663 79.9243 116.331 79.7337C116.248 79.6757 116.198 79.5681 116.132 79.4852Z" fill="white"/>
<path d="M82.5682 90.6521C82.6263 90.5278 82.6263 90.4781 82.6595 90.4533C83.2486 90.0556 83.1905 89.4592 83.1822 88.8627C83.1656 87.8687 83.1822 86.8829 83.1822 85.8556C81.1079 85.8556 79.0833 85.8556 77.0172 85.8556C77.0089 86.0959 76.9923 86.3278 76.984 86.5515C76.9757 87.4627 76.984 88.374 76.9757 89.2852C76.9757 89.6994 76.9923 90.0888 77.4155 90.329C77.4902 90.3704 77.5151 90.4864 77.5897 90.619C77.4072 90.6687 77.2495 90.7515 77.1002 90.7515C76.0381 90.7598 74.9677 90.7598 73.9057 90.7515C73.7729 90.7515 73.6484 90.6521 73.5157 90.6024C73.5903 90.4864 73.6733 90.3787 73.7397 90.2545C73.8642 90.0225 74.0882 89.7906 74.0882 89.5586C74.1131 86.5349 74.1131 83.5112 74.0882 80.4876C74.0882 80.2391 73.8476 79.9988 73.7148 79.7586C73.6567 79.6426 73.582 79.5349 73.524 79.4272C73.6401 79.3775 73.7563 79.2781 73.8725 79.2698C74.976 79.2615 76.0879 79.2615 77.1915 79.2698C77.3076 79.2698 77.4238 79.3692 77.5399 79.4272C77.4819 79.5266 77.4487 79.6757 77.3657 79.7254C77.0753 79.9077 76.9757 80.1811 76.9757 80.5041C76.9757 81.4154 76.984 82.3266 76.9757 83.2379C76.9757 83.4698 77.067 83.561 77.291 83.561C79.158 83.561 81.0249 83.561 82.8918 83.5692C83.1324 83.5692 83.1905 83.445 83.1905 83.2296C83.1822 82.3018 83.2154 81.3822 83.1656 80.4544C83.1573 80.2059 82.9167 79.974 82.784 79.7337C82.7176 79.6178 82.6595 79.5018 82.5931 79.3941C82.7176 79.3527 82.8337 79.2698 82.9582 79.2698C84.0535 79.2615 85.1404 79.2533 86.2357 79.2698C86.3768 79.2698 86.5178 79.3941 86.6506 79.4521C86.5593 79.5598 86.4846 79.684 86.3768 79.7669C86.0781 79.9823 86.0283 80.2805 86.0283 80.6036C86.0283 81.7053 86.0283 82.8154 86.0283 83.9172C86.0283 85.6568 86.0283 87.3965 86.02 89.1361C86.02 89.6166 86.0283 90.0722 86.5261 90.3539C86.7336 90.4781 86.6838 90.6604 86.4348 90.7267C86.327 90.7515 86.2191 90.7515 86.1029 90.7515C85.1321 90.7515 84.1696 90.7598 83.1988 90.7515C82.9997 90.7598 82.8088 90.6935 82.5682 90.6521Z" fill="white"/>
<path d="M42.1429 90.7101C41.8774 90.7349 41.6948 90.7598 41.5206 90.7598C40.3755 90.768 39.2222 90.7763 38.0771 90.7598C37.9278 90.7598 37.7701 90.6355 37.6208 90.5775C37.7121 90.4533 37.8116 90.3373 37.8863 90.2047C38.0108 89.9728 38.2265 89.7408 38.2265 89.5006C38.2597 88.0757 38.2514 86.6592 38.2348 85.2343C38.2348 85.0024 38.1186 84.7456 37.9859 84.555C36.4757 82.4095 34.9573 80.2722 33.414 78.1515C33.1567 77.8036 32.7253 77.5799 32.3851 77.2982C32.2938 77.2237 32.2191 77.116 32.1361 77.0166C32.244 76.942 32.3436 76.8426 32.4597 76.8012C32.5676 76.7598 32.7087 76.7846 32.8331 76.7846C34.2686 76.7846 35.7124 76.7763 37.1478 76.7929C37.3221 76.7929 37.488 76.9006 37.654 76.9669C37.5461 77.1077 37.4631 77.2982 37.3304 77.3811C36.9985 77.5882 36.8906 77.8201 37.1229 78.1681C38.0025 79.4852 38.8903 80.8024 39.8113 82.1775C39.9441 82.0201 40.0602 81.9124 40.1515 81.7882C40.9232 80.6781 41.6865 79.5598 42.4582 78.4497C42.5246 78.3586 42.5827 78.2675 42.6325 78.1681C42.8482 77.7539 42.7984 77.613 42.4167 77.3479C42.3006 77.2651 42.2342 77.116 42.1512 76.9917C42.2923 76.9255 42.4333 76.8095 42.5827 76.8095C44.0928 76.7929 45.5947 76.7929 47.1048 76.8012C47.2542 76.8012 47.4035 76.8757 47.5529 76.9172C47.6026 76.9917 47.6441 77.058 47.6939 77.1326C47.5446 77.1988 47.3869 77.2485 47.2625 77.3479C46.8891 77.6462 46.4493 77.903 46.1755 78.284C44.657 80.355 43.1635 82.4426 41.6948 84.5467C41.5206 84.7953 41.4376 85.1598 41.4293 85.4746C41.3961 86.7337 41.421 87.9846 41.4127 89.2438C41.4127 89.6746 41.4542 90.0639 41.8857 90.3124C41.977 90.3621 42.0184 90.5195 42.1429 90.7101Z" fill="white"/>
<path d="M52.9711 79.4024C52.8633 79.5681 52.8218 79.6592 52.7554 79.7255C52.3239 80.1645 52.2658 80.3468 52.548 80.8852C54.0581 83.7681 55.5682 86.6509 57.1033 89.5172C57.2775 89.8319 57.6343 90.0556 57.8998 90.3207C57.9745 90.3953 58.0243 90.4864 58.0824 90.5692C57.9994 90.6272 57.9247 90.7101 57.8252 90.7432C57.7256 90.7763 57.6094 90.768 57.4933 90.768C56.2901 90.768 55.087 90.7763 53.8839 90.768C53.7262 90.768 53.5686 90.6603 53.4109 90.5941C53.5105 90.4698 53.5851 90.3207 53.7096 90.2379C54.0083 90.0391 54.0581 89.7988 53.917 89.4923C53.7179 89.0698 53.552 88.6225 53.3113 88.2248C53.2201 88.0675 52.9711 87.9183 52.7886 87.9183C51.3199 87.8935 49.8596 87.9018 48.3909 87.9018C48.1088 87.9018 47.9263 88.0177 47.8184 88.2828C47.6607 88.6639 47.5031 89.045 47.3288 89.426C47.1712 89.774 47.1795 90.0556 47.5363 90.2793C47.6441 90.3456 47.7188 90.4698 47.8184 90.5692C47.4201 90.8592 44.0181 90.8592 43.595 90.5858C43.6365 90.5195 43.6614 90.4201 43.7194 90.3953C44.2505 90.1467 44.4662 89.6497 44.7068 89.1692C45.9266 86.7089 47.1546 84.2568 48.3743 81.8047C48.5569 81.432 48.7145 81.0509 48.8722 80.6698C49.0215 80.3219 48.9385 80.032 48.6315 79.7917C48.5237 79.7089 48.4656 79.5598 48.3909 79.4438C48.532 79.3858 48.673 79.2781 48.8141 79.2781C49.9923 79.2615 51.1623 79.2615 52.3405 79.2781C52.5397 79.2615 52.7222 79.3444 52.9711 79.4024ZM50.54 82.774C49.9674 83.942 49.4281 85.0272 48.8805 86.1456C50.0255 86.1456 51.0959 86.1456 52.2327 86.1456C51.6684 85.0189 51.1291 83.9503 50.54 82.774Z" fill="white"/>
<path d="M70.0473 86.4769C70.6696 87.355 71.2173 88.1255 71.7649 88.9042C71.8811 89.0698 71.8396 89.2272 71.6321 89.2107C70.8854 89.1693 70.3211 89.5917 69.7237 89.9314C67.5415 91.1657 65.2265 91.2568 62.9032 90.5775C60.8288 89.9728 59.3353 88.6142 58.8374 86.4438C58.0243 82.8734 60.1152 79.8414 63.7412 79.1787C65.9318 78.7811 67.9978 79.0544 69.9312 80.2142C70.2299 80.3882 70.5369 80.5538 70.8522 80.6864C71.0347 80.7609 71.2421 80.7444 71.4413 80.7692C71.5492 80.7858 71.6902 80.7609 71.74 80.8189C71.7898 80.8769 71.7898 81.0426 71.74 81.1172C71.2504 81.8379 70.7609 82.5586 70.2465 83.2544C70.0888 83.4698 69.8897 83.4284 69.8399 83.155C69.6905 82.3349 69.1014 81.9787 68.3878 81.7219C67.0021 81.2249 65.6082 81.1255 64.2059 81.5894C62.1315 82.2687 61.1026 84.1574 61.7415 86.1456C62.2145 87.6284 63.3927 88.316 64.8116 88.6059C66.272 88.9124 67.6659 88.6391 68.9935 87.9681C69.3918 87.7693 69.6739 87.4627 69.7901 87.0154C69.8316 86.8746 69.9229 86.7337 70.0473 86.4769Z" fill="white"/>
<path d="M34.0778 55.155C33.945 55.0473 33.8039 54.9562 33.6795 54.8402C32.5095 53.7219 31.2068 52.8107 29.6469 52.297C27.307 51.5266 25.0916 51.8663 23.0089 53.1337C22.5028 53.4402 22.0132 53.7716 21.4822 54.1195C21.2913 53.871 21.1088 53.6556 20.9429 53.4237C20.1546 52.2556 19.3995 51.071 18.5781 49.9278C17.0181 47.7574 14.9936 46.2166 12.3218 45.6864C11.4505 45.5124 10.5378 45.4959 9.64999 45.413C9.50063 45.3965 9.35958 45.413 9.16874 45.3136C9.24341 45.2556 9.30979 45.1728 9.40106 45.1479C11.1269 44.6178 12.8611 44.1787 14.6949 44.3775C16.4539 44.5681 17.9392 45.3053 19.2336 46.4899C20.5363 47.6911 21.532 49.1325 22.4032 50.6651C22.6189 51.0462 22.8513 51.1041 23.2496 50.9965C24.3614 50.6817 25.4733 50.3503 26.61 50.1101C27.8049 49.8533 28.9499 50.1349 29.9954 50.7479C31.7877 51.8083 33.0074 53.4154 34.1607 55.0805C34.1275 55.1053 34.1027 55.1302 34.0778 55.155Z" fill="white"/>
<path d="M95.67 90.6935C95.3796 90.7266 95.1887 90.7598 94.9979 90.7598C93.9856 90.7681 92.9816 90.7681 91.9693 90.7598C91.8116 90.7598 91.6623 90.6438 91.5046 90.5858C91.5876 90.4781 91.6955 90.3704 91.7618 90.2545C91.8863 90.0308 92.0855 89.7988 92.0855 89.5752C92.1021 86.9243 92.0938 84.2734 92.0938 81.6308C92.0938 81.5894 92.0689 81.5562 92.044 81.4651C91.488 81.4651 90.9238 81.4651 90.3679 81.4651C90.0194 81.4651 89.6792 81.4734 89.3307 81.4568C88.8411 81.4402 88.3848 81.4734 88.111 81.9621C88.0778 82.0118 88.0031 82.0367 87.945 82.0698C87.6297 81.755 87.5965 79.1124 87.9035 78.6899C87.945 78.7065 88.0197 78.7065 88.0446 78.7479C88.3848 79.2864 88.9241 79.2781 89.4717 79.2698C92.2763 79.2615 95.0808 79.2615 97.8854 79.2698C98.3003 79.2698 98.6903 79.245 98.9309 78.8308C98.9724 78.7562 99.1383 78.6982 99.2047 78.7231C99.2711 78.7479 99.3375 78.897 99.3375 78.9882C99.3458 79.916 99.3458 80.8355 99.3375 81.7633C99.3375 81.8627 99.2296 81.9704 99.1715 82.0698C99.0802 82.0036 98.9475 81.9621 98.8894 81.871C98.6986 81.5645 98.4081 81.4651 98.0762 81.4651C97.1635 81.4568 96.2508 81.4651 95.3381 81.4651C95.0643 81.4651 94.9398 81.5645 94.9398 81.8462C94.9481 84.3811 94.9398 86.9243 94.9398 89.4592C94.9398 89.7988 95.0228 90.1136 95.3547 90.3042C95.4708 90.3622 95.5289 90.503 95.67 90.6935Z" fill="white"/>
<path d="M73.665 5.25207C74.0384 3.79408 74.3786 2.44378 74.7271 1.09349C74.8184 0.745558 75.0673 0.588161 75.3909 0.480469C76.7268 0.0331319 78.0959 -0.0331404 79.4816 0.0165638C80.3528 0.0496999 81.1411 0.298221 81.8712 0.745558C82.535 1.14319 83.2071 1.53254 83.8294 1.97988C86.4597 3.89349 89.4302 4.33254 92.5833 4.00118C93.3549 3.91834 94.11 3.77751 94.8817 3.66982C95.0642 3.64497 95.2468 3.64497 95.4293 3.63668C95.4376 3.6781 95.4459 3.71124 95.4459 3.75266C95.1887 3.82721 94.9398 3.91834 94.6825 3.96804C92.3592 4.47337 90.0276 4.92899 87.6297 4.871C86.9161 4.85443 86.1942 4.77159 85.4972 4.62248C85.0409 4.52307 84.5347 4.35739 84.1862 4.06745C82.8586 2.97396 81.3734 2.81656 79.8135 3.27218C77.9216 3.82721 76.063 4.48165 74.1878 5.08639C74.0301 5.13609 73.889 5.17751 73.665 5.25207Z" fill="white"/>
<path d="M104.532 90.6852C104.308 90.7184 104.125 90.7598 103.934 90.7598C102.922 90.7681 101.918 90.7681 100.906 90.7598C100.823 90.7598 100.731 90.7681 100.665 90.7349C100.574 90.6935 100.466 90.6272 100.424 90.5444C100.408 90.503 100.499 90.3622 100.565 90.329C100.947 90.1302 101.014 89.7906 101.014 89.4178C101.014 86.4604 101.014 83.5113 101.014 80.5538C101.014 80.1894 100.939 79.8663 100.574 79.6923C100.499 79.6592 100.449 79.5598 100.391 79.4852C100.731 79.1621 104.05 79.1373 104.465 79.4438C104.432 79.5101 104.415 79.6095 104.357 79.6426C103.876 79.916 103.868 80.355 103.868 80.8272C103.876 83.561 103.876 86.2947 103.868 89.0284C103.868 89.5586 103.876 90.0556 104.391 90.3704C104.424 90.387 104.44 90.4367 104.465 90.4698C104.482 90.5278 104.49 90.561 104.532 90.6852Z" fill="white"/>
<path d="M97.8688 45.9349C97.9434 45.8769 98.0098 45.7941 98.0928 45.7692C99.4619 45.3468 100.839 45.032 102.283 45.3468C103.76 45.6698 104.88 46.5479 105.785 47.6994C106.249 48.2959 106.664 48.9337 107.062 49.5799C107.253 49.8947 107.452 49.9775 107.809 49.8698C108.523 49.6462 109.236 49.4391 109.966 49.2817C110.921 49.0746 111.809 49.3065 112.613 49.8284C113.7 50.5326 114.489 51.5266 115.227 52.5704C115.26 52.6201 115.26 52.6947 115.31 52.9018C112.514 50.226 109.626 49.6876 106.498 52.1562C106.307 51.916 106.125 51.7255 105.984 51.5184C105.453 50.7397 104.955 49.9444 104.415 49.1823C102.947 47.1113 100.947 46.0426 98.3915 46.0592C98.2339 46.0592 98.0679 46.0592 97.9103 46.0592C97.8854 46.0095 97.8771 45.9763 97.8688 45.9349Z" fill="white"/>
<path d="M73.665 5.25207C74.0384 3.79408 74.3786 2.44378 74.7271 1.09349C74.8184 0.745558 75.0673 0.588161 75.3909 0.480469C76.7268 0.0331319 78.0959 -0.0331404 79.4816 0.0165638C80.3528 0.0496999 81.1411 0.298221 81.8712 0.745558C82.535 1.14319 83.2071 1.53254 83.8294 1.97988C86.4597 3.89349 89.4302 4.33254 92.5833 4.00118C93.3549 3.91834 94.11 3.77751 94.8817 3.66982C95.0642 3.64497 95.2468 3.64497 95.4293 3.63668C95.4376 3.6781 95.4459 3.71124 95.4459 3.75266C95.1887 3.82721 94.9398 3.91834 94.6825 3.96804C92.3592 4.47337 90.0276 4.92899 87.6297 4.871C86.9161 4.85443 86.1942 4.77159 85.4972 4.62248C85.0409 4.52307 84.5347 4.35739 84.1862 4.06745C82.8586 2.97396 81.3734 2.81656 79.8135 3.27218C77.9216 3.82721 76.063 4.48165 74.1878 5.08639C74.0301 5.13609 73.889 5.17751 73.665 5.25207Z" fill="white"/>
</svg>
