<svg width="119" height="119" viewBox="0 0 119 119" fill="none" xmlns="http://www.w3.org/2000/svg">
<g clip-path="url(#clip0_1139_1344)">
<path d="M18.8107 3.16091C19.4305 2.41716 19.8333 1.54945 20.4841 1.30154C21.1659 1.02263 22.1266 1.23956 22.8393 1.51846C23.3971 1.73539 23.831 2.35518 24.2958 2.82003C26.651 5.17523 29.0062 7.49945 31.3614 9.85466C32.539 11.0633 32.663 12.4268 31.6713 13.4495C30.6797 14.4721 29.2232 14.3482 28.0146 13.1396C25.3805 10.5364 22.7463 7.93331 20.1432 5.2682C19.6474 4.71039 19.3685 3.99763 18.8107 3.16091Z" fill="#19918E" stroke="white" stroke-width="2" stroke-miterlimit="10"/>
<path d="M96.9974 0.960693C98.3919 0.960693 99.1047 1.42554 99.5075 2.32424C99.9414 3.3159 99.7555 4.2146 98.9807 4.98934C97.2453 6.75575 95.4789 8.49116 93.7125 10.2576C92.6898 11.2802 91.6982 12.3029 90.6755 13.2945C89.5909 14.3482 88.1963 14.3792 87.2357 13.4495C86.275 12.5198 86.275 11.0943 87.3286 10.0406C90.0867 7.25158 92.8448 4.49351 95.6338 1.76642C96.0987 1.33257 96.7495 1.11564 96.9974 0.960693Z" fill="#19918E" stroke="white" stroke-width="2" stroke-miterlimit="10"/>
<path d="M61.7623 7.87137C61.7623 9.5448 61.7933 11.1873 61.7623 12.8607C61.7313 14.4102 60.8636 15.3708 59.5 15.4018C58.1055 15.4328 57.1138 14.4102 57.1138 12.8297C57.0828 9.51381 57.0828 6.16694 57.1138 2.85105C57.1138 1.30157 58.1365 0.247929 59.5 0.309908C60.8326 0.340898 61.7313 1.36355 61.7623 2.88204C61.7933 4.55548 61.7623 6.19793 61.7623 7.87137Z" fill="#19918E" stroke="white" stroke-width="2" stroke-miterlimit="10"/>
<path d="M16.4555 104.931C15.1229 104.962 14.0693 103.939 14.1003 102.606C14.1003 101.367 15.1539 100.313 16.3935 100.282C17.6641 100.251 18.7797 101.336 18.7487 102.637C18.7487 103.939 17.757 104.931 16.4555 104.931Z" fill="#123D83" stroke="white" stroke-width="2" stroke-miterlimit="10"/>
<path d="M79.8292 82.1534C78.5586 82.1844 77.536 81.2237 77.474 79.9221C77.412 78.6206 78.4347 77.5049 79.7672 77.474C81.0378 77.443 82.1534 78.5586 82.1534 79.8292C82.1224 81.0997 81.0998 82.1224 79.8292 82.1534Z" fill="#19918E" stroke="white" stroke-width="2" stroke-miterlimit="10"/>
<path d="M109.424 80.1391C107.875 78.6516 106.139 78.6516 104.59 80.1701C96.3776 88.3513 88.1654 96.5635 79.9531 104.776C78.4346 106.294 78.4346 108.061 79.8912 109.579C81.1307 110.85 82.4013 112.12 83.6719 113.36C85.1904 114.816 86.9258 114.878 88.3823 113.422C96.6565 105.179 104.931 96.9354 113.174 88.6302C113.763 88.0104 114.042 87.1117 114.537 86.244C114.042 85.3763 113.732 84.5396 113.174 83.9198C111.996 82.5872 110.695 81.3786 109.424 80.1391Z" stroke="white" stroke-miterlimit="10"/>
<path d="M27.3019 70.9352C27.4259 70.9662 27.5808 70.9972 27.6738 71.0591C32.1673 73.0425 37.3115 70.8112 38.799 66.1938C39.0469 65.419 39.1399 64.6133 39.3259 63.7146C39.5738 63.6836 39.8837 63.5907 40.2246 63.5597C44.0363 63.0638 46.8563 60.2438 47.2902 56.4011C47.3522 55.8433 47.4451 55.5024 48.1269 55.4094C52.4654 54.7896 54.8516 52.3724 55.5024 48.0339C55.5334 47.817 55.6264 47.6 55.6574 47.4141C56.5561 47.2282 57.3928 47.1352 58.1985 46.8873C62.785 45.3998 65.0162 40.2555 63.0019 35.855C62.8779 35.5761 62.785 35.3282 62.785 35.1422C62.785 35.1422 58.4464 32.3222 57.9196 31.9813C55.1305 30.2149 52.6514 27.8907 51.4738 24.4198C51.5358 24.2339 51.6287 24.0789 51.6907 23.893C55.9363 24.6677 60.1818 25.4115 64.3964 26.1862C64.3964 26.1862 69.2618 22.8703 70.4084 22.5604C70.2844 22.5604 70.1605 22.5295 70.0365 22.4985C65.0162 21.5998 59.9959 20.5771 54.9756 19.6784C52.7443 19.2756 50.5131 19.0586 48.4678 20.4841C48.0959 20.7321 47.4761 20.856 47.0423 20.7631C42.5488 19.8334 38.2412 22.3745 37.2496 26.775C36.9706 28.1076 37.0946 29.5021 37.0326 30.9896C34.9873 31.5474 33.1899 32.787 32.0123 34.7703C30.8037 36.7847 30.6178 38.9229 31.1136 41.1232C25.5045 42.7037 23.0563 48.5297 26.0313 53.643C20.4842 55.9362 18.6868 62.7229 23.3352 67.5573C23.3352 67.5573 26.5272 70.4084 27.3019 70.9352ZM42.2389 26.868C43.0446 25.5974 44.5941 24.9466 46.0506 25.4425C46.5154 25.5974 47.0423 26.0623 47.2282 26.5271C49.2735 31.4235 52.8063 34.8323 57.5787 36.9396C58.7563 37.4354 59.0662 38.1792 59.0972 39.2019C59.1282 41.1232 57.5477 42.6417 55.5024 42.8276C54.7277 42.4248 53.829 42.1769 53.2712 41.619C49.7074 38.1792 46.2055 34.6774 42.7347 31.1446C41.5261 29.905 41.4022 28.2315 42.2389 26.868ZM36.5678 36.5367C37.9313 35.1732 40.0076 35.1112 41.4641 36.5367C44.3152 39.2948 47.1352 42.1459 49.9243 44.9659C50.9779 46.0196 51.1949 47.3211 50.6371 48.7157C50.0792 50.0792 48.9946 50.699 47.0113 50.8229C46.5774 50.606 45.6167 50.2961 44.9969 49.7073C42.1769 47.0112 39.4188 44.2222 36.6917 41.4331C35.2352 39.9456 35.2352 37.9003 36.5678 36.5367ZM30.4938 46.6394C31.7334 45.4927 33.7167 45.2758 34.9563 46.4224C37.4045 48.7157 39.7287 51.0709 42.0219 53.4881C42.4868 53.9839 42.6107 54.7896 42.8897 55.4404C42.7347 56.8659 42.1459 57.9196 40.9373 58.5394C39.7287 59.1901 38.3652 59.2211 37.3425 58.2914C34.8634 55.9672 32.4152 53.581 30.1219 51.0709C28.9753 49.8003 29.2852 47.817 30.4938 46.6394ZM26.1863 59.1591C27.2089 57.9196 29.0683 57.4237 30.3389 58.3844C31.7644 59.469 32.973 60.8636 34.1816 62.1961C34.4915 62.568 34.4915 63.2188 34.5844 63.4977C34.5225 65.0782 33.9337 66.1318 32.7561 66.7206C31.5165 67.3714 30.2459 67.3404 29.1613 66.4417C28.0766 65.543 27.054 64.5203 26.1243 63.4357C25.0706 62.2271 25.1636 60.3367 26.1863 59.1591Z" fill="#19918E" stroke="white" stroke-width="2" stroke-miterlimit="10"/>
<path d="M91.9771 70.9971C91.8531 71.1211 91.7292 71.2451 91.6052 71.369L91.9771 70.9971Z" stroke="white" stroke-miterlimit="10"/>
<path d="M91.9771 70.9971L95.4789 67.5263C97.7722 65.1711 98.7328 62.475 97.9271 59.376C97.1214 56.2151 94.9521 54.2938 91.8841 53.426C92.6899 48.4367 90.6446 44.78 85.6862 43.1065C86.2131 40.8753 85.9961 38.737 84.7875 36.7537C83.6099 34.7703 81.7815 33.5927 79.6123 32.9729C79.6433 32.632 79.6743 32.3841 79.7052 32.1672C80.449 27.5188 77.567 23.4901 72.9185 22.7154C72.0818 22.5914 71.2451 22.6534 70.4084 22.5604C69.2308 22.8703 64.3964 26.1862 64.3964 26.1862C62.3821 28.2005 60.4297 30.1529 58.3534 32.2292C58.1985 32.1362 58.0745 32.0432 57.9196 31.9813C58.4464 32.3221 62.7849 35.1422 62.7849 35.1422C62.7849 34.8013 62.9399 34.5224 63.3117 34.1815C65.3261 32.2292 67.2784 30.2458 69.2617 28.2935C70.3154 27.3018 71.555 26.9919 72.9185 27.5188C74.1891 28.0146 74.9019 28.9753 75.0878 30.3078C75.2427 31.4544 74.8399 32.4461 74.0341 33.2518C72.7016 34.5844 71.338 35.9169 70.0055 37.2805C68.8279 38.4581 68.7659 39.8836 69.7576 40.8753C70.7183 41.805 72.1128 41.743 73.2594 40.6274C73.9722 39.9146 74.6539 39.1708 75.3977 38.4891C76.8232 37.1875 78.8065 37.1875 80.1391 38.4271C81.5336 39.7287 81.6576 41.774 80.325 43.2305C78.9925 44.687 77.567 46.0505 76.1724 47.4451C74.9948 48.6537 74.8709 50.0172 75.8315 51.0398C76.8232 52.0625 78.2797 51.9385 79.5193 50.73C80.2321 50.0482 80.8828 49.3354 81.5956 48.6846C83.0521 47.3521 85.0664 47.4141 86.399 48.7466C87.6696 50.0482 87.7315 52.0935 86.461 53.488C85.2214 54.8206 83.8888 56.0602 82.6183 57.3617C81.4407 58.5393 81.3167 59.9648 82.3084 60.9565C83.331 61.9482 84.6946 61.8552 85.9032 60.6776C86.5539 60.0578 87.1427 59.407 87.8245 58.8182C89.281 57.5787 91.2334 57.6716 92.5349 58.9732C93.8055 60.2438 93.8675 62.2891 92.5659 63.6836C90.8925 65.481 89.1261 67.1544 87.4216 68.8899C86.43 69.9125 86.306 71.0591 86.9878 72.0508C87.7935 73.1664 89.25 73.4143 90.3657 72.5156C90.8305 72.1438 91.2334 71.7409 91.6052 71.369C91.7292 71.2451 91.8532 71.1211 91.9771 70.9971Z" fill="#123D83" stroke="white" stroke-width="2" stroke-miterlimit="10"/>
<path d="M74.0651 85.5933C73.1044 84.6016 71.555 84.5706 70.5943 85.8102C68.0841 89.0641 64.7063 89.5599 60.9255 89.219C58.7563 89.0331 56.587 89.0331 54.4177 89.0951C52.3414 89.1571 50.606 89.9938 49.1495 91.4813C46.4534 94.2394 43.6953 96.9664 41.0302 99.6315C33.8406 92.4419 26.744 85.2834 19.5235 78.0318C21.7547 75.8005 24.1099 73.3834 26.4961 71.0281C26.6201 70.8732 26.9919 70.8732 27.3018 70.9352C26.5271 70.4084 23.3352 67.5573 23.3352 67.5573C23.2112 67.7123 23.0563 67.8982 22.9013 68.0531C20.6391 70.3154 18.3768 72.6086 16.0526 74.8399C15.8357 75.0568 15.2159 75.0568 14.844 74.9328C11.931 74.0651 9.29689 74.561 7.06564 76.6063C5.45418 78.0628 3.93569 79.6123 2.44819 81.1927C-0.34087 84.1987 -0.30988 88.7542 2.47918 91.7292C4.18361 93.5266 5.95002 95.262 7.74741 96.9664C8.15028 97.3693 8.80106 97.6792 9.35887 97.7412C10.3815 97.8651 11.1563 97.3693 11.5901 96.4086C12.024 95.417 11.807 94.5183 11.0633 93.7435C9.42085 92.1011 7.74741 90.4896 6.13595 88.8162C4.8034 87.4526 4.64845 85.7482 5.82606 84.4466C7.25158 82.8662 8.80106 81.3787 10.3505 79.9222C11.3422 79.0235 12.9847 78.9615 13.9143 79.6742C14.5341 80.1701 15.0919 80.6659 15.6498 81.2237C19.3375 84.8805 23.0253 88.5373 26.6821 92.225C30.8656 96.4396 34.9873 100.654 39.1709 104.869C40.9683 106.697 41.0302 108.185 39.2018 110.013C38.0862 111.16 36.9706 112.275 35.824 113.391C34.1196 115.064 32.4151 115.064 30.7417 113.422C29.1922 111.872 27.6427 110.292 26.0623 108.742C24.9466 107.658 23.5211 107.627 22.5604 108.619C21.6617 109.579 21.7237 110.943 22.7774 112.027C23.862 113.174 25.0396 114.228 26.1242 115.405C27.7667 117.203 29.5641 118.752 32.0123 119.31C32.849 119.31 33.7167 119.31 34.5224 119.341C35.9169 118.566 37.4664 118.008 38.706 117.017C40.2555 115.808 41.557 114.29 42.9206 112.864C45.2448 110.416 45.8026 107.1 44.3461 104.063C44.0362 103.412 44.1292 103.071 44.625 102.607C47.2281 100.034 49.7693 97.4313 52.4034 94.9211C53.0232 94.3323 53.9839 94.0224 54.8516 93.8055C55.6573 93.6196 56.556 93.7125 57.3927 93.7435C59.7789 93.7745 62.1651 93.8365 64.5513 93.9295C64.5513 93.9295 64.5513 93.9295 64.5823 93.9295C66.1318 93.9914 71.0901 92.4419 71.0901 92.4419C71.9578 91.4193 72.8875 90.2417 73.8792 89.0951C74.9638 87.8865 75.0568 86.5849 74.0651 85.5933Z" fill="#123D83" stroke="white" stroke-width="2" stroke-miterlimit="10"/>
<path d="M116.862 81.0378C115.374 79.3953 113.825 77.8458 112.182 76.3583C110.106 74.468 107.596 73.8172 104.962 74.7159C103.443 75.2427 102.575 74.9638 101.739 73.8172C101.584 73.6003 101.367 73.4143 101.181 73.2284C99.2906 71.338 97.4002 69.4477 95.4789 67.5263L91.977 70.9971C94.4872 73.5073 96.9354 75.9865 99.3216 78.4037C92.3799 85.3763 85.2523 92.5349 78.1867 99.6315C75.7695 97.1834 73.2593 94.6422 71.0901 92.4419C71.0901 92.4419 66.1317 93.9604 64.5823 93.9294C64.5823 93.9294 64.5823 93.9294 64.5513 93.9294C64.6752 93.9294 64.7992 93.9294 64.9231 93.9294C65.295 93.9604 65.7289 94.1774 66.0078 94.4563C66.5656 95.0141 67.1234 95.5409 67.6502 96.0987C69.9125 98.33 72.1127 100.592 74.406 102.823C74.8088 103.257 74.9638 103.598 74.7159 104.218C73.4453 107.41 74.0651 110.292 76.4203 112.771C77.7528 114.197 79.1474 115.56 80.5419 116.893C83.6408 119.899 88.3513 119.992 91.4192 116.955C99.9104 108.588 108.34 100.158 116.738 91.6672C119.682 88.6922 119.682 84.1057 116.862 81.0378ZM113.174 88.6302C104.931 96.9354 96.6565 105.179 88.3823 113.422C86.9258 114.878 85.1903 114.816 83.6718 113.36C82.4013 112.12 81.1307 110.85 79.8911 109.579C78.4346 108.061 78.4346 106.294 79.9531 104.776C88.1653 96.5636 96.3776 88.3513 104.59 80.1701C106.139 78.6516 107.875 78.6516 109.424 80.1391C110.695 81.3787 111.996 82.5872 113.174 83.9198C113.732 84.5396 114.042 85.3763 114.537 86.244C114.042 87.1117 113.763 88.0104 113.174 88.6302Z" fill="#19918E" stroke="white" stroke-width="2" stroke-miterlimit="10"/>
</g>
<defs>
<clipPath id="clip0_1139_1344">
<rect width="119" height="119" fill="white"/>
</clipPath>
</defs>
</svg>
