<svg width="122" height="122" viewBox="0 0 122 122" fill="none" xmlns="http://www.w3.org/2000/svg">
<path d="M1.15623 10.4688C1.34373 9.875 1.49998 9.28125 1.68748 8.6875C3.06248 4.5 6.90623 1.5625 11.3437 1.34375C11.7187 1.3125 12.125 1.3125 12.5 1.3125C39.2187 1.3125 65.9375 1.3125 92.6562 1.3125C97.9062 1.3125 101.969 4.06253 103.406 8.71878C103.781 9.93753 103.969 11.25 103.969 12.5C104 25.375 104 38.2813 104 51.1563C104 53.5625 103.062 54.4688 100.656 54.4688C95 54.4688 89.3437 54.4688 83.6562 54.4688C83.2187 54.4688 82.8125 54.4688 82.1562 54.4688C82.3125 55.0625 82.3437 55.5625 82.5937 55.9375C85.5312 60.1563 83.3437 65.0625 78.1875 65.7188C75.9062 66 73.8437 65.4375 72.0937 63.875C69.8437 61.875 69.5625 58.6563 71.3437 56.25C71.6875 55.7813 71.8437 55.2188 72.1562 54.5313C66.0625 54.5313 60.25 54.5313 54.3125 54.5313C54.3125 55 54.3125 55.4063 54.3125 55.8125C54.3125 61.0938 54.2812 66.3438 54.3125 71.625C54.3437 75.7813 51 76.4063 48.125 75.7813C47.7187 75.6875 47.4062 75.2188 47.0625 74.9063C46.0937 73.9688 44.9062 73.9688 43.9687 74.9375C42.6562 76.3125 42.625 78.75 43.9062 80.1875C44.8437 81.2188 46.1562 81.2813 47.0625 80.2188C48.4687 78.625 50.2187 79.125 51.8437 79.5C53.4062 79.875 54.2812 81.3438 54.2812 83.125C54.2812 89.0313 54.2812 94.9063 54.2812 100.813C54.2812 102.969 53.125 104.094 50.9062 104.094C46.9687 104.125 43.0312 104.094 39.0625 104.094C30.3125 104.094 21.5625 104.094 12.8125 104.094C6.5625 104.094 2.84375 101.219 1.21875 95.1563C1.1875 95.0938 1.125 95.0313 1.0625 94.9688C1.15625 66.875 1.15623 38.6562 1.15623 10.4688ZM32.6562 51C35.0625 51 37.1562 51 39.2812 51C40.6562 51 41.4687 51.6875 41.4375 52.75C41.4375 53.8125 40.625 54.5 39.25 54.5C37.2187 54.5 35.1875 54.5 33.1562 54.5C31.4687 54.5 30.0625 53.75 29.5937 52.1563C29.125 50.5313 28.625 48.7188 30.2812 47.2813C31.3125 46.375 31.2187 45.0313 30.2187 44.125C28.7812 42.8438 26.3125 42.875 24.9687 44.2188C24.0937 45.0625 23.9375 46.4063 24.8438 47.125C25.9062 48 26.0312 49.0313 26 50.25C25.9375 53.125 24.5625 54.5313 21.6562 54.5313C16.4375 54.5313 11.1875 54.5313 5.96875 54.5313C5.5625 54.5313 5.15625 54.5313 4.6875 54.5313C4.6875 55.125 4.6875 55.5625 4.6875 55.9688C4.6875 68.2188 4.6875 80.5 4.6875 92.75C4.6875 97.6875 7.625 100.656 12.5312 100.656C24.875 100.656 37.2187 100.656 49.5625 100.656C49.9687 100.656 50.375 100.625 50.75 100.594C50.75 94.5938 50.75 88.75 50.75 82.625C50.0937 82.9063 49.5937 83.125 49.0937 83.3125C48.0312 83.7188 46.9687 84.4063 45.8437 84.4688C42.4062 84.7188 39.625 81.8125 39.5 77.9375C39.4062 75.1563 40.4375 72.8438 42.9062 71.4375C45.1562 70.1563 47.3125 70.5625 49.3437 72.1563C49.625 72.375 50.1562 72.4688 50.5 72.375C50.6875 72.3125 50.7812 71.7188 50.7812 71.375C50.8125 66.0625 50.7812 60.75 50.7812 55.4375C50.7812 55.1563 50.7187 54.8438 50.6875 54.5C50.0937 54.5 49.5937 54.5 49.0937 54.5C48.5625 54.5 48 54.5 47.4687 54.5C46.1875 54.4688 45.4375 53.7813 45.4375 52.7188C45.4375 51.6563 46.2187 51 47.5 51C48.5625 51 49.6562 51 50.8125 51C50.8125 50.4063 50.8125 49.9688 50.8125 49.5625C50.8125 44.0938 50.8125 38.625 50.8125 33.1563C50.8125 32.0313 51.0937 31.0938 52.0625 30.4063C53.4375 29.4375 56.8125 29.7188 58.0312 30.9063C59 31.8438 60.2187 31.8438 61.125 30.875C62.4687 29.4688 62.4687 26.9375 61.0937 25.5313C60.2812 24.7188 59.0312 24.4688 58.375 25.2813C57.2187 26.7188 55.7812 26.625 54.25 26.5938C51.9062 26.5313 50.8437 25.4688 50.8125 23.125C50.8125 17.5 50.8125 11.875 50.8125 6.25003C50.8125 5.84378 50.8125 5.40628 50.8125 4.93753C50.3125 4.90628 49.9375 4.87503 49.5625 4.87503C37.1875 4.87503 24.8125 4.87503 12.4062 4.87503C7.625 4.87503 4.65625 7.87503 4.65625 12.625C4.65625 25 4.65625 37.375 4.65625 49.7813C4.65625 50.1563 4.65625 50.5313 4.65625 50.9688C10.6562 50.9688 16.5312 50.9688 22.6875 50.9688C22.4062 50.3125 22.2812 49.75 21.9687 49.3125C20.125 46.8438 20.375 43.6563 22.6562 41.5938C24.5312 39.9063 26.7812 39.375 29.1875 39.875C34.0937 40.875 35.9375 45.4688 33.0937 49.5625C32.875 49.875 32.875 50.3438 32.6562 51ZM54.4062 23.25C55.0625 22.9688 55.625 22.8125 56.0312 22.5C58.5937 20.5625 61.8125 20.9063 63.9062 23.3438C66.25 26.0938 66.25 30.25 63.875 33.0313C61.875 35.4063 58.5937 35.75 56.0937 33.875C55.6562 33.5625 55.0625 33.4375 54.4375 33.1875C54.4375 39.2813 54.4375 45.0938 54.4375 50.9688C54.9375 50.9688 55.3437 50.9688 55.7812 50.9688C61.25 50.9688 66.7187 50.9688 72.1875 50.9688C73.3125 50.9688 74.2812 51.2813 74.9375 52.2188C75.9375 53.625 75.6562 56.9688 74.4687 58.1875C73.5312 59.125 73.5625 60.4063 74.5 61.2813C75.9062 62.625 78.4687 62.5938 79.8437 61.25C80.625 60.4688 80.875 59.1563 80.0937 58.5313C78.6875 57.4375 78.75 56 78.7812 54.5313C78.8125 52.0625 79.875 51 82.375 51C87.9687 51 93.5312 51 99.125 51C99.5312 51 99.9687 51 100.531 51C100.531 50.4688 100.531 50.0313 100.531 49.625C100.531 37.375 100.531 25.0938 100.531 12.8438C100.531 7.75003 97.625 4.84378 92.5312 4.84378C80.2812 4.84378 68 4.84378 55.75 4.84378C55.3437 4.84378 54.9062 4.84378 54.4687 4.84378C54.4062 10.9688 54.4062 16.9688 54.4062 23.25Z" fill="#19918E"/>
<path d="M70.3125 121.313C68.5 120.531 67.9375 119.094 67.9688 117.187C68.0625 111.906 68 106.656 68 101.375C68 100.938 68 100.531 68 99.7812C67.2813 100.062 66.6875 100.187 66.25 100.531C63.7188 102.406 60.4063 102.031 58.375 99.5937C56.0313 96.7187 56.125 92.5312 58.5938 89.8125C60.625 87.5625 63.7813 87.2812 66.2188 89.0625C66.6563 89.375 67.2188 89.5625 68 89.9062C68 87.7812 68 86.0312 68 84.2812C68 83.9062 67.9688 83.5 68.0313 83.125C68.2188 82.1562 68.8125 81.5937 69.8438 81.625C70.8438 81.6562 71.4688 82.25 71.5 83.25C71.5313 85.4687 71.5938 87.7187 71.4688 89.9375C71.4063 91.3437 70.5625 92.4375 69.25 92.8125C67.5 93.3125 65.6875 93.75 64.1875 92C63.4375 91.0937 62.125 91.2187 61.2813 92.0937C59.9063 93.4687 59.875 96 61.2188 97.4375C62.125 98.4062 63.375 98.4375 64.3125 97.5C65.4063 96.4375 67.7813 96.0625 69.2813 96.75C70.875 97.4687 71.5313 98.7812 71.5313 100.5C71.5 105.781 71.5313 111.031 71.5313 116.312C71.5313 116.75 71.5313 117.156 71.5313 117.781C72 117.781 72.4063 117.781 72.8125 117.781C85.1563 117.781 97.5 117.781 109.844 117.781C114.75 117.781 117.688 114.844 117.688 109.875C117.688 97.5625 117.688 85.2812 117.688 72.9687C117.688 72.5937 117.688 72.1875 117.688 71.7187C111.656 71.7187 105.656 71.7187 99.4375 71.7187C99.5625 72.2187 99.5313 72.7812 99.8125 73.0625C102.563 76.0312 101.531 81.4062 96.0313 82.7187C93.4688 83.3125 91.1563 82.6875 89.1875 80.875C87.0938 78.9062 86.875 75.7812 88.5625 73.4062C88.9063 72.9375 89.0625 72.375 89.375 71.6562C83.25 71.6562 77.4688 71.6562 71.5 71.6562C71.5 72.9062 71.5 74.125 71.5 75.375C71.5 76.75 70.8438 77.5312 69.75 77.5312C68.6563 77.5312 68 76.7187 68 75.375C68 73.6875 67.9688 72.0312 68 70.3437C68.0313 68.8125 68.7188 68.125 70.2188 68.0937C76.625 68.0937 83.0313 68.0937 89.4375 68.0937C91.4688 68.0937 92.5938 69.25 92.625 71.3125C92.625 71.9375 92.75 72.5937 92.5938 73.1875C92.4063 73.9062 92.1563 74.6875 91.6875 75.1875C90.625 76.3437 90.6563 77.6562 91.875 78.625C93.3125 79.75 95.5313 79.6875 96.8438 78.5C97.9063 77.5625 97.9375 76.3125 96.9688 75.3125C95.7813 74.0937 95.4063 70.6562 96.5313 69.375C97.0938 68.75 98.0938 68.1562 98.875 68.1562C105.625 68.0625 112.375 68.0937 119.156 68.125C120.469 68.125 121.125 68.9062 121.125 70.3437C121.125 73.6875 121.125 77.0625 121.125 80.4062C121.125 90.25 121.125 100.094 121.125 109.938C121.125 115.906 117.906 119.844 112.063 121.125C111.969 121.156 111.844 121.219 111.75 121.281C97.9688 121.312 84.125 121.313 70.3125 121.313Z" fill="#19918E"/>
<path d="M70.3125 121.313C47.2812 121.313 24.2812 121.313 1.15623 121.313C1.15623 112.563 1.15623 103.813 1.15623 95.0625C1.21873 95.125 1.28123 95.1563 1.31248 95.25C2.90623 101.313 6.62498 104.188 12.875 104.188C21.625 104.188 30.375 104.188 39.125 104.188C43.0625 104.188 47 104.188 50.9687 104.188C53.1875 104.188 54.3437 103.063 54.3437 100.906C54.3437 95 54.3437 89.125 54.3437 83.2188C54.3437 81.4375 53.4687 79.9688 51.9062 79.5938C50.3125 79.2188 48.5312 78.6875 47.125 80.3125C46.2187 81.3438 44.875 81.2813 43.9687 80.2813C42.6875 78.8438 42.6875 76.4063 44.0312 75.0313C44.9687 74.0625 46.1562 74.0625 47.125 75C47.4687 75.3125 47.7812 75.7813 48.1875 75.875C51.0625 76.5 54.4062 75.875 54.375 71.7188C54.3125 66.4375 54.375 61.1875 54.375 55.9063C54.375 55.5 54.375 55.0625 54.375 54.625C60.3125 54.625 66.125 54.625 72.2187 54.625C71.9062 55.3125 71.75 55.9063 71.4062 56.3438C69.625 58.75 69.9062 61.9688 72.1562 63.9688C73.9062 65.5313 75.9687 66.0938 78.25 65.8125C83.4062 65.1875 85.5937 60.25 82.6562 56.0313C82.4062 55.6875 82.375 55.1563 82.2187 54.5625C82.875 54.5625 83.2812 54.5625 83.7187 54.5625C89.375 54.5625 95.0312 54.5625 100.719 54.5625C103.125 54.5625 104.062 53.625 104.062 51.25C104.062 38.375 104.094 25.4688 104.031 12.5938C104.031 11.3125 103.844 10 103.469 8.8125C101.969 4.09375 97.9062 1.3125 92.6562 1.3125M70.3125 121.313C68.5 120.531 67.9062 119.094 68 117.219C68.0937 111.938 68.0312 106.688 68.0312 101.406C68.0312 101 68.0312 100.563 68.0312 99.8125C67.3125 100.125 66.7187 100.25 66.2812 100.563C63.7187 102.438 60.4062 102.063 58.4062 99.625C56.0625 96.75 56.1562 92.5313 58.625 89.8438C60.6875 87.5938 63.8125 87.3125 66.25 89.0938C66.7187 89.4063 67.2812 89.5938 68.0312 89.9375C68.0312 87.8125 68.0312 86.0625 68.0312 84.3125C68.0312 83.9375 68 83.5313 68.0625 83.1563C68.2812 82.1875 68.875 81.625 69.875 81.6563C70.875 81.6875 71.5 82.2813 71.5312 83.2813C71.5625 85.5313 71.5937 87.75 71.5 89.9688C71.4375 91.3438 70.5937 92.4688 69.2812 92.8438C67.5312 93.3438 65.7187 93.8125 64.2187 92.0313C63.4687 91.125 62.1875 91.25 61.3125 92.125C59.9375 93.5 59.9062 96.0625 61.25 97.4688C62.1562 98.4375 63.375 98.4688 64.3437 97.5313C65.4375 96.4688 67.7812 96.0938 69.3125 96.7813C70.9062 97.5 71.5625 98.7813 71.5625 100.531C71.5312 105.813 71.5625 111.063 71.5625 116.344C71.5625 116.781 71.5625 117.188 71.5625 117.813C72.0312 117.813 72.4375 117.813 72.8437 117.813C85.1875 117.813 97.5312 117.813 109.875 117.813C114.812 117.813 117.719 114.844 117.719 109.906C117.719 97.5938 117.719 85.3125 117.719 73C117.719 72.625 117.719 72.2188 117.719 71.75C111.687 71.75 105.687 71.75 99.4687 71.75C99.5937 72.2188 99.5625 72.8125 99.8437 73.0938C102.625 76.0313 101.594 81.4375 96.0625 82.75C93.5 83.3438 91.1562 82.7188 89.2187 80.9063C87.0937 78.9063 86.875 75.7813 88.5937 73.4375C88.9062 72.9688 89.0937 72.4063 89.4062 71.6875C83.2812 71.6875 77.5 71.6875 71.5312 71.6875C71.5312 72.9375 71.5312 74.1563 71.5312 75.4063C71.5312 76.8125 70.875 77.5625 69.7812 77.5625C68.6875 77.5625 68.0312 76.7813 68.0312 75.4063C68.0312 73.7188 68 72.0625 68.0312 70.375C68.0312 68.8438 68.7187 68.125 70.25 68.125C76.6562 68.125 83.0625 68.0938 89.4687 68.125C91.5 68.125 92.625 69.2813 92.6562 71.3438C92.6562 71.9688 92.7812 72.625 92.625 73.2188C92.4375 73.9063 92.1875 74.6875 91.7187 75.2188C90.6562 76.4063 90.6562 77.6875 91.9062 78.6563C93.3125 79.7813 95.5312 79.7188 96.875 78.5313C97.9375 77.5938 97.9687 76.3438 97 75.3438C95.8125 74.125 95.4375 70.6875 96.5625 69.4062C97.0937 68.7812 98.0937 68.1875 98.9062 68.1875C105.687 68.0938 112.437 68.125 119.187 68.1562C120.5 68.1562 121.156 68.9375 121.156 70.375C121.156 73.7188 121.156 77.0938 121.156 80.4375C121.156 90.2813 121.156 100.125 121.156 109.969C121.156 115.938 117.969 119.875 112.094 121.156C111.969 121.188 111.875 121.25 111.781 121.313C115 121.313 118.187 121.313 121.375 121.313C121.375 81.25 121.375 41.1563 121.375 1.09375C81.2812 1.09375 41.2187 1.09375 1.15623 1.09375C1.15623 4.21875 1.15623 7.34375 1.15623 10.4688M70.3125 121.313C68.5 120.531 67.9375 119.094 67.9688 117.187C68.0625 111.906 68 106.656 68 101.375C68 100.938 68 100.531 68 99.7812C67.2813 100.062 66.6875 100.187 66.25 100.531C63.7188 102.406 60.4063 102.031 58.375 99.5937C56.0313 96.7187 56.125 92.5312 58.5938 89.8125C60.625 87.5625 63.7813 87.2812 66.2188 89.0625C66.6563 89.375 67.2188 89.5625 68 89.9062C68 87.7812 68 86.0312 68 84.2812C68 83.9062 67.9688 83.5 68.0313 83.125C68.2188 82.1562 68.8125 81.5937 69.8438 81.625C70.8438 81.6562 71.4688 82.25 71.5 83.25C71.5313 85.4687 71.5938 87.7187 71.4688 89.9375C71.4063 91.3437 70.5625 92.4375 69.25 92.8125C67.5 93.3125 65.6875 93.75 64.1875 92C63.4375 91.0937 62.125 91.2187 61.2813 92.0937C59.9063 93.4687 59.875 96 61.2188 97.4375C62.125 98.4062 63.375 98.4375 64.3125 97.5C65.4063 96.4375 67.7813 96.0625 69.2813 96.75C70.875 97.4687 71.5313 98.7812 71.5313 100.5C71.5 105.781 71.5313 111.031 71.5313 116.312C71.5313 116.75 71.5313 117.156 71.5313 117.781C72 117.781 72.4063 117.781 72.8125 117.781C85.1563 117.781 97.5 117.781 109.844 117.781C114.75 117.781 117.688 114.844 117.688 109.875C117.688 97.5625 117.688 85.2812 117.688 72.9687C117.688 72.5937 117.688 72.1875 117.688 71.7187C111.656 71.7187 105.656 71.7187 99.4375 71.7187C99.5625 72.2187 99.5313 72.7812 99.8125 73.0625C102.563 76.0312 101.531 81.4062 96.0313 82.7187C93.4688 83.3125 91.1563 82.6875 89.1875 80.875C87.0938 78.9062 86.875 75.7812 88.5625 73.4062C88.9063 72.9375 89.0625 72.375 89.375 71.6562C83.25 71.6562 77.4688 71.6562 71.5 71.6562C71.5 72.9062 71.5 74.125 71.5 75.375C71.5 76.75 70.8438 77.5312 69.75 77.5312C68.6563 77.5312 68 76.7187 68 75.375C68 73.6875 67.9688 72.0312 68 70.3437C68.0313 68.8125 68.7188 68.125 70.2188 68.0937C76.625 68.0937 83.0313 68.0937 89.4375 68.0937C91.4688 68.0937 92.5938 69.25 92.625 71.3125C92.625 71.9375 92.75 72.5937 92.5938 73.1875C92.4063 73.9062 92.1563 74.6875 91.6875 75.1875C90.625 76.3437 90.6563 77.6562 91.875 78.625C93.3125 79.75 95.5313 79.6875 96.8438 78.5C97.9063 77.5625 97.9375 76.3125 96.9688 75.3125C95.7813 74.0937 95.4063 70.6562 96.5313 69.375C97.0938 68.75 98.0938 68.1562 98.875 68.1562C105.625 68.0625 112.375 68.0937 119.156 68.125C120.469 68.125 121.125 68.9062 121.125 70.3437C121.125 73.6875 121.125 77.0625 121.125 80.4062C121.125 90.25 121.125 100.094 121.125 109.938C121.125 115.906 117.906 119.844 112.063 121.125C111.969 121.156 111.844 121.219 111.75 121.281C97.9688 121.312 84.125 121.313 70.3125 121.313ZM92.6562 1.3125C65.9375 1.3125 39.2187 1.3125 12.5 1.3125C12.125 1.3125 11.7187 1.3125 11.3437 1.34375C6.90623 1.5625 3.06248 4.5 1.68748 8.6875C1.49998 9.28125 1.34373 9.875 1.15623 10.4688M92.6562 1.3125C97.9062 1.3125 101.969 4.06253 103.406 8.71878C103.781 9.93753 103.969 11.25 103.969 12.5C104 25.375 104 38.2813 104 51.1563C104 53.5625 103.062 54.4688 100.656 54.4688C95 54.4688 89.3437 54.4688 83.6562 54.4688C83.2187 54.4688 82.8125 54.4688 82.1562 54.4688C82.3125 55.0625 82.3437 55.5625 82.5937 55.9375C85.5312 60.1563 83.3437 65.0625 78.1875 65.7188C75.9062 66 73.8437 65.4375 72.0937 63.875C69.8437 61.875 69.5625 58.6563 71.3437 56.25C71.6875 55.7813 71.8437 55.2188 72.1562 54.5313C66.0625 54.5313 60.25 54.5313 54.3125 54.5313C54.3125 55 54.3125 55.4063 54.3125 55.8125C54.3125 61.0938 54.2812 66.3438 54.3125 71.625C54.3437 75.7813 51 76.4063 48.125 75.7813C47.7187 75.6875 47.4062 75.2188 47.0625 74.9063C46.0937 73.9688 44.9062 73.9688 43.9687 74.9375C42.6562 76.3125 42.625 78.75 43.9062 80.1875C44.8437 81.2188 46.1562 81.2813 47.0625 80.2188C48.4687 78.625 50.2187 79.125 51.8437 79.5C53.4062 79.875 54.2812 81.3438 54.2812 83.125C54.2812 89.0313 54.2812 94.9063 54.2812 100.813C54.2812 102.969 53.125 104.094 50.9062 104.094C46.9687 104.125 43.0312 104.094 39.0625 104.094C30.3125 104.094 21.5625 104.094 12.8125 104.094C6.5625 104.094 2.84375 101.219 1.21875 95.1563C1.1875 95.0938 1.125 95.0313 1.0625 94.9688C1.15625 66.875 1.15623 38.6562 1.15623 10.4688M32.6562 51C35.0625 51 37.1562 51 39.2812 51C40.6562 51 41.4687 51.6875 41.4375 52.75C41.4375 53.8125 40.625 54.5 39.25 54.5C37.2187 54.5 35.1875 54.5 33.1562 54.5C31.4687 54.5 30.0625 53.75 29.5937 52.1563C29.125 50.5313 28.625 48.7188 30.2812 47.2813C31.3125 46.375 31.2187 45.0313 30.2187 44.125C28.7812 42.8438 26.3125 42.875 24.9687 44.2188C24.0937 45.0625 23.9375 46.4063 24.8438 47.125C25.9062 48 26.0312 49.0313 26 50.25C25.9375 53.125 24.5625 54.5313 21.6562 54.5313C16.4375 54.5313 11.1875 54.5313 5.96875 54.5313C5.5625 54.5313 5.15625 54.5313 4.6875 54.5313C4.6875 55.125 4.6875 55.5625 4.6875 55.9688C4.6875 68.2188 4.6875 80.5 4.6875 92.75C4.6875 97.6875 7.625 100.656 12.5312 100.656C24.875 100.656 37.2187 100.656 49.5625 100.656C49.9687 100.656 50.375 100.625 50.75 100.594C50.75 94.5938 50.75 88.75 50.75 82.625C50.0937 82.9063 49.5937 83.125 49.0937 83.3125C48.0312 83.7188 46.9687 84.4063 45.8437 84.4688C42.4062 84.7188 39.625 81.8125 39.5 77.9375C39.4062 75.1563 40.4375 72.8438 42.9062 71.4375C45.1562 70.1563 47.3125 70.5625 49.3437 72.1563C49.625 72.375 50.1562 72.4688 50.5 72.375C50.6875 72.3125 50.7812 71.7188 50.7812 71.375C50.8125 66.0625 50.7812 60.75 50.7812 55.4375C50.7812 55.1563 50.7187 54.8438 50.6875 54.5C50.0937 54.5 49.5937 54.5 49.0937 54.5C48.5625 54.5 48 54.5 47.4687 54.5C46.1875 54.4688 45.4375 53.7813 45.4375 52.7188C45.4375 51.6563 46.2187 51 47.5 51C48.5625 51 49.6562 51 50.8125 51C50.8125 50.4063 50.8125 49.9688 50.8125 49.5625C50.8125 44.0938 50.8125 38.625 50.8125 33.1563C50.8125 32.0313 51.0937 31.0938 52.0625 30.4063C53.4375 29.4375 56.8125 29.7188 58.0312 30.9063C59 31.8438 60.2187 31.8438 61.125 30.875C62.4687 29.4688 62.4687 26.9375 61.0937 25.5313C60.2812 24.7188 59.0312 24.4688 58.375 25.2813C57.2187 26.7188 55.7812 26.625 54.25 26.5938C51.9062 26.5313 50.8437 25.4688 50.8125 23.125C50.8125 17.5 50.8125 11.875 50.8125 6.25003C50.8125 5.84378 50.8125 5.40628 50.8125 4.93753C50.3125 4.90628 49.9375 4.87503 49.5625 4.87503C37.1875 4.87503 24.8125 4.87503 12.4062 4.87503C7.625 4.87503 4.65625 7.87503 4.65625 12.625C4.65625 25 4.65625 37.375 4.65625 49.7813C4.65625 50.1563 4.65625 50.5313 4.65625 50.9688C10.6562 50.9688 16.5312 50.9688 22.6875 50.9688C22.4062 50.3125 22.2812 49.75 21.9687 49.3125C20.125 46.8438 20.375 43.6563 22.6562 41.5938C24.5312 39.9063 26.7812 39.375 29.1875 39.875C34.0937 40.875 35.9375 45.4688 33.0937 49.5625C32.875 49.875 32.875 50.3438 32.6562 51ZM54.4062 23.25C55.0625 22.9688 55.625 22.8125 56.0312 22.5C58.5937 20.5625 61.8125 20.9063 63.9062 23.3438C66.25 26.0938 66.25 30.25 63.875 33.0313C61.875 35.4063 58.5937 35.75 56.0937 33.875C55.6562 33.5625 55.0625 33.4375 54.4375 33.1875C54.4375 39.2813 54.4375 45.0938 54.4375 50.9688C54.9375 50.9688 55.3437 50.9688 55.7812 50.9688C61.25 50.9688 66.7187 50.9688 72.1875 50.9688C73.3125 50.9688 74.2812 51.2813 74.9375 52.2188C75.9375 53.625 75.6562 56.9688 74.4687 58.1875C73.5312 59.125 73.5625 60.4063 74.5 61.2813C75.9062 62.625 78.4687 62.5938 79.8437 61.25C80.625 60.4688 80.875 59.1563 80.0937 58.5313C78.6875 57.4375 78.75 56 78.7812 54.5313C78.8125 52.0625 79.875 51 82.375 51C87.9687 51 93.5312 51 99.125 51C99.5312 51 99.9687 51 100.531 51C100.531 50.4688 100.531 50.0313 100.531 49.625C100.531 37.375 100.531 25.0938 100.531 12.8438C100.531 7.75003 97.625 4.84378 92.5312 4.84378C80.2812 4.84378 68 4.84378 55.75 4.84378C55.3437 4.84378 54.9062 4.84378 54.4687 4.84378C54.4062 10.9688 54.4062 16.9688 54.4062 23.25Z" stroke="white"/>
</svg>
