<svg width="124" height="123" viewBox="0 0 124 123" fill="none" xmlns="http://www.w3.org/2000/svg">
<path d="M1 69.4412C3.24838 69.8845 4.45174 68.8395 5.62344 66.8761C9.9302 59.7193 14.9336 53.1008 21.2671 47.6224C24.7505 44.614 28.4873 42.1122 33.1107 41.1939C37.1958 40.4022 40.9642 41.3839 44.511 43.3473C49.1027 45.8807 52.8712 49.4591 56.3229 53.3542C60.408 57.9776 63.9547 62.9494 67.0898 68.2378C67.5965 69.0928 68.1348 69.5045 69.1482 69.4412C70.6049 69.3462 72.0932 69.3779 73.5499 69.4412C74.3733 69.4729 74.8166 69.1562 75.1966 68.4278C79.2501 60.796 83.3668 53.1642 87.4519 45.5323C87.6103 45.2157 87.8003 44.899 88.0536 44.424C88.3703 44.899 88.6236 45.2473 88.8453 45.6273C93.5321 53.1958 98.2188 60.7643 102.874 68.3328C103.349 69.0928 103.856 69.4095 104.774 69.3779C110.189 69.3462 115.604 69.3462 121.051 69.3462C121.526 69.3462 121.969 69.3462 122.508 69.3462C122.508 70.4862 122.508 71.4996 122.508 72.7029C116.966 72.7029 111.456 72.7029 105.661 72.7029C109.334 78.6881 112.881 84.3882 116.491 90.2467C115.129 90.405 113.958 90.5633 112.754 90.6583C105.471 91.3233 98.1872 91.9567 90.9037 92.59C90.3336 92.6534 89.8903 92.7167 89.8903 93.4451C89.922 94.6484 89.8903 95.8834 89.8903 97.3401C100.341 96.4851 110.664 95.6301 121.241 94.7434C118.676 99.9052 116.206 104.845 113.609 110.007C115.509 110.292 117.188 110.545 118.961 110.799C118.961 111.812 118.961 112.825 118.961 113.934C116.554 114.187 114.274 113.649 111.994 112.984C109.841 112.35 107.687 111.685 105.471 111.337C102.526 110.862 99.6439 111.337 96.8571 112.382C91.1253 114.599 85.3935 114.567 79.5984 112.445C77.9834 111.844 76.2417 111.559 74.5316 111.305C71.6182 110.894 68.7682 111.305 66.0131 112.35C63.6381 113.237 61.2313 113.965 58.6346 113.965C58.2546 113.965 57.8746 113.965 57.3996 113.965C57.3996 112.857 57.3996 111.844 57.3996 110.799C59.3946 110.45 61.358 110.134 63.5747 109.754C61.8647 106.334 60.313 103.199 58.6979 99.9369C60.0913 99.8102 61.3263 99.6835 62.5614 99.5569C70.1615 98.9235 77.7617 98.2585 85.3935 97.6885C86.2802 97.6251 86.5336 97.3085 86.5019 96.4535C86.4386 95.3451 86.5019 94.2684 86.5019 93.0017C77.8884 93.7617 69.4649 94.5217 60.7247 95.3134C64.8098 87.6816 68.7682 80.3348 72.8533 72.7029C72.0932 72.7029 71.5866 72.7029 71.0799 72.7029C48.2794 72.7029 25.4789 72.7029 2.67837 72.7029C2.14003 72.7029 1.57001 72.6713 1.03167 72.6713C1 71.6579 1 70.5495 1 69.4412ZM63.6381 69.3462C63.4797 68.9978 63.4164 68.8078 63.2897 68.6495C60.0596 63.5194 56.5446 58.5793 52.3961 54.1458C49.2611 50.8208 45.9043 47.7807 41.7242 45.754C38.8425 44.3606 35.8658 43.854 32.7307 44.7406C29.3423 45.7223 26.4922 47.5907 23.8638 49.8708C17.5937 55.2225 12.7803 61.8093 8.44183 68.7128C8.34683 68.8712 8.31516 69.0612 8.22016 69.3462C26.7139 69.3462 45.081 69.3462 63.6381 69.3462ZM64.0181 102.977C64.9364 104.814 65.6964 106.46 66.5831 108.044C66.7098 108.297 67.3115 108.424 67.6598 108.36C72.2199 107.505 76.685 107.664 81.0868 109.374C85.8685 111.242 90.682 111.179 95.4321 109.342C100.056 107.569 104.742 107.442 109.524 108.614C110.189 108.772 110.506 108.677 110.822 108.044C111.772 106.049 112.786 104.085 113.768 102.09C114.274 101.045 114.813 100 115.414 98.7335C98.1872 100.127 81.2134 101.552 64.0181 102.977ZM110.664 87.4599C103.729 76.2813 96.9521 65.3244 90.1753 54.3359C90.112 54.3675 90.017 54.3992 89.9536 54.4309C89.9536 66.0211 89.9536 77.6114 89.9536 89.2966C96.8571 88.6949 103.602 88.0933 110.664 87.4599ZM66.7415 91.3867C68.2615 91.26 69.4332 91.165 70.6049 91.07C75.45 90.6267 80.2951 90.1516 85.1402 89.7716C86.2802 89.6766 86.5336 89.265 86.5336 88.1566C86.5019 77.548 86.5019 66.9395 86.5019 56.3626C86.5019 55.9826 86.4702 55.6342 86.4386 55.2542C86.3436 55.2225 86.2802 55.1909 86.1852 55.1909C79.7251 67.1611 73.2966 79.1314 66.7415 91.3867Z" fill="#19918E"/>
<path d="M1 118.842C1.50668 118.842 2.01336 118.81 2.5517 118.81C41.9142 118.81 81.2768 118.81 120.671 118.81C121.241 118.81 121.843 118.81 122.508 118.81C122.508 119.951 122.508 120.964 122.508 122.104C122.159 122.136 121.779 122.199 121.399 122.199C81.4351 122.199 41.4709 122.199 1.50668 122.199C1.34834 122.199 1.19 122.199 1.03167 122.167C1 121.059 1 119.951 1 118.842Z" fill="#19918E"/>
<path d="M38.5259 17.57C41.4393 18.33 43.4343 19.9134 44.226 22.7951C45.3977 27.0385 42.2943 31.5353 37.8926 31.5986C28.994 31.7253 20.0955 31.6936 11.197 31.5986C7.65021 31.567 4.48347 29.0019 3.43845 25.6135C2.36176 22.1618 3.56512 18.33 6.54185 16.24C7.42854 15.6066 7.74521 15.0049 7.77688 13.8649C7.93522 9.20981 10.1836 5.75807 14.4904 3.98469C18.7655 2.21132 22.7872 2.93967 26.3023 6.01141C26.904 6.51809 27.4107 6.73976 28.2023 6.67642C34.1558 6.20141 38.7792 10.6348 38.5259 16.62C38.5259 16.9367 38.5259 17.2217 38.5259 17.57ZM33.4908 20.9584C33.9025 20.0717 34.2191 19.3434 34.5358 18.6467C35.5808 16.335 35.3592 14.1499 33.7125 12.2182C32.0024 10.2548 29.7857 9.55815 27.284 10.3815C26.144 10.7615 25.5739 10.5082 24.8773 9.58982C22.8505 6.96143 20.0955 5.97974 16.8971 6.80309C13.7937 7.59478 11.7986 9.68482 11.3236 12.8832C11.102 14.4033 11.5136 15.9866 11.6403 17.6333C10.9753 17.8867 10.0886 18.1717 9.29691 18.5834C7.33354 19.5967 6.28851 21.4968 6.54185 23.5551C6.79519 25.7718 8.28356 27.5452 10.3419 28.0836C11.102 28.2736 11.8936 28.3369 12.6853 28.3369C20.6022 28.3686 28.519 28.3369 36.4042 28.3369C36.7842 28.3369 37.1959 28.3369 37.5759 28.3052C39.6659 28.0202 41.186 26.3735 41.0593 24.5052C40.9326 22.5101 39.3176 21.0217 37.1325 20.9901C36.0242 20.9267 34.8841 20.9584 33.4908 20.9584Z" fill="#19918E"/>
<path d="M65.8548 41.6371C63.1314 41.6371 60.408 41.7005 57.6846 41.6055C54.4545 41.4788 52.1428 39.8321 50.9394 36.8237C49.7677 33.9103 50.2427 31.1236 52.4594 28.8119C54.6762 26.4685 57.3996 25.9301 60.503 26.7535C61.1046 26.9118 61.7697 26.8168 62.3713 26.7851C63.6697 26.6901 64.9364 26.5951 66.2348 26.4685C66.7731 26.4051 67.4064 26.3418 67.7865 26.0251C72.8849 21.8767 80.5484 24.4418 82.0685 30.8386C83.3351 36.1587 79.4084 41.4155 73.9299 41.6055C71.2382 41.7005 68.5465 41.6371 65.8548 41.6371ZM68.1665 30.9652C67.6281 30.7119 67.2164 30.4902 66.8048 30.2686C65.4747 29.6035 64.0814 29.5719 62.8463 30.4269C61.833 31.1236 61.1046 31.1552 60.0596 30.4269C58.6029 29.4135 56.7029 29.6669 55.3095 30.8069C53.9795 31.8836 53.4411 33.657 53.9478 35.3037C54.5178 37.172 56.1962 38.3121 58.5396 38.3121C63.3214 38.3437 68.1031 38.3121 72.8849 38.3121C73.4866 38.3121 74.0566 38.2487 74.6583 38.1221C77.445 37.5204 79.25 34.702 78.7117 31.8203C78.1734 29.0335 75.4816 27.1335 72.6949 27.5135C70.5732 27.7985 69.3065 29.1919 68.1665 30.9652Z" fill="#19918E"/>
<path d="M115.256 18.1399C115.256 23.7134 110.822 28.1468 105.217 28.1151C99.6438 28.0835 95.2421 23.65 95.2737 18.0766C95.3054 12.5348 99.7072 8.16467 105.249 8.16467C110.854 8.13301 115.256 12.5348 115.256 18.1399ZM105.281 24.7267C108.859 24.695 111.836 21.7183 111.867 18.1399C111.899 14.5298 108.827 11.4581 105.217 11.4897C101.639 11.5214 98.6621 14.4981 98.6305 18.0766C98.6305 21.6866 101.702 24.7584 105.281 24.7267Z" fill="#19918E"/>
<path d="M53.6312 84.4514C53.6312 85.5914 53.6312 86.6048 53.6312 87.3331C50.0211 88.3465 46.601 89.5499 43.0859 90.2782C39.4125 91.0382 35.6758 90.7532 32.1607 89.2332C27.5056 87.2381 22.8822 87.2698 18.2587 89.2649C16.0103 90.2149 13.667 90.7215 11.1336 90.5315C11.1336 89.4549 11.1336 88.4098 11.1336 87.2065C14.332 87.3015 17.087 85.8131 20.0321 85.0214C24.4655 83.8181 28.8673 84.1347 33.1424 85.9081C37.3858 87.6815 41.6609 87.6182 45.936 85.8764C48.3427 84.9264 50.8445 84.1981 53.6312 84.4514Z" fill="#19918E"/>
<path d="M48.6277 101.077C48.6277 102.185 48.6277 103.199 48.6277 103.959C45.0177 104.972 41.5342 106.175 37.9875 106.904C34.3458 107.664 30.6723 107.347 27.1573 105.859C22.5022 103.864 17.8787 103.895 13.2236 105.89C10.9752 106.84 8.63185 107.347 6.09846 107.157C6.09846 106.08 6.09846 105.035 6.09846 104.339C8.98019 103.484 11.7352 102.629 14.4903 101.837C18.8921 100.539 23.2622 100.665 27.5056 102.375C32.224 104.307 36.8791 104.307 41.5659 102.312C43.751 101.362 46.0627 100.887 48.6277 101.077Z" fill="#19918E"/>
<path d="M92.0753 7.21479C92.8036 6.48644 93.5636 5.75809 94.387 4.93474C94.9887 5.69475 95.6853 6.5181 96.382 7.37312C95.812 7.91147 95.052 8.67149 94.292 9.39984C93.627 8.70315 92.8353 7.94314 92.0753 7.21479Z" fill="#19918E"/>
<path d="M114.021 7.02472C114.623 6.42304 115.383 5.66302 116.079 4.96634C116.871 5.75803 117.631 6.51804 118.391 7.30973C117.726 7.97474 116.966 8.70309 116.111 9.52644C115.478 8.76643 114.781 7.91141 114.021 7.02472Z" fill="#19918E"/>
<path d="M94.6087 26.9434C95.147 27.4818 95.907 28.2418 96.6354 28.9702C95.8437 29.7302 95.052 30.4902 94.292 31.2185C93.627 30.5535 92.8986 29.7935 92.0753 28.9385C92.8036 28.3685 93.6586 27.7035 94.6087 26.9434Z" fill="#19918E"/>
<path d="M113.989 28.8752C114.623 28.2102 115.383 27.4818 116.111 26.7218C116.903 27.5452 117.631 28.3052 118.359 29.0969C117.694 29.7619 116.934 30.4902 116.111 31.3136C115.478 30.5852 114.749 29.7619 113.989 28.8752Z" fill="#19918E"/>
<path d="M106.927 4.30132C105.724 4.30132 104.742 4.30132 103.666 4.30132C103.666 3.22463 103.666 2.17961 103.666 1.00792C104.552 1.00792 105.407 0.976249 106.262 1.03958C106.484 1.07125 106.864 1.41959 106.896 1.64126C106.991 2.49628 106.927 3.3513 106.927 4.30132Z" fill="#19918E"/>
<path d="M88.1487 19.7867C88.1487 18.7733 88.0853 17.9183 88.1803 17.0633C88.212 16.8416 88.6553 16.4932 88.9087 16.4616C89.7004 16.3666 90.4604 16.4299 91.4737 16.4299C91.4737 17.4116 91.5054 18.3616 91.4421 19.28C91.4104 19.47 90.967 19.755 90.7137 19.7867C89.9537 19.85 89.162 19.7867 88.1487 19.7867Z" fill="#19918E"/>
<path d="M122.191 19.7867C121.336 19.7867 120.449 19.8184 119.531 19.7551C119.341 19.7551 119.056 19.4384 119.024 19.28C118.961 18.5517 118.961 17.7917 119.024 17.0317C119.056 16.81 119.373 16.62 119.563 16.4616C119.594 16.43 119.721 16.4616 119.784 16.43C122.476 16.24 122.824 16.715 122.191 19.7867Z" fill="#19918E"/>
<path d="M103.666 35.1454C103.666 34.037 103.666 33.0236 103.666 31.947C104.742 31.947 105.756 31.947 106.864 31.947C106.864 32.992 106.864 34.037 106.864 35.1454C105.787 35.1454 104.806 35.1454 103.666 35.1454Z" fill="#19918E"/>
<path d="M1 69.4412C3.24838 69.8845 4.45174 68.8395 5.62344 66.8761C9.9302 59.7193 14.9336 53.1008 21.2671 47.6224C24.7505 44.614 28.4873 42.1122 33.1107 41.1939C37.1958 40.4022 40.9642 41.3839 44.511 43.3473C49.1027 45.8807 52.8712 49.4591 56.3229 53.3542C60.408 57.9776 63.9547 62.9494 67.0898 68.2378C67.5965 69.0928 68.1348 69.5045 69.1482 69.4412C70.6049 69.3462 72.0932 69.3779 73.5499 69.4412C74.3733 69.4729 74.8166 69.1562 75.1966 68.4278C79.2501 60.796 83.3668 53.1642 87.4519 45.5323C87.6103 45.2157 87.8003 44.899 88.0536 44.424C88.3703 44.899 88.6236 45.2473 88.8453 45.6273C93.5321 53.1958 98.2188 60.7643 102.874 68.3328C103.349 69.0928 103.856 69.4095 104.774 69.3779C110.189 69.3462 115.604 69.3462 121.051 69.3462C121.526 69.3462 121.969 69.3462 122.508 69.3462C122.508 70.4862 122.508 71.4996 122.508 72.7029C116.966 72.7029 111.456 72.7029 105.661 72.7029C109.334 78.6881 112.881 84.3882 116.491 90.2467C115.129 90.405 113.958 90.5633 112.754 90.6583C105.471 91.3233 98.1872 91.9567 90.9037 92.59C90.3336 92.6534 89.8903 92.7167 89.8903 93.4451C89.922 94.6484 89.8903 95.8834 89.8903 97.3401C100.341 96.4851 110.664 95.6301 121.241 94.7434C118.676 99.9052 116.206 104.845 113.609 110.007C115.509 110.292 117.188 110.545 118.961 110.799C118.961 111.812 118.961 112.825 118.961 113.934C116.554 114.187 114.274 113.649 111.994 112.984C109.841 112.35 107.687 111.685 105.471 111.337C102.526 110.862 99.6439 111.337 96.8571 112.382C91.1253 114.599 85.3935 114.567 79.5984 112.445C77.9834 111.844 76.2417 111.559 74.5316 111.305C71.6182 110.894 68.7682 111.305 66.0131 112.35C63.6381 113.237 61.2313 113.965 58.6346 113.965C58.2546 113.965 57.8746 113.965 57.3996 113.965C57.3996 112.857 57.3996 111.844 57.3996 110.799C59.3946 110.45 61.358 110.134 63.5747 109.754C61.8647 106.334 60.313 103.199 58.6979 99.9369C60.0913 99.8102 61.3263 99.6835 62.5614 99.5569C70.1615 98.9235 77.7617 98.2585 85.3935 97.6885C86.2802 97.6251 86.5336 97.3085 86.5019 96.4535C86.4386 95.3451 86.5019 94.2684 86.5019 93.0017C77.8884 93.7617 69.4649 94.5217 60.7247 95.3134C64.8098 87.6816 68.7682 80.3348 72.8533 72.7029C72.0932 72.7029 71.5866 72.7029 71.0799 72.7029C48.2794 72.7029 25.4789 72.7029 2.67837 72.7029C2.14003 72.7029 1.57001 72.6713 1.03167 72.6713C1 71.6579 1 70.5495 1 69.4412ZM63.6381 69.3462C63.4797 68.9978 63.4164 68.8078 63.2897 68.6495C60.0596 63.5194 56.5446 58.5793 52.3961 54.1458C49.2611 50.8208 45.9043 47.7807 41.7242 45.754C38.8425 44.3606 35.8658 43.854 32.7307 44.7406C29.3423 45.7223 26.4922 47.5907 23.8638 49.8708C17.5937 55.2225 12.7803 61.8093 8.44183 68.7128C8.34683 68.8712 8.31516 69.0612 8.22016 69.3462C26.7139 69.3462 45.081 69.3462 63.6381 69.3462ZM64.0181 102.977C64.9364 104.814 65.6964 106.46 66.5831 108.044C66.7098 108.297 67.3115 108.424 67.6598 108.36C72.2199 107.505 76.685 107.664 81.0868 109.374C85.8685 111.242 90.682 111.179 95.4321 109.342C100.056 107.569 104.742 107.442 109.524 108.614C110.189 108.772 110.506 108.677 110.822 108.044C111.772 106.049 112.786 104.085 113.768 102.09C114.274 101.045 114.813 100 115.414 98.7335C98.1872 100.127 81.2134 101.552 64.0181 102.977ZM110.664 87.4599C103.729 76.2813 96.9521 65.3244 90.1753 54.3359C90.112 54.3675 90.017 54.3992 89.9536 54.4309C89.9536 66.0211 89.9536 77.6114 89.9536 89.2966C96.8571 88.6949 103.602 88.0933 110.664 87.4599ZM66.7415 91.3867C68.2615 91.26 69.4332 91.165 70.6049 91.07C75.45 90.6267 80.2951 90.1516 85.1402 89.7716C86.2802 89.6766 86.5336 89.265 86.5336 88.1566C86.5019 77.548 86.5019 66.9395 86.5019 56.3626C86.5019 55.9826 86.4702 55.6342 86.4386 55.2542C86.3436 55.2225 86.2802 55.1909 86.1852 55.1909C79.7251 67.1611 73.2966 79.1314 66.7415 91.3867Z" stroke="white"/>
<path d="M1 118.842C1.50668 118.842 2.01336 118.81 2.5517 118.81C41.9142 118.81 81.2768 118.81 120.671 118.81C121.241 118.81 121.843 118.81 122.508 118.81C122.508 119.951 122.508 120.964 122.508 122.104C122.159 122.136 121.779 122.199 121.399 122.199C81.4351 122.199 41.4709 122.199 1.50668 122.199C1.34834 122.199 1.19 122.199 1.03167 122.167C1 121.059 1 119.951 1 118.842Z" stroke="white"/>
<path d="M38.5259 17.57C41.4393 18.33 43.4343 19.9134 44.226 22.7951C45.3977 27.0385 42.2943 31.5353 37.8926 31.5986C28.994 31.7253 20.0955 31.6936 11.197 31.5986C7.65021 31.567 4.48347 29.0019 3.43845 25.6135C2.36176 22.1618 3.56512 18.33 6.54185 16.24C7.42854 15.6066 7.74521 15.0049 7.77688 13.8649C7.93522 9.20981 10.1836 5.75807 14.4904 3.98469C18.7655 2.21132 22.7872 2.93967 26.3023 6.01141C26.904 6.51809 27.4107 6.73976 28.2023 6.67642C34.1558 6.20141 38.7792 10.6348 38.5259 16.62C38.5259 16.9367 38.5259 17.2217 38.5259 17.57ZM33.4908 20.9584C33.9025 20.0717 34.2191 19.3434 34.5358 18.6467C35.5808 16.335 35.3592 14.1499 33.7125 12.2182C32.0024 10.2548 29.7857 9.55815 27.284 10.3815C26.144 10.7615 25.5739 10.5082 24.8773 9.58982C22.8505 6.96143 20.0955 5.97974 16.8971 6.80309C13.7937 7.59478 11.7986 9.68482 11.3236 12.8832C11.102 14.4033 11.5136 15.9866 11.6403 17.6333C10.9753 17.8867 10.0886 18.1717 9.29691 18.5834C7.33354 19.5967 6.28851 21.4968 6.54185 23.5551C6.79519 25.7718 8.28356 27.5452 10.3419 28.0836C11.102 28.2736 11.8936 28.3369 12.6853 28.3369C20.6022 28.3686 28.519 28.3369 36.4042 28.3369C36.7842 28.3369 37.1959 28.3369 37.5759 28.3052C39.6659 28.0202 41.186 26.3735 41.0593 24.5052C40.9326 22.5101 39.3176 21.0217 37.1325 20.9901C36.0242 20.9267 34.8841 20.9584 33.4908 20.9584Z" stroke="white"/>
<path d="M65.8548 41.6371C63.1314 41.6371 60.408 41.7005 57.6846 41.6055C54.4545 41.4788 52.1428 39.8321 50.9394 36.8237C49.7677 33.9103 50.2427 31.1236 52.4594 28.8119C54.6762 26.4685 57.3996 25.9301 60.503 26.7535C61.1046 26.9118 61.7697 26.8168 62.3713 26.7851C63.6697 26.6901 64.9364 26.5951 66.2348 26.4685C66.7731 26.4051 67.4064 26.3418 67.7865 26.0251C72.8849 21.8767 80.5484 24.4418 82.0685 30.8386C83.3351 36.1587 79.4084 41.4155 73.9299 41.6055C71.2382 41.7005 68.5465 41.6371 65.8548 41.6371ZM68.1665 30.9652C67.6281 30.7119 67.2164 30.4902 66.8048 30.2686C65.4747 29.6035 64.0814 29.5719 62.8463 30.4269C61.833 31.1236 61.1046 31.1552 60.0596 30.4269C58.6029 29.4135 56.7029 29.6669 55.3095 30.8069C53.9795 31.8836 53.4411 33.657 53.9478 35.3037C54.5178 37.172 56.1962 38.3121 58.5396 38.3121C63.3214 38.3437 68.1031 38.3121 72.8849 38.3121C73.4866 38.3121 74.0566 38.2487 74.6583 38.1221C77.445 37.5204 79.25 34.702 78.7117 31.8203C78.1734 29.0335 75.4816 27.1335 72.6949 27.5135C70.5732 27.7985 69.3065 29.1919 68.1665 30.9652Z" stroke="white"/>
<path d="M115.256 18.1399C115.256 23.7134 110.822 28.1468 105.217 28.1151C99.6438 28.0835 95.2421 23.65 95.2737 18.0766C95.3054 12.5348 99.7072 8.16467 105.249 8.16467C110.854 8.13301 115.256 12.5348 115.256 18.1399ZM105.281 24.7267C108.859 24.695 111.836 21.7183 111.867 18.1399C111.899 14.5298 108.827 11.4581 105.217 11.4897C101.639 11.5214 98.6621 14.4981 98.6305 18.0766C98.6305 21.6866 101.702 24.7584 105.281 24.7267Z" stroke="white"/>
<path d="M53.6312 84.4514C53.6312 85.5914 53.6312 86.6048 53.6312 87.3331C50.0211 88.3465 46.601 89.5499 43.0859 90.2782C39.4125 91.0382 35.6758 90.7532 32.1607 89.2332C27.5056 87.2381 22.8822 87.2698 18.2587 89.2649C16.0103 90.2149 13.667 90.7215 11.1336 90.5315C11.1336 89.4549 11.1336 88.4098 11.1336 87.2065C14.332 87.3015 17.087 85.8131 20.0321 85.0214C24.4655 83.8181 28.8673 84.1347 33.1424 85.9081C37.3858 87.6815 41.6609 87.6182 45.936 85.8764C48.3427 84.9264 50.8445 84.1981 53.6312 84.4514Z" stroke="white"/>
<path d="M48.6277 101.077C48.6277 102.185 48.6277 103.199 48.6277 103.959C45.0177 104.972 41.5342 106.175 37.9875 106.904C34.3458 107.664 30.6723 107.347 27.1573 105.859C22.5022 103.864 17.8787 103.895 13.2236 105.89C10.9752 106.84 8.63185 107.347 6.09846 107.157C6.09846 106.08 6.09846 105.035 6.09846 104.339C8.98019 103.484 11.7352 102.629 14.4903 101.837C18.8921 100.539 23.2622 100.665 27.5056 102.375C32.224 104.307 36.8791 104.307 41.5659 102.312C43.751 101.362 46.0627 100.887 48.6277 101.077Z" stroke="white"/>
<path d="M92.0753 7.21479C92.8036 6.48644 93.5636 5.75809 94.387 4.93474C94.9887 5.69475 95.6853 6.5181 96.382 7.37312C95.812 7.91147 95.052 8.67149 94.292 9.39984C93.627 8.70315 92.8353 7.94314 92.0753 7.21479Z" stroke="white"/>
<path d="M114.021 7.02472C114.623 6.42304 115.383 5.66302 116.079 4.96634C116.871 5.75803 117.631 6.51804 118.391 7.30973C117.726 7.97474 116.966 8.70309 116.111 9.52644C115.478 8.76643 114.781 7.91141 114.021 7.02472Z" stroke="white"/>
<path d="M94.6087 26.9434C95.147 27.4818 95.907 28.2418 96.6354 28.9702C95.8437 29.7302 95.052 30.4902 94.292 31.2185C93.627 30.5535 92.8986 29.7935 92.0753 28.9385C92.8036 28.3685 93.6586 27.7035 94.6087 26.9434Z" stroke="white"/>
<path d="M113.989 28.8752C114.623 28.2102 115.383 27.4818 116.111 26.7218C116.903 27.5452 117.631 28.3052 118.359 29.0969C117.694 29.7619 116.934 30.4902 116.111 31.3136C115.478 30.5852 114.749 29.7619 113.989 28.8752Z" stroke="white"/>
<path d="M106.927 4.30132C105.724 4.30132 104.742 4.30132 103.666 4.30132C103.666 3.22463 103.666 2.17961 103.666 1.00792C104.552 1.00792 105.407 0.976249 106.262 1.03958C106.484 1.07125 106.864 1.41959 106.896 1.64126C106.991 2.49628 106.927 3.3513 106.927 4.30132Z" stroke="white"/>
<path d="M88.1487 19.7867C88.1487 18.7733 88.0853 17.9183 88.1803 17.0633C88.212 16.8416 88.6553 16.4932 88.9087 16.4616C89.7004 16.3666 90.4604 16.4299 91.4737 16.4299C91.4737 17.4116 91.5054 18.3616 91.4421 19.28C91.4104 19.47 90.967 19.755 90.7137 19.7867C89.9537 19.85 89.162 19.7867 88.1487 19.7867Z" stroke="white"/>
<path d="M122.191 19.7867C121.336 19.7867 120.449 19.8184 119.531 19.7551C119.341 19.7551 119.056 19.4384 119.024 19.28C118.961 18.5517 118.961 17.7917 119.024 17.0317C119.056 16.81 119.373 16.62 119.563 16.4616C119.594 16.43 119.721 16.4616 119.784 16.43C122.476 16.24 122.824 16.715 122.191 19.7867Z" stroke="white"/>
<path d="M103.666 35.1454C103.666 34.037 103.666 33.0236 103.666 31.947C104.742 31.947 105.756 31.947 106.864 31.947C106.864 32.992 106.864 34.037 106.864 35.1454C105.787 35.1454 104.806 35.1454 103.666 35.1454Z" stroke="white"/>
</svg>
