<svg width="150" height="150" viewBox="0 0 150 150" fill="none" xmlns="http://www.w3.org/2000/svg">
<g clip-path="url(#clip0_1174_1372)">
<path d="M101.172 61.9922C101.094 65 100.977 68.0469 101.211 71.0547C101.367 72.9297 101.484 74.7266 101.25 76.6406C100.898 79.6875 100.938 82.8906 101.25 85.9766C101.406 87.7734 101.406 89.4922 101.25 91.2891C100.938 94.4141 100.938 97.6562 101.25 100.781C101.445 102.617 101.484 104.297 101.211 106.094C100.898 108.242 101.016 110.469 101.133 112.656C101.211 114.375 101.562 116.094 101.797 117.812C101.836 118.086 101.758 118.359 101.719 118.633C101.523 119.766 101.172 120.898 101.133 122.031C101.055 124.844 101.094 127.656 101.094 130.625C100.391 130.625 99.8828 130.625 99.3359 130.625C94.9609 130.625 90.5469 130.625 86.1719 130.625C77.1875 130.625 68.2031 130.625 59.2188 130.664C57.8906 130.664 57.4219 130.273 57.5 128.906C57.6172 126.719 57.5391 124.492 57.5391 122.305C57.5391 120.312 57.5391 120.312 59.4531 120.312C68.125 120.273 76.8359 120.312 85.5078 120.273C86.7969 120.273 87.5391 120.43 87.4609 121.992C87.4219 123.242 88.4375 124.102 89.6094 124.102C90.8594 124.102 91.7578 123.242 91.8359 121.875C91.875 121.523 91.9531 121.172 91.8359 120.859C91.1328 119.023 91.5625 117.227 91.7578 115.312C92.0703 112.266 92.0703 109.141 91.7578 106.094C91.5625 104.219 91.5625 102.539 91.7578 100.664C92.1094 97.5781 91.9141 94.4141 91.8359 91.2891C91.7969 88.8672 90.0391 86.9141 87.6562 86.5234C86.5625 86.3672 85.3906 86.3281 84.2969 86.4062C83.6328 86.4453 82.9687 86.4453 82.4219 86.3281H58.7109C55.1953 86.4062 53.2031 88.4375 53.1641 91.9141C53.1641 94.5312 52.9688 97.1875 53.2422 99.8047C53.5156 102.109 53.5547 104.375 53.2422 106.68C52.9688 108.672 53.0859 110.781 53.2031 112.812C53.2812 114.414 53.6328 116.055 53.8672 117.656C53.9062 117.93 53.8281 118.203 53.7891 118.477C53.5937 119.609 53.2422 120.742 53.2031 121.875C53.125 124.687 53.1641 127.5 53.1641 130.352C49.9219 130.352 46.7969 130.352 43.5937 130.352C43.5937 129.766 43.6328 129.258 43.5937 128.789C43.2812 125.234 44.375 121.562 42.8125 118.086C44.2969 114.648 43.3203 110.977 43.5937 107.422C43.6328 106.953 43.6328 106.445 43.5937 105.977C43.4766 103.281 41.4062 101.133 38.7109 101.133C29.0625 101.094 19.4531 101.094 9.84375 101.133C7.42188 101.133 5.11719 102.891 5.03906 105.234C4.92187 109.375 4.17969 113.594 5.58594 117.695C5.66406 117.852 5.74219 118.086 5.66406 118.242C4.10156 121.719 5.19531 125.391 4.88281 128.945C4.84375 129.453 4.88281 130 4.88281 130.547C3.04688 130.547 1.28906 130.273 0.195312 131.953C0.195312 132.539 0.195312 133.125 0.15625 133.867C1.05469 134.922 2.1875 135.156 3.51562 135.156C49.4141 135.117 95.3125 135.117 141.211 135.117C141.562 135.117 141.875 135.156 142.227 135.117C143.594 135.039 144.492 134.18 144.531 132.969C144.57 131.758 143.633 130.82 142.305 130.703C141.523 130.664 140.781 130.703 139.883 130.703C139.883 130.039 139.922 129.57 139.883 129.102C139.57 125.547 140.703 121.875 139.102 118.398C140.469 114.922 139.688 111.289 139.883 107.734C139.922 107.344 140 106.914 139.883 106.562C139.219 104.492 139.57 102.5 139.805 100.391C140.117 97.5391 140.156 94.6094 139.805 91.7578C139.57 89.6484 139.57 87.6953 139.805 85.5859C140.156 82.7734 140.195 79.8828 139.805 77.1094C139.492 74.9219 139.648 72.8516 139.844 70.6641C140.078 67.9297 139.922 65.1953 139.883 62.4609C139.883 59.6094 138.281 57.6172 135.703 57.1484H105.156C102.852 57.6172 101.25 59.4922 101.172 61.9922ZM87.5 114.297C87.5391 115.469 87.1094 115.82 85.9766 115.82C81.4844 115.781 76.9922 115.82 72.5 115.82C68.0859 115.82 63.6328 115.781 59.1797 115.82C58.0078 115.859 57.5391 115.508 57.5781 114.258C57.6562 111.836 57.6562 109.375 57.5781 106.953C57.5391 105.859 57.9688 105.508 59.0234 105.508C67.9688 105.547 76.9531 105.547 85.9375 105.508C87.0703 105.508 87.5391 105.82 87.5 106.992C87.4219 109.414 87.4219 111.875 87.5 114.297ZM57.5781 99.4531C57.6562 97.0312 57.6172 94.5703 57.5781 92.1484C57.5781 91.1328 57.9297 90.7812 58.9453 90.7812C68.0078 90.7812 77.1094 90.7812 86.1719 90.7812C87.1875 90.7812 87.5391 91.1719 87.5391 92.1875C87.5 94.6094 87.4609 97.0703 87.5391 99.4922C87.5781 100.859 86.9922 101.133 85.7812 101.133C81.3281 101.094 76.9141 101.133 72.4609 101.133C68.0469 101.133 63.6719 101.094 59.2969 101.094C58.0469 101.133 57.5391 100.781 57.5781 99.4531ZM39.1797 114.336C39.2187 115.508 38.7109 115.859 37.6172 115.82C35.7812 115.781 33.9062 115.781 32.0703 115.82C30.3906 115.859 29.4141 116.719 29.4531 118.125C29.4922 119.453 30.4297 120.234 32.0703 120.234C33.9844 120.273 35.8594 120.273 37.7734 120.234C38.7891 120.195 39.1797 120.586 39.1797 121.602C39.1406 124.102 39.1016 126.562 39.1797 129.062C39.2187 130.234 38.7891 130.547 37.6562 130.547C33.1641 130.508 28.6719 130.547 24.1797 130.547C19.7656 130.547 15.3125 130.508 10.7812 130.586C9.60938 130.586 9.14062 130.234 9.17969 128.984C9.25781 126.562 9.25781 124.18 9.17969 121.797C9.14062 120.547 9.64844 120.195 10.8203 120.234C14.0234 120.273 17.1875 120.234 20.3516 120.234C22.1094 120.234 23.0469 119.453 23.0859 118.086C23.125 116.68 22.1094 115.82 20.3125 115.82C17.1094 115.781 13.8672 115.781 10.6641 115.82C9.60937 115.82 9.17969 115.469 9.21875 114.375C9.25781 111.875 9.25781 109.414 9.21875 106.914C9.17969 105.781 9.64844 105.508 10.7031 105.508C19.6875 105.547 28.6719 105.547 37.6562 105.508C38.8281 105.508 39.2187 105.859 39.1797 107.031C39.1016 109.453 39.1016 111.914 39.1797 114.336ZM135.547 128.984C135.586 130.195 135.156 130.586 133.945 130.586C129.492 130.508 125.078 130.547 120.625 130.547C116.172 130.547 111.758 130.508 107.344 130.586C105.977 130.625 105.586 130.156 105.625 128.828C105.703 126.484 105.664 124.141 105.625 121.797C105.586 120.664 105.938 120.234 107.109 120.234C116.094 120.273 125.039 120.273 134.023 120.234C135.195 120.234 135.586 120.664 135.547 121.797C135.508 124.219 135.469 126.602 135.547 128.984ZM105.586 77.3828C105.586 76.3672 105.937 75.9375 106.953 75.9766C108.203 76.0156 109.492 76.0156 110.742 75.9766C112.148 75.9375 113.008 75.0781 113.008 73.8281C113.008 72.5781 112.148 71.6797 110.781 71.6016C109.531 71.5625 108.242 71.5625 106.992 71.6016C106.016 71.6406 105.547 71.3281 105.586 70.2734C105.625 67.7734 105.664 65.3125 105.586 62.8125C105.586 61.6797 105.938 61.2891 107.109 61.2891C111.602 61.3672 116.094 61.3281 120.586 61.3281C125 61.3281 129.453 61.3672 133.867 61.3281C135.039 61.2891 135.547 61.6406 135.508 62.8906C135.43 65.3125 135.43 67.6953 135.508 70.0781C135.547 71.3281 135.039 71.6797 133.867 71.6797C129.883 71.6016 125.859 71.6406 121.875 71.6406C120.625 71.6406 119.648 72.0312 119.297 73.3203C118.906 74.7656 119.961 76.0156 121.68 76.0156C125.586 76.0156 129.492 76.0156 133.398 76.0156C135.508 76.0156 135.508 76.0156 135.508 78.125C135.508 80.3516 135.469 82.6172 135.508 84.8437C135.508 85.8984 135.156 86.3281 134.062 86.3281C125.039 86.2891 116.016 86.3281 106.992 86.3281C106.055 86.3281 105.547 86.0547 105.586 85C105.625 82.4609 105.625 79.9219 105.586 77.3828ZM105.586 92.2656C105.586 91.25 105.859 90.7812 106.992 90.7812C116.016 90.8203 125.039 90.8203 134.062 90.7812C135.117 90.7812 135.586 91.1328 135.547 92.2266C135.508 94.6484 135.469 97.1094 135.547 99.5312C135.586 100.781 135.078 101.133 133.906 101.133C129.414 101.094 124.922 101.133 120.43 101.133C116.016 101.133 111.641 101.094 107.266 101.094C105.977 101.133 105.547 100.664 105.586 99.4141C105.664 97.0312 105.625 94.6484 105.586 92.2656ZM106.992 105.547C111.484 105.547 115.977 105.547 120.469 105.547C124.961 105.547 129.414 105.547 133.945 105.508C135.156 105.508 135.586 105.898 135.547 107.109C135.469 109.531 135.508 111.914 135.547 114.297C135.547 115.391 135.195 115.859 134.023 115.859C125.078 115.82 116.094 115.82 107.109 115.859C106.055 115.859 105.547 115.625 105.586 114.492C105.625 111.953 105.625 109.414 105.586 106.875C105.586 105.82 106.016 105.547 106.992 105.547Z" fill="#123D83" stroke="white" stroke-width="2" stroke-miterlimit="10"/>
<path d="M80.625 84.4922C80.5469 84.1797 80.2735 83.9063 80 83.711C79.1016 83.086 79.2188 82.3438 79.4531 81.4063C80.3516 78.0469 81.1719 74.6875 82.0313 71.3282C83.125 66.875 81.7578 63.6328 77.7735 61.3282C75.3516 59.9219 72.8906 58.5157 70.4297 57.0703C71.1328 54.8828 71.7969 52.7735 72.5 50.5469C73.6719 51.1719 74.6485 51.6797 75.625 52.2266C79.6094 54.336 83.2813 53.75 86.3281 50.3907C89.6875 46.6797 92.8906 42.8906 96.4063 39.336C100.273 35.3906 99.6875 32.5782 95.8594 29.4922C93.5547 27.6953 91.4844 26.3672 89.0235 27.8516C87.8906 27.461 87.1485 27.0313 86.4063 26.9922C85.0781 26.9141 84.375 28.0469 84.4141 29.6485C84.4531 30.7422 84.6875 32.1094 84.1406 32.8516C82.5781 34.961 80.7031 36.836 78.9063 38.7891C78.5547 38.6328 78.2813 38.5547 78.0469 38.3985C75.8594 37.2266 73.711 36.0156 71.211 34.6485C71.5625 34.4922 71.7578 34.4532 71.9141 34.336C74.2969 32.5782 75.0781 30.2735 74.375 27.3828C74.0235 25.9375 73.75 24.5313 73.4375 23.086C72.3438 18.125 67.461 14.961 62.461 15.9766C57.5781 16.9922 54.2188 21.836 55.2735 26.7188C55.6641 28.5157 56.7188 30.2344 57.3828 31.7578C52.0313 32.6172 46.3672 33.4766 40.7031 34.375C36.9141 34.961 34.2578 37.6172 33.8281 41.4844C33.125 47.8125 32.5 54.1797 31.9141 60.5469C31.6797 63.0469 33.4766 65.1563 35.9375 65.4297C37.1094 65.5469 38.2813 65.6641 39.4531 65.7032C42.7344 65.8594 43.8672 65.1172 45.1953 62.1094C45.7422 62.0703 46.25 62.0313 46.9141 61.9532C46.6406 62.5 46.4844 62.8906 46.2891 63.2422C44.6094 66.4063 42.8906 69.5313 41.2891 72.6953C40.8203 73.5938 40.2344 73.9063 39.2578 73.9453C34.336 74.1797 29.4141 74.4141 24.4922 74.7657C21.6406 75 19.6875 76.6016 18.8281 79.336C18.2422 81.1719 17.8125 83.0078 17.461 84.8828C16.7969 88.3985 18.75 91.5235 22.0703 92.5C25.2735 93.4375 28.6328 91.875 30 88.6719C30.3125 87.8907 30.7031 87.6563 31.4844 87.6172C35.7422 87.4219 40.0391 87.1094 44.336 86.9141C46.9531 86.7969 49.0625 85.7032 50.6641 83.711C51.3672 82.8516 52.0313 81.9532 52.6563 81.0157C55 77.4219 57.3047 73.7891 59.6094 70.1563C60.1953 69.2188 60.8985 68.5547 61.9922 68.9453C64.1016 69.6875 66.1719 70.586 68.2813 71.4063C67.0313 76.4063 65.8203 81.2891 64.5703 86.3282C62.6953 86.3282 60.7031 86.2891 58.711 86.3282H82.4219C81.6016 86.1328 80.9766 85.625 80.625 84.4922ZM91.4063 31.6407C92.5 32.6172 93.5547 33.5157 94.7266 34.5313C93.6328 35.7422 92.6172 36.836 91.5235 38.0469C90.3906 37.0313 89.336 36.1328 88.2031 35.1563C89.2969 33.9453 90.3125 32.8516 91.4063 31.6407ZM60.3906 22.2657C61.5235 20.7032 63.125 20.0782 65 20.3125C66.7969 20.5469 68.1641 21.4844 68.711 23.2032C69.336 25.1172 69.7656 27.0703 70.1563 29.0235C70.3516 30 69.7266 30.6641 68.75 30.8985C66.0547 31.5235 66.0156 31.5625 65.5469 34.2188C65.4688 34.7266 65.3516 35.2344 65.1953 35.9766C64.1016 35.7422 63.1641 35.586 62.0703 35.4297C62.2656 34.2969 62.3438 33.2813 62.6172 32.3047C63.0078 30.8594 62.5391 29.9219 61.4063 29.0235C59.1797 27.2657 58.7891 24.4532 60.3906 22.2657ZM40.7422 61.4063C39.2969 61.2891 37.9297 61.211 36.3672 61.0938C36.4844 59.4922 36.6406 58.0078 36.7969 56.3672C38.3594 56.4844 39.6875 56.5625 41.211 56.7188C41.0547 58.2813 40.8985 59.7266 40.7422 61.4063ZM44.4922 42.6563C43.2031 42.9297 42.5391 43.8282 42.4219 45.1563C42.1875 47.4219 41.9531 49.7266 41.6797 52.1875C40.2344 52.1094 38.8281 51.9922 37.2266 51.875C37.6172 48.2813 37.8906 44.7657 38.3985 41.25C38.5938 39.8828 39.7266 38.9844 41.1328 38.75C45.9375 37.9297 50.7813 37.1485 55.586 36.4063C56.7578 36.211 57.9297 36.1719 58.3594 37.7344C58.4766 38.2032 58.9844 38.5938 59.4141 38.9063C61.9141 40.7422 66.6797 40.586 69.0625 38.5157C71.836 40 74.6094 41.5235 77.3828 43.0469C79.4531 44.1406 80.0781 44.0625 81.6797 42.2656C82.8516 40.9766 84.0235 39.6875 85.2344 38.3594C86.3672 39.336 87.3828 40.2344 88.5938 41.2891C86.4063 43.6719 84.336 46.0547 82.0703 48.2422C80.9766 49.2969 79.4531 49.2188 78.086 48.4766C76.3672 47.5782 74.6485 46.6016 72.9297 45.7032C70.8985 44.6485 69.4531 45.2344 68.75 47.4219C68.0078 49.8047 67.2656 52.1875 66.5625 54.5703C66.3281 55.3125 66.0547 55.8594 65.1172 55.9375C61.0547 56.2891 56.9922 56.7188 52.7735 57.1485C52.1094 53.3594 52.3438 49.8047 53.125 46.1328C53.2031 45.6641 53.3594 45.1953 53.4375 44.7266C53.7891 42.9297 52.5 41.4844 50.7031 41.6797C48.6328 41.9141 46.5625 42.2656 44.4922 42.6563ZM45.8985 53.6328C46.1328 51.836 46.3672 50.0391 46.4453 48.2422C46.5235 46.9532 46.9922 46.4453 48.2031 46.7188C48.2031 51.0938 48.2031 55.3516 48.1641 59.7657C47.8125 59.2188 47.6563 58.6328 47.3047 58.3985C45.5078 57.1875 45.6641 55.4688 45.8985 53.6328ZM77.7735 70.1953C76.7969 74.0235 75.8203 77.8516 74.8438 81.6797C74.2188 84.1797 74.2578 84.375 75.8203 86.25C73.6328 86.25 71.5235 86.25 69.2188 86.25C69.2969 85.625 69.375 85.1172 69.4922 84.6094C70.5469 80.4688 71.6016 76.2891 72.6563 72.1485C73.3594 69.4532 72.8906 68.4766 70.3516 67.5C68.2813 66.6797 66.25 65.8594 64.2188 65.0782C60.7031 63.711 57.9297 64.6094 55.8985 67.7735C53.5156 71.5235 51.0938 75.2344 48.75 79.0235C47.3047 81.3672 45.5078 82.6953 42.5781 82.6953C38.2422 82.7344 33.9063 83.125 29.5703 83.3594C27.5 83.4375 26.7578 84.0235 26.211 86.0938C25.7422 87.8516 24.7266 88.6719 23.3594 88.3203C22.0703 87.9688 21.4844 86.7969 21.875 85.1172C22.1875 83.7891 22.5391 82.461 22.8516 81.1328C23.125 79.8828 23.8672 79.2188 25.1953 79.1407C30.2344 78.8672 35.2344 78.5157 40.2735 78.3594C42.4219 78.3203 43.7891 77.5782 44.7656 75.586C46.9141 71.25 49.2969 67.0703 51.5235 62.7735C51.9141 61.9922 52.3828 61.6407 53.2813 61.5625C57.5391 61.1719 61.836 60.6641 66.0938 60.2735C66.6406 60.2344 67.2656 60.4297 67.7344 60.7031C70.3906 62.1485 73.0078 63.6719 75.625 65.1953C77.8125 66.4453 78.3985 67.7735 77.7735 70.1953Z" fill="#19918E" stroke="white" stroke-width="2" stroke-miterlimit="10"/>
<path d="M124.375 57.0312C123.867 57.0312 123.359 57.0312 122.695 57.0312C122.695 53.3594 122.734 49.8828 122.656 46.4453C122.656 45.3906 123.008 44.9609 124.023 44.6484C131.641 42.2266 139.219 39.7266 146.836 37.2656C149.102 36.5234 150.156 35.3516 150.156 33.5547C150.156 31.7578 149.102 30.5469 146.875 29.8047C138.633 27.1094 130.352 24.4141 122.109 21.7578C119.375 20.8594 118.242 21.6797 118.242 24.5703C118.242 34.8047 118.242 45 118.242 55.1953C118.242 55.7812 118.242 56.3281 118.242 57.0312C117.539 57.0312 117.031 57.0312 116.484 57.0312C113.086 57.0312 109.648 56.9922 106.25 57.0312C105.859 57.0312 105.508 57.0703 105.156 57.1484H135.703C135.312 57.0703 134.922 57.0312 134.492 57.0312C131.094 56.9922 127.734 57.0312 124.375 57.0312ZM122.812 26.4844C129.844 28.75 136.758 31.0156 144.102 33.3984C136.797 35.7422 129.883 37.9687 122.812 40.2734C122.812 35.625 122.812 31.1328 122.812 26.4844Z" fill="#19918E" stroke="white" stroke-width="2" stroke-miterlimit="10"/>
</g>
<defs>
<clipPath id="clip0_1174_1372">
<rect width="150" height="150" fill="white"/>
</clipPath>
</defs>
</svg>
