<svg width="129" height="129" viewBox="0 0 129 129" fill="none" xmlns="http://www.w3.org/2000/svg">
<path d="M62.6524 8.39844C62.6524 7.72656 62.6188 7.05469 62.6524 6.38281C62.7196 5.17344 63.5258 4.40078 64.6344 4.36719C65.743 4.36719 66.6164 5.13984 66.65 6.31562C66.7172 7.69297 66.7172 9.07031 66.65 10.4477C66.6164 11.657 65.743 12.3961 64.6344 12.3961C63.4922 12.3625 62.7196 11.6234 62.6524 10.3805C62.6188 9.74219 62.6524 9.07031 62.6524 8.39844Z" fill="#19918E" stroke="white" stroke-width="1.25" stroke-miterlimit="10"/>
<path d="M53.2461 7.59221C54.993 7.55862 58.7555 11.1532 58.5539 12.4297C58.4532 13.0344 58.0164 13.8071 57.5125 14.1094C57.0086 14.3782 56.0008 14.3782 55.5641 14.0422C54.2875 13.0344 53.1118 11.8922 52.104 10.6157C51.768 10.1789 51.768 9.20471 52.0368 8.66721C52.2719 8.12971 53.011 7.79378 53.2461 7.59221Z" fill="#19918E" stroke="white" stroke-width="1.25" stroke-miterlimit="10"/>
<path d="M72.4617 14.5797C72.025 14.2102 71.2523 13.8406 70.9836 13.2359C70.7484 12.6984 70.782 11.7242 71.1516 11.2875C72.0922 10.0781 73.2344 9.00313 74.3765 7.99531C75.1492 7.32344 76.0898 7.39063 76.8961 8.0625C77.6351 8.70078 77.9375 9.70859 77.3328 10.4141C76.1906 11.7914 74.8469 12.9672 73.5367 14.1766C73.3687 14.4117 72.9992 14.4117 72.4617 14.5797Z" fill="#19918E" stroke="white" stroke-width="1.25" stroke-miterlimit="10"/>
<path d="M106.055 56.7735C105.82 56.8407 105.518 56.9079 105.182 56.975C101.923 57.8821 99.8406 59.9985 99.1687 63.4922L96.4476 75.8211V75.8883C95.9437 78.2399 95.4398 80.5914 94.9023 82.943C94.8351 83.1782 94.5999 83.5141 94.3984 83.5813L76.4929 89.8969C75.9554 88.318 75.5187 87.1086 75.1492 85.8657C75.082 85.5969 75.2499 85.1266 75.4515 84.925C78.5085 82.1032 80.2218 78.6094 80.7257 74.4774C80.7257 74.3766 80.7593 74.3094 80.7929 74.2086C80.7929 74.2086 80.2218 68.8672 79.5835 66.4485C73.4695 53.6829 55.9335 53.6493 49.7859 66.4485C49.7859 66.4485 48.4757 70.8829 48.6437 74.6454C48.6773 74.7797 48.7109 74.9477 48.7109 75.0821C49.2148 78.8446 50.8609 82.036 53.6156 84.6227C54.1867 85.1602 54.3546 85.5969 54.0523 86.336C53.6492 87.3774 53.3132 88.486 52.8429 89.8633L35.6765 83.85C35.4413 83.7829 35.2062 83.6821 35.0046 83.6149C34.8031 83.5477 34.5343 83.2789 34.4671 83.0438C33.8288 80.2891 33.2578 77.5008 32.6531 74.7461L30.5703 64.9032C30.5031 64.6344 30.4359 64.3657 30.4023 64.1305C29.764 60.8719 28.2187 58.1172 24.8593 57.3446C24.6242 57.2774 24.4226 57.2438 24.221 57.143C24.221 57.143 20.996 57.0422 18.2749 57.8821C15.0835 60.2336 13.9078 63.2235 14.6468 66.986C16.696 77.6352 18.7117 88.318 20.8281 98.9672C20.9624 99.7399 21.6343 100.647 22.3062 101.117C27.4124 104.779 32.5859 108.373 37.7593 111.968C38.3976 112.405 38.6328 112.841 38.6328 113.614C38.5992 116.705 38.5656 119.829 38.6663 122.92C38.6999 123.591 39.1031 124.498 39.6406 124.902C40.9507 125.842 42.5968 124.801 42.6304 123.054C42.664 120.467 42.6304 117.881 42.6304 115.294C44.4781 114.991 45.4187 113.883 44.8812 112.606C44.6124 112.002 44.0413 111.464 43.4703 111.061C37.5242 106.862 31.5109 102.696 25.5648 98.4633C25.0945 98.1274 24.6242 97.5563 24.5234 97.0188C22.5078 86.7391 20.5593 76.4258 18.5773 66.1461C18.0734 63.4922 19.3835 61.275 21.7015 60.8383C23.9859 60.4352 25.9007 61.9469 26.4718 64.6008C27.8828 71.1852 29.3609 77.7696 30.7046 84.3875C31.0406 85.9329 31.7796 86.7391 33.2578 87.243C41.757 90.0649 50.2562 92.954 58.7554 95.8094C59.5281 96.0782 59.8304 96.3469 59.696 97.2204C58.7218 103.603 57.7812 109.986 56.807 116.369C56.639 117.41 56.8406 118.25 57.6132 118.989C59.3937 120.77 61.1742 122.55 62.9546 124.331C64.2648 125.607 65.239 125.641 66.5156 124.364C68.296 122.584 70.0429 120.77 71.857 119.023C72.6632 118.25 72.8984 117.41 72.6968 116.302C72.2937 113.984 71.9913 111.632 71.6218 109.18C73.9398 109.18 76.1234 109.18 78.307 109.18C79.9195 109.146 80.7929 108.407 80.7929 107.131C80.7593 105.854 79.8859 105.148 78.2734 105.148C75.8546 105.148 73.4695 105.148 70.9835 105.148C70.5132 102.159 70.0765 99.2024 69.6398 96.2125C70.1437 96.0446 70.446 95.9438 70.9163 95.843C79.4156 92.9875 87.9148 90.0985 96.414 87.2766C97.8249 86.8063 98.6648 86.0336 98.8663 84.4883C99.1015 82.9766 99.5046 81.4649 99.8406 79.9532C100.949 74.7461 102.058 69.5391 103.2 64.3321C103.872 61.3758 106.727 59.9649 109.146 61.3422C110.691 62.2157 111.464 64.0633 111.061 66.1461C109.112 76.2243 107.13 86.3024 105.249 96.4141C105.048 97.5563 104.577 98.2618 103.637 98.9C97.7578 102.965 91.946 107.063 86.1007 111.162C85.1937 111.8 84.3874 112.438 84.6898 113.715C84.9585 114.857 85.832 115.26 87.0078 115.327C87.0078 117.847 87.0078 120.299 87.0078 122.785C87.0078 124.398 87.7468 125.271 89.0234 125.271C90.2999 125.238 91.039 124.364 91.039 122.752C91.039 119.728 91.0726 116.705 91.0054 113.681C90.9718 112.841 91.2406 112.405 91.9124 111.934C97.0187 108.407 102.091 104.813 107.198 101.285C108.172 100.613 108.709 99.8407 108.911 98.6649C110.355 90.9383 111.867 83.2454 113.345 75.5524C113.883 72.8313 114.353 70.1102 114.924 67.3891C115.73 63.4922 114.723 60.2672 111.397 57.8485C111.397 57.8485 107.702 56.3368 106.055 56.7735ZM67.6242 117.545C66.6499 118.452 65.7765 119.459 64.8359 120.467C61.8124 118.216 60.3679 115.932 61.3085 112.17C62.4843 107.298 62.921 102.226 63.6601 97.1868C64.2984 97.1868 64.9031 97.1868 65.6757 97.1868C65.9781 99.2696 66.314 101.386 66.6499 103.536C67.221 107.433 67.7921 111.33 68.3968 115.227C68.5648 116.201 68.3632 116.873 67.6242 117.545ZM56.8406 90.7032C57.1765 89.6954 57.5124 88.6539 57.9492 87.5118C62.4507 89.4938 66.8851 89.4938 71.4538 87.5118C71.8234 88.6539 72.1929 89.7289 72.5288 90.7032C67.3218 93.7602 62.1148 93.7266 56.8406 90.7032ZM64.5671 84.9922C57.9492 84.925 52.5406 79.4157 52.6078 72.7641C52.6413 66.1461 58.1507 60.7375 64.8023 60.8047C71.4202 60.8383 76.8288 66.3477 76.7617 72.9993C76.6945 79.6508 71.2187 85.0594 64.5671 84.9922Z" fill="#123D83" stroke="white" stroke-width="1.25" stroke-miterlimit="10"/>
<path d="M106.055 56.7734C105.753 56.8406 105.451 56.9078 105.182 56.975C105.518 56.9078 105.82 56.8406 106.055 56.7734Z" fill="#19918E" stroke="white" stroke-width="0.25" stroke-miterlimit="10"/>
<path d="M31.5445 66.9524C31.0742 66.4149 30.7719 65.6758 30.5703 64.9031L32.6531 74.7125C32.7203 74.6789 32.7875 74.6453 32.8547 74.6117C36.2813 78.4414 39.6742 82.2375 43.0672 86.0672C43.0336 86.1344 42.9664 86.2016 42.9328 86.2688C40.5141 85.4625 38.0953 84.6563 35.6766 83.8164L52.843 89.8297C51.9695 89.2586 51.0625 88.8891 50.4578 88.2172C44.1086 81.1625 37.793 74.0742 31.5445 66.9524Z" fill="#19918E" stroke="white" stroke-width="1.25" stroke-miterlimit="10"/>
<path d="M78.9118 88.1836C78.3071 88.8554 77.4001 89.2586 76.493 89.8633L94.3985 83.5476C91.7446 84.4882 89.0571 85.3953 86.3696 86.3023C86.3024 86.2351 86.2688 86.1679 86.2352 86.1007C89.6618 82.2711 93.0548 78.4414 96.4813 74.5781C96.5485 74.6453 96.6157 74.6789 96.6829 74.7125C96.6157 75.082 96.5149 75.4851 96.4477 75.8547V75.7875L99.1688 63.4586C98.7993 65.3398 97.993 66.8515 96.7165 68.2625C90.7368 74.8804 84.8579 81.5656 78.9118 88.1836Z" fill="#19918E" stroke="white" stroke-width="1.25" stroke-miterlimit="10"/>
<path d="M119.863 47.9719C121.845 45.6203 121.744 42.9664 119.594 40.7492C113.043 33.9969 106.492 27.2445 99.9414 20.4922C98.6313 19.182 97.0524 18.4766 95.2047 18.4766C74.9813 18.4766 54.7242 18.4766 34.5008 18.4766C32.586 18.4766 30.9735 19.2156 29.6633 20.5594C23.0789 27.3453 16.5281 34.1312 9.94377 40.9172C8.02893 42.9328 7.89456 45.5867 9.60784 47.7703C10.1453 48.4758 10.75 49.1141 11.3211 49.7859C13.6391 52.4734 15.9571 55.1609 18.275 57.882C20.9961 57.0758 24.2211 57.143 24.2211 57.143C22.4742 56.5383 21.3656 55.3961 20.2235 54.0859C18.1742 51.6672 16.0914 49.3156 13.8406 46.6953C15.6211 46.6953 17.0992 46.6953 18.5438 46.6953C24.3891 46.6953 30.2344 46.6953 36.0461 46.6617C36.8188 46.6617 37.2219 46.8297 37.5242 47.6023C41.0852 56.1687 44.6797 64.7016 48.2406 73.2344C48.4422 73.6711 48.543 74.1414 48.6438 74.6117C48.4758 70.8492 49.786 66.4148 49.786 66.4148C47.0313 59.8305 44.3102 53.3469 41.5555 46.7625C57.0086 46.7625 72.2938 46.7625 87.8141 46.7625C85.0258 53.3469 82.3383 59.8305 79.5836 66.4148C80.2219 68.8336 80.793 74.175 80.793 74.175C80.8602 73.8391 80.9946 73.4695 81.1289 73.1336C84.6899 64.668 88.2508 56.2023 91.7781 47.7367C92.0469 47.0984 92.282 46.6617 93.1555 46.6617C100.345 46.7289 107.5 46.6953 114.689 46.6953C114.857 46.6953 115.025 46.6953 115.327 46.7289C115.092 47.0648 114.958 47.3336 114.756 47.5688C112.304 50.3906 109.885 53.2461 107.399 56.0344C107.063 56.4039 106.526 56.6727 106.055 56.7734C107.702 56.3367 111.397 57.8484 111.397 57.8484C111.699 57.4789 111.968 57.143 112.237 56.8406C114.756 53.8844 117.343 50.9617 119.863 47.9719ZM37.793 41.6227C37.3899 42.4289 36.9531 42.6977 36.0797 42.6977C28.7227 42.6641 21.3992 42.6641 13.7063 42.6641C16.461 39.8086 19.0477 37.1547 21.6008 34.5344C25.1281 30.8727 28.6555 27.2109 32.2836 23.6164C32.7875 23.0789 33.5938 22.5414 34.2992 22.5414C38.5656 22.4742 42.8321 22.5078 47.2328 22.5078C47.0313 22.9445 46.9305 23.2805 46.7625 23.6164C43.7727 29.6297 40.7492 35.6094 37.793 41.6227ZM41.8242 42.5969C41.9922 42.1937 42.1266 41.8242 42.2946 41.5555C45.2844 35.5422 48.3078 29.5625 51.2641 23.5492C51.6336 22.8102 52.0367 22.5078 52.8766 22.5078C60.7375 22.5414 68.5649 22.5078 76.4258 22.5078C77.0977 22.5078 77.568 22.5414 77.9375 23.2805C80.9946 29.5289 84.1188 35.7437 87.243 41.9586C87.3438 42.1266 87.411 42.3281 87.5117 42.5969C72.2602 42.5969 57.0758 42.5969 41.8242 42.5969ZM114.42 42.6977C107.332 42.6977 100.244 42.6977 93.1555 42.6977C92.5172 42.6977 92.0469 42.5969 91.6774 41.8914C88.6203 35.6766 85.5297 29.4953 82.4391 23.3141C82.3383 23.1125 82.2375 22.8773 82.1031 22.5078C85.7649 22.5078 89.2586 22.6422 92.7524 22.4742C95.1039 22.3398 96.7164 23.1125 98.3289 24.8258C103.637 30.4359 109.079 35.9117 114.454 41.4547C114.756 41.7906 115.059 42.1266 115.495 42.5969C115.025 42.6305 114.723 42.6977 114.42 42.6977Z" fill="#19918E" stroke="white" stroke-width="1.25" stroke-miterlimit="10"/>
</svg>
