<?xml version="1.0" encoding="utf-8"?>
<!-- Generator: Adobe Illustrator 22.1.0, SVG Export Plug-In . SVG Version: 6.00 Build 0)  -->
<svg version="1.1" id="Слой_1" xmlns="http://www.w3.org/2000/svg" xmlns:xlink="http://www.w3.org/1999/xlink" x="0px" y="0px"
	 viewBox="0 0 384 384" style="enable-background:new 0 0 384 384;" xml:space="preserve">
<style type="text/css">
	.st0{fill:#123D83;stroke:#FFFFFF;stroke-miterlimit:10;}
	.st1{fill:#19918E;stroke:#FFFFFF;stroke-miterlimit:10;}
</style>
<path class="st0" d="M0.2,29.3c0.6-1.9,1.1-3.8,1.7-5.7C6.3,10.2,18.6,0.8,32.8,0.1C34,0,35.3,0,36.5,0C122,0,207.5,0,293,0
	c16.8,0,29.8,8.8,34.4,23.7c1.2,3.9,1.8,8.1,1.8,12.1c0.1,41.2,0.1,82.5,0.1,123.7c0,7.7-3,10.6-10.7,10.6c-18.1,0-36.2,0-54.4,0
	c-1.4,0-2.7,0-4.8,0c0.5,1.9,0.6,3.5,1.4,4.7c9.4,13.5,2.4,29.2-14.1,31.3c-7.3,0.9-13.9-0.9-19.5-5.9c-7.2-6.4-8.1-16.7-2.4-24.4
	c1.1-1.5,1.6-3.3,2.6-5.5c-19.5,0-38.1,0-57.1,0c0,1.5,0,2.8,0,4.1c0,16.9-0.1,33.7,0,50.6c0.1,13.3-10.6,15.3-19.8,13.3
	c-1.3-0.3-2.3-1.8-3.4-2.8c-3.1-3-6.9-3-9.9,0.1c-4.2,4.4-4.3,12.2-0.2,16.8c3,3.3,7.2,3.5,10.1,0.1c4.5-5.1,10.1-3.5,15.3-2.3
	c5,1.2,7.8,5.9,7.8,11.6c0,18.9,0,37.7,0,56.6c0,6.9-3.7,10.5-10.8,10.5c-12.6,0.1-25.2,0-37.9,0c-28,0-56,0-84,0
	c-20,0-31.9-9.2-37.1-28.6c-0.1-0.2-0.3-0.4-0.5-0.6C0.2,209.8,0.2,119.5,0.2,29.3z M101,159c7.7,0,14.4,0,21.2,0
	c4.4,0,7,2.2,6.9,5.6c0,3.4-2.6,5.6-7,5.6c-6.5,0-13,0-19.5,0c-5.4,0-9.9-2.4-11.4-7.5c-1.5-5.2-3.1-11,2.2-15.6
	c3.3-2.9,3-7.2-0.2-10.1c-4.6-4.1-12.5-4-16.8,0.3c-2.8,2.7-3.3,7-0.4,9.3c3.4,2.8,3.8,6.1,3.7,10c-0.2,9.2-4.6,13.7-13.9,13.7
	c-16.7,0-33.5,0-50.2,0c-1.3,0-2.6,0-4.1,0c0,1.9,0,3.3,0,4.6c0,39.2,0,78.5,0,117.7c0,15.8,9.4,25.3,25.1,25.3c39.5,0,79,0,118.5,0
	c1.3,0,2.6-0.1,3.8-0.2c0-19.2,0-37.9,0-57.5c-2.1,0.9-3.7,1.6-5.3,2.2c-3.4,1.3-6.8,3.5-10.4,3.7c-11,0.8-19.9-8.5-20.3-20.9
	c-0.3-8.9,3-16.3,10.9-20.8c7.2-4.1,14.1-2.8,20.6,2.3c0.9,0.7,2.6,1,3.7,0.7c0.6-0.2,0.9-2.1,0.9-3.2c0.1-17,0-34,0-51
	c0-0.9-0.2-1.9-0.3-3c-1.9,0-3.5,0-5.1,0c-1.7,0-3.5,0-5.2,0c-4.1-0.1-6.5-2.3-6.5-5.7s2.5-5.5,6.6-5.5c3.4,0,6.9,0,10.6,0
	c0-1.9,0-3.3,0-4.6c0-17.5,0-35,0-52.5c0-3.6,0.9-6.6,4-8.8c4.4-3.1,15.2-2.2,19.1,1.6c3.1,3,7,3,9.9-0.1c4.3-4.5,4.3-12.6-0.1-17.1
	c-2.6-2.6-6.6-3.4-8.7-0.8c-3.7,4.6-8.3,4.3-13.2,4.2c-7.5-0.2-10.9-3.6-11-11.1c0-18,0-36,0-54c0-1.3,0-2.7,0-4.2
	c-1.6-0.1-2.8-0.2-4-0.2c-39.6,0-79.2,0-118.9,0c-15.3,0-24.8,9.6-24.8,24.8c0,39.6,0,79.2,0,118.9c0,1.2,0,2.4,0,3.8
	c19.2,0,38,0,57.7,0c-0.9-2.1-1.3-3.9-2.3-5.3c-5.9-7.9-5.1-18.1,2.2-24.7c6-5.4,13.2-7.1,20.9-5.5c15.7,3.2,21.6,17.9,12.5,31
	C101.7,155.4,101.7,156.9,101,159z M170.6,70.2c2.1-0.9,3.9-1.4,5.2-2.4c8.2-6.2,18.5-5.1,25.2,2.7c7.5,8.8,7.5,22.1-0.1,31
	c-6.4,7.6-16.9,8.7-24.9,2.7c-1.4-1-3.3-1.4-5.3-2.2c0,19.5,0,38.1,0,56.9c1.6,0,2.9,0,4.3,0c17.5,0,35,0,52.5,0c3.6,0,6.7,1,8.8,4
	c3.2,4.5,2.3,15.2-1.5,19.1c-3,3-2.9,7.1,0.1,9.9c4.5,4.3,12.7,4.2,17.1-0.1c2.5-2.5,3.3-6.7,0.8-8.7c-4.5-3.5-4.3-8.1-4.2-12.8
	c0.1-7.9,3.5-11.3,11.5-11.3c17.9,0,35.7,0,53.6,0c1.3,0,2.7,0,4.5,0c0-1.7,0-3.1,0-4.4c0-39.2,0-78.5,0-117.7
	c0-16.3-9.3-25.6-25.6-25.6c-39.2,0-78.5,0-117.7,0c-1.3,0-2.7,0-4.1,0C170.6,30.9,170.6,50.1,170.6,70.2z"/>
<path class="st1" d="M221.5,384c-5.8-2.5-7.6-7.1-7.5-13.2c0.3-16.9,0.1-33.7,0.1-50.6c0-1.4,0-2.7,0-5.1c-2.3,0.9-4.2,1.3-5.6,2.4
	c-8.1,6-18.7,4.8-25.2-3c-7.5-9.2-7.2-22.6,0.7-31.3c6.5-7.2,16.6-8.1,24.4-2.4c1.4,1,3.2,1.6,5.7,2.7c0-6.8,0-12.4,0-18
	c0-1.2-0.1-2.5,0.1-3.7c0.6-3.1,2.5-4.9,5.8-4.8c3.2,0.1,5.2,2,5.3,5.2c0.1,7.1,0.3,14.3-0.1,21.4c-0.2,4.5-2.9,8-7.1,9.2
	c-5.6,1.6-11.4,3-16.2-2.6c-2.4-2.9-6.6-2.5-9.3,0.3c-4.4,4.4-4.5,12.5-0.2,17.1c2.9,3.1,6.9,3.2,9.9,0.2c3.5-3.4,11.1-4.6,15.9-2.4
	c5.1,2.3,7.2,6.5,7.2,12c-0.1,16.9,0,33.7,0,50.6c0,1.4,0,2.7,0,4.7c1.5,0,2.8,0,4.1,0c39.5,0,79,0,118.5,0
	c15.7,0,25.1-9.4,25.1-25.3c0-39.4,0-78.7,0-118.1c0-1.2,0-2.5,0-4c-19.3,0-38.5,0-58.4,0c0.4,1.6,0.3,3.4,1.2,4.3
	c8.8,9.5,5.5,26.7-12.1,30.9c-8.2,1.9-15.6-0.1-21.9-5.9c-6.7-6.3-7.4-16.3-2-23.9c1.1-1.5,1.6-3.3,2.6-5.6c-19.6,0-38.1,0-57.2,0
	c0,4,0,7.9,0,11.9c0,4.4-2.1,6.9-5.6,6.9s-5.6-2.6-5.6-6.9c0-5.4-0.1-10.7,0-16.1c0.1-4.9,2.3-7.1,7.1-7.2c20.5,0,41,0,61.5,0
	c6.5,0,10.1,3.7,10.2,10.3c0,2,0.4,4.1-0.1,6c-0.6,2.3-1.4,4.8-2.9,6.4c-3.4,3.7-3.3,7.9,0.6,11c4.6,3.6,11.7,3.4,15.9-0.4
	c3.4-3,3.5-7,0.4-10.2c-3.8-3.9-5-14.9-1.4-19c1.8-2,5-3.9,7.5-3.9c21.6-0.3,43.2-0.2,64.9-0.1c4.2,0,6.3,2.5,6.3,7.1
	c0,10.7,0,21.5,0,32.2c0,31.5,0,63,0,94.5c0,19.1-10.3,31.7-29,35.8c-0.3,0.1-0.7,0.3-1,0.5C310,384,265.7,384,221.5,384z"/>
</svg>
