<?xml version="1.0" encoding="utf-8"?>
<!-- Generator: Adobe Illustrator 22.1.0, SVG Export Plug-In . SVG Version: 6.00 Build 0)  -->
<svg version="1.1" id="Слой_1" xmlns="http://www.w3.org/2000/svg" xmlns:xlink="http://www.w3.org/1999/xlink" x="0px" y="0px"
	 viewBox="0 0 384 384" style="enable-background:new 0 0 384 384;" xml:space="preserve">
<style type="text/css">
	.st0{fill:#123D83;stroke:#FFFFFF;stroke-miterlimit:10;}
	.st1{fill:#19918E;stroke:#FFFFFF;stroke-miterlimit:10;}
</style>
<g>
	<path class="st0" d="M0.2,216.8c7.1,1.4,10.9-1.9,14.6-8.1c13.6-22.6,29.4-43.5,49.4-60.8c11-9.5,22.8-17.4,37.4-20.3
		c12.9-2.5,24.8,0.6,36,6.8c14.5,8,26.4,19.3,37.3,31.6c12.9,14.6,24.1,30.3,34,47c1.6,2.7,3.3,4,6.5,3.8c4.6-0.3,9.3-0.2,13.9,0
		c2.6,0.1,4-0.9,5.2-3.2c12.8-24.1,25.8-48.2,38.7-72.3c0.5-1,1.1-2,1.9-3.5c1,1.5,1.8,2.6,2.5,3.8c14.8,23.9,29.6,47.8,44.3,71.7
		c1.5,2.4,3.1,3.4,6,3.3c17.1-0.1,34.2-0.1,51.4-0.1c1.5,0,2.9,0,4.6,0c0,3.6,0,6.8,0,10.6c-17.5,0-34.9,0-53.2,0
		c11.6,18.9,22.8,36.9,34.2,55.4c-4.3,0.5-8,1-11.8,1.3c-23,2.1-46,4.1-69,6.1c-1.8,0.2-3.2,0.4-3.2,2.7c0.1,3.8,0,7.7,0,12.3
		c33-2.7,65.6-5.4,99-8.2c-8.1,16.3-15.9,31.9-24.1,48.2c6,0.9,11.3,1.7,16.9,2.5c0,3.2,0,6.4,0,9.9c-7.6,0.8-14.8-0.9-22-3
		c-6.8-2-13.6-4.1-20.6-5.2c-9.3-1.5-18.4,0-27.2,3.3c-18.1,7-36.2,6.9-54.5,0.2c-5.1-1.9-10.6-2.8-16-3.6c-9.2-1.3-18.2,0-26.9,3.3
		c-7.5,2.8-15.1,5.1-23.3,5.1c-1.2,0-2.4,0-3.9,0c0-3.5,0-6.7,0-10c6.3-1.1,12.5-2.1,19.5-3.3c-5.4-10.8-10.3-20.7-15.4-31
		c4.4-0.4,8.3-0.8,12.2-1.2c24-2,48-4.1,72.1-5.9c2.8-0.2,3.6-1.2,3.5-3.9c-0.2-3.5,0-6.9,0-10.9c-27.2,2.4-53.8,4.8-81.4,7.3
		c12.9-24.1,25.4-47.3,38.3-71.4c-2.4,0-4,0-5.6,0c-72,0-144,0-216,0c-1.7,0-3.5-0.1-5.2-0.1C0.2,223.8,0.2,220.3,0.2,216.8z
		 M198,216.5c-0.5-1.1-0.7-1.7-1.1-2.2c-10.2-16.2-21.3-31.8-34.4-45.8c-9.9-10.5-20.5-20.1-33.7-26.5c-9.1-4.4-18.5-6-28.4-3.2
		c-10.7,3.1-19.7,9-28,16.2c-19.8,16.9-35,37.7-48.7,59.5c-0.3,0.5-0.4,1.1-0.7,2C81.4,216.5,139.4,216.5,198,216.5z M199.2,322.7
		c2.9,5.8,5.3,11,8.1,16c0.4,0.8,2.3,1.2,3.4,1c14.4-2.7,28.5-2.2,42.4,3.2c15.1,5.9,30.3,5.7,45.3-0.1c14.6-5.6,29.4-6,44.5-2.3
		c2.1,0.5,3.1,0.2,4.1-1.8c3-6.3,6.2-12.5,9.3-18.8c1.6-3.3,3.3-6.6,5.2-10.6C307,313.7,253.5,318.2,199.2,322.7z M346.5,273.7
		c-21.9-35.3-43.3-69.9-64.7-104.6c-0.2,0.1-0.5,0.2-0.7,0.3c0,36.6,0,73.2,0,110.1C302.9,277.6,324.2,275.7,346.5,273.7z
		 M207.8,286.1c4.8-0.4,8.5-0.7,12.2-1c15.3-1.4,30.6-2.9,45.9-4.1c3.6-0.3,4.4-1.6,4.4-5.1c-0.1-33.5-0.1-67-0.1-100.4
		c0-1.2-0.1-2.3-0.2-3.5c-0.3-0.1-0.5-0.2-0.8-0.2C248.8,209.6,228.5,247.4,207.8,286.1z"/>
	<path class="st0" d="M0.2,372.8c1.6,0,3.2-0.1,4.9-0.1c124.3,0,248.6,0,373,0c1.8,0,3.7,0,5.8,0c0,3.6,0,6.8,0,10.4
		c-1.1,0.1-2.3,0.3-3.5,0.3c-126.2,0-252.4,0-378.6,0c-0.5,0-1,0-1.5-0.1C0.2,379.8,0.2,376.3,0.2,372.8z"/>
	<path class="st1" d="M118.7,53c9.2,2.4,15.5,7.4,18,16.5c3.7,13.4-6.1,27.6-20,27.8c-28.1,0.4-56.2,0.3-84.3,0
		c-11.2-0.1-21.2-8.2-24.5-18.9c-3.4-10.9,0.4-23,9.8-29.6c2.8-2,3.8-3.9,3.9-7.5c0.5-14.7,7.6-25.6,21.2-31.2
		C56.3,4.5,69,6.8,80.1,16.5c1.9,1.6,3.5,2.3,6,2.1c18.8-1.5,33.4,12.5,32.6,31.4C118.7,51,118.7,51.9,118.7,53z M102.8,63.7
		c1.3-2.8,2.3-5.1,3.3-7.3c3.3-7.3,2.6-14.2-2.6-20.3c-5.4-6.2-12.4-8.4-20.3-5.8c-3.6,1.2-5.4,0.4-7.6-2.5
		c-6.4-8.3-15.1-11.4-25.2-8.8c-9.8,2.5-16.1,9.1-17.6,19.2c-0.7,4.8,0.6,9.8,1,15c-2.1,0.8-4.9,1.7-7.4,3
		c-6.2,3.2-9.5,9.2-8.7,15.7c0.8,7,5.5,12.6,12,14.3c2.4,0.6,4.9,0.8,7.4,0.8c25,0.1,50,0,74.9,0c1.2,0,2.5,0,3.7-0.1
		c6.6-0.9,11.4-6.1,11-12c-0.4-6.3-5.5-11-12.4-11.1C110.8,63.6,107.2,63.7,102.8,63.7z"/>
	<path class="st1" d="M205,129c-8.6,0-17.2,0.2-25.8-0.1c-10.2-0.4-17.5-5.6-21.3-15.1c-3.7-9.2-2.2-18,4.8-25.3
		c7-7.4,15.6-9.1,25.4-6.5c1.9,0.5,4,0.2,5.9,0.1c4.1-0.3,8.1-0.6,12.2-1c1.7-0.2,3.7-0.4,4.9-1.4c16.1-13.1,40.3-5,45.1,15.2
		c4,16.8-8.4,33.4-25.7,34C222,129.2,213.5,129,205,129L205,129z M212.3,95.3c-1.7-0.8-3-1.5-4.3-2.2c-4.2-2.1-8.6-2.2-12.5,0.5
		c-3.2,2.2-5.5,2.3-8.8,0c-4.6-3.2-10.6-2.4-15,1.2c-4.2,3.4-5.9,9-4.3,14.2c1.8,5.9,7.1,9.5,14.5,9.5c15.1,0.1,30.2,0,45.3,0
		c1.9,0,3.7-0.2,5.6-0.6c8.8-1.9,14.5-10.8,12.8-19.9c-1.7-8.8-10.2-14.8-19-13.6C219.9,85.3,215.9,89.7,212.3,95.3z"/>
	<path class="st1" d="M361,54.8c0,17.6-14,31.6-31.7,31.5c-17.6-0.1-31.5-14.1-31.4-31.7c0.1-17.5,14-31.3,31.5-31.3
		C347,23.2,361,37.1,361,54.8z M329.5,75.6c11.3-0.1,20.7-9.5,20.8-20.8c0.1-11.4-9.6-21.1-21-21c-11.3,0.1-20.7,9.5-20.8,20.8
		C308.5,66,318.2,75.7,329.5,75.6z"/>
	<path class="st0" d="M166.4,264.2c0,3.6,0,6.8,0,9.1c-11.4,3.2-22.2,7-33.3,9.3c-11.6,2.4-23.4,1.5-34.5-3.3
		c-14.7-6.3-29.3-6.2-43.9,0.1c-7.1,3-14.5,4.6-22.5,4c0-3.4,0-6.7,0-10.5c10.1,0.3,18.8-4.4,28.1-6.9c14-3.8,27.9-2.8,41.4,2.8
		c13.4,5.6,26.9,5.4,40.4-0.1C149.7,265.7,157.6,263.4,166.4,264.2z"/>
	<path class="st0" d="M150.6,316.7c0,3.5,0,6.7,0,9.1c-11.4,3.2-22.4,7-33.6,9.3c-11.5,2.4-23.1,1.4-34.2-3.3
		c-14.7-6.3-29.3-6.2-44,0.1c-7.1,3-14.5,4.6-22.5,4c0-3.4,0-6.7,0-8.9c9.1-2.7,17.8-5.4,26.5-7.9c13.9-4.1,27.7-3.7,41.1,1.7
		c14.9,6.1,29.6,6.1,44.4-0.2C135.2,317.6,142.5,316.1,150.6,316.7z"/>
	<path class="st1" d="M287.8,20.3c2.3-2.3,4.7-4.6,7.3-7.2c1.9,2.4,4.1,5,6.3,7.7c-1.8,1.7-4.2,4.1-6.6,6.4
		C292.7,25,290.2,22.6,287.8,20.3z"/>
	<path class="st1" d="M357,19.7c1.9-1.9,4.3-4.3,6.5-6.5c2.5,2.5,4.9,4.9,7.3,7.4c-2.1,2.1-4.5,4.4-7.2,7
		C361.7,25.2,359.5,22.5,357,19.7z"/>
	<path class="st1" d="M295.8,82.6c1.7,1.7,4.1,4.1,6.4,6.4c-2.5,2.4-5,4.8-7.4,7.1c-2.1-2.1-4.4-4.5-7-7.2
		C290,87.1,292.8,85,295.8,82.6z"/>
	<path class="st1" d="M357,88.7c2-2.1,4.4-4.4,6.7-6.8c2.5,2.6,4.8,5,7.1,7.5c-2.1,2.1-4.5,4.4-7.1,7
		C361.7,94.1,359.4,91.5,357,88.7z"/>
	<path class="st1" d="M334.7,11.1c-3.8,0-6.9,0-10.3,0c0-3.4,0-6.7,0-10.4c2.8,0,5.5-0.1,8.2,0.1c0.7,0.1,1.9,1.2,2,1.9
		C334.9,5.4,334.7,8.1,334.7,11.1z"/>
	<path class="st1" d="M275.4,60c0-3.2-0.2-5.9,0.1-8.6c0.1-0.7,1.5-1.8,2.3-1.9c2.5-0.3,4.9-0.1,8.1-0.1c0,3.1,0.1,6.1-0.1,9
		c-0.1,0.6-1.5,1.5-2.3,1.6C281,60.2,278.5,60,275.4,60z"/>
	<path class="st1" d="M382.9,60c-2.7,0-5.5,0.1-8.4-0.1c-0.6,0-1.5-1-1.6-1.5c-0.2-2.3-0.2-4.7,0-7.1c0.1-0.7,1.1-1.3,1.7-1.8
		c0.1-0.1,0.5,0,0.7-0.1C383.8,48.8,384.9,50.3,382.9,60z"/>
	<path class="st1" d="M324.4,108.5c0-3.5,0-6.7,0-10.1c3.4,0,6.6,0,10.1,0c0,3.3,0,6.6,0,10.1C331,108.5,328,108.5,324.4,108.5z"/>
</g>
</svg>
