<svg width="121" height="121" viewBox="0 0 121 121" fill="none" xmlns="http://www.w3.org/2000/svg">
<g clip-path="url(#clip0_1218_2227)">
<path d="M18.3393 121C15.5663 119.897 14.7471 117.849 14.7471 114.95C14.8101 78.3979 14.7786 41.8458 14.7786 5.29375C14.7786 2.45781 16.0705 0.630208 18.4653 0.126042C18.938 0 19.4421 0 19.8833 0C47.0452 0 74.2387 0 101.401 0C104.615 0 106.505 1.89062 106.505 5.07318C106.505 11.5328 106.537 17.9924 106.474 24.4521C106.474 25.1453 106.096 26.0276 105.592 26.4372C104.489 27.3195 103.008 26.3112 103.008 24.7357C102.976 21.3956 103.008 18.0555 103.008 14.6839C103.008 11.6273 103.008 8.53932 103.008 5.48281C103.008 3.74974 102.819 3.56068 101.023 3.56068C74.1757 3.56068 47.2973 3.56068 20.4505 3.56068C18.5913 3.56068 18.4023 3.71823 18.4023 5.57734C18.4023 40.4279 18.4023 75.2784 18.4023 110.16C18.4023 112.02 18.4023 113.879 18.4023 115.706C18.4023 117.219 18.6544 117.471 20.1984 117.471C36.3002 117.471 52.402 117.471 68.5354 117.471C79.3119 117.471 90.12 117.471 100.897 117.471C102.882 117.471 103.008 117.345 103.008 115.297C103.008 88.2922 103.008 61.2562 103.008 34.2518C103.008 32.3297 103.575 31.4789 104.772 31.4789C106.001 31.4789 106.537 32.3612 106.537 34.2518C106.537 61.1617 106.505 88.0401 106.568 114.95C106.568 117.849 105.749 119.929 102.976 121C74.7429 121 46.5411 121 18.3393 121Z" fill="#123D83" stroke="white" stroke-miterlimit="10"/>
<path d="M49.8178 60.5315C49.8178 67.4638 44.2089 73.0412 37.2766 73.0412C30.3128 73.0412 24.704 67.3693 24.7355 60.4055C24.767 53.5047 30.4074 47.9274 37.3397 47.9589C44.2719 47.9904 49.8178 53.5992 49.8178 60.5315ZM46.2571 60.4685C46.2256 55.4899 42.2238 51.488 37.2136 51.5196C32.235 51.5196 28.2331 55.5844 28.2647 60.563C28.2647 65.5417 32.3295 69.5435 37.3081 69.512C42.2868 69.4805 46.2886 65.4472 46.2571 60.4685Z" fill="#19918E" stroke="white" stroke-miterlimit="10"/>
<path d="M49.8178 28.8005C49.8178 35.7012 44.1774 41.3416 37.3081 41.3416C30.3758 41.3416 24.704 35.6382 24.7355 28.7059C24.767 21.8051 30.4074 16.1963 37.3397 16.2593C44.2719 16.2908 49.8178 21.8367 49.8178 28.8005ZM46.2571 28.8005C46.2571 23.7903 42.2868 19.82 37.2766 19.7885C32.298 19.7885 28.2646 23.7903 28.2646 28.7689C28.2646 33.7161 32.298 37.7809 37.2451 37.8124C42.2238 37.8124 46.2571 33.7476 46.2571 28.8005Z" fill="#19918E" stroke="white" stroke-miterlimit="10"/>
<path d="M37.3084 104.772C27.6978 104.804 21.6162 94.4052 26.3428 86.0549C26.5004 85.7713 26.6579 85.5192 26.847 85.2671C27.5402 84.2903 28.517 84.0382 29.3993 84.5739C30.2816 85.1096 30.5022 86.1494 29.8405 87.1578C28.8321 88.7648 28.2649 90.4664 28.2964 92.3885C28.3595 97.5562 32.6764 101.527 37.9386 101.211C43.0433 100.928 46.8246 96.3273 46.2574 91.1281C45.7217 86.1809 40.9636 82.5888 35.9535 83.345C34.504 83.5656 33.5902 83.0614 33.4011 81.927C33.2121 80.8242 33.9368 80.0679 35.4178 79.8473C42.5392 78.7445 49.2824 83.9752 49.8181 91.0335C50.3537 98.533 44.7134 104.741 37.3084 104.772Z" fill="#19918E" stroke="white" stroke-miterlimit="10"/>
<path d="M75.8456 67.0858C81.8325 67.0858 87.8195 67.0858 93.775 67.0858C94.1531 67.0858 94.5627 67.0542 94.9409 67.1173C95.8862 67.2118 96.4534 67.779 96.5164 68.7243C96.6109 69.6696 96.0752 70.2998 95.193 70.5519C94.8148 70.6464 94.4052 70.6464 94.0271 70.6464C81.864 70.6464 69.701 70.6464 57.5695 70.6464C57.2544 70.6464 56.9393 70.6779 56.6242 70.6149C55.6474 70.4889 54.8911 69.6696 55.0172 68.7558C55.1432 67.779 55.6789 67.1803 56.7187 67.1173C57.0653 67.0858 57.412 67.0858 57.7901 67.0858C63.8086 67.0858 69.8271 67.0858 75.8456 67.0858Z" fill="#19918E" stroke="white" stroke-miterlimit="10"/>
<path d="M75.7826 102.346C69.7326 102.346 63.6511 102.346 57.6011 102.346C57.2545 102.346 56.8764 102.377 56.5297 102.314C55.5844 102.157 55.0488 101.527 55.0488 100.613C55.0172 99.7306 55.5214 99.1319 56.3722 98.8798C56.7188 98.7853 57.0654 98.8168 57.412 98.8168C69.6381 98.8168 81.8956 98.8168 94.1217 98.8168C94.4683 98.8168 94.8464 98.7853 95.1615 98.8798C96.0753 99.1319 96.5795 99.7306 96.5165 100.676C96.4534 101.621 95.8862 102.188 94.9724 102.314C94.6258 102.377 94.2792 102.346 93.9011 102.346C87.8826 102.346 81.8326 102.346 75.7826 102.346Z" fill="#19918E" stroke="white" stroke-miterlimit="10"/>
<path d="M75.7826 30.5336C69.7641 30.5336 63.7456 30.5336 57.7271 30.5336C57.349 30.5336 56.9394 30.5336 56.5612 30.5021C55.6474 30.376 55.1433 29.8088 55.0487 28.9265C54.9542 28.0442 55.3953 27.3825 56.2461 27.1304C56.6873 27.0044 57.1599 27.0044 57.6326 27.0044C69.7641 27.0044 81.8641 27.0044 93.9956 27.0044C94.4367 27.0044 94.8779 27.0044 95.2875 27.0989C96.2013 27.351 96.674 28.0127 96.5479 28.958C96.4534 29.8403 95.9177 30.376 95.0354 30.5021C94.6573 30.5651 94.2477 30.5336 93.8696 30.5336C87.8511 30.5336 81.8326 30.5336 75.7826 30.5336Z" fill="#19918E" stroke="white" stroke-miterlimit="10"/>
<path d="M75.877 90.4663C81.99 90.4663 88.0715 90.4663 94.1845 90.4978C94.7832 90.4978 95.4765 90.5924 95.9491 90.939C97.052 91.7267 96.7369 93.4283 95.445 93.8694C94.9723 94.027 94.4366 94.027 93.9325 94.027C81.864 94.027 69.764 94.027 57.6955 94.027C57.5064 94.027 57.3173 94.027 57.0968 94.027C55.8364 93.964 55.0171 93.2707 55.0171 92.2309C55.0171 91.1911 55.8364 90.4978 57.0968 90.4663C63.3674 90.4663 69.6064 90.4663 75.877 90.4663Z" fill="#19918E" stroke="white" stroke-miterlimit="10"/>
<path d="M75.9087 35.3861C81.8957 35.3861 87.8827 35.3861 93.8697 35.3861C94.3108 35.3861 94.8465 35.2601 95.1301 35.4491C95.6973 35.8273 96.3275 36.363 96.5165 36.9617C96.7686 37.7809 96.2329 38.5057 95.3822 38.7577C94.941 38.8838 94.4368 38.9153 93.9957 38.9153C81.8957 38.9153 69.8272 38.9153 57.7272 38.9153C57.5697 38.9153 57.4121 38.9153 57.2546 38.9153C55.8996 38.8523 55.0488 38.1906 55.0488 37.1192C55.0488 36.0478 55.8681 35.3861 57.2546 35.3861C63.4621 35.3546 69.6697 35.3861 75.9087 35.3861Z" fill="#19918E" stroke="white" stroke-miterlimit="10"/>
<path d="M75.7824 58.7356C81.8324 58.7356 87.914 58.7356 93.964 58.7356C94.4051 58.7356 94.9408 58.6095 95.2244 58.8301C95.7601 59.2397 96.4533 59.8699 96.4533 60.4371C96.4848 61.0043 95.8231 61.666 95.3189 62.1072C95.0353 62.3593 94.4051 62.2647 93.9324 62.2647C81.8325 62.2647 69.764 62.2647 57.664 62.2647C57.6009 62.2647 57.5064 62.2647 57.4434 62.2647C55.8679 62.2332 55.0171 61.603 55.0171 60.4686C55.0171 59.3343 55.8364 58.7041 57.4434 58.7041C63.5879 58.7356 69.6694 58.7356 75.7824 58.7356Z" fill="#19918E" stroke="white" stroke-miterlimit="10"/>
<path d="M36.5521 91.6323C37.2138 90.6555 37.8125 89.7732 38.4112 88.9224C39.1044 87.9771 40.1128 87.7565 40.9636 88.3237C41.8143 88.9224 41.9719 89.8992 41.3102 90.9075C40.3018 92.4516 39.262 93.9956 38.1906 95.4766C37.3084 96.7055 36.1425 96.737 35.1341 95.5711C34.5039 94.8463 33.9367 94.1216 33.3695 93.3654C32.6133 92.357 32.6448 91.4117 33.4011 90.75C34.2203 90.0253 35.1656 90.1513 36.0794 91.1281C36.2055 91.2542 36.3 91.3802 36.5521 91.6323Z" fill="#19918E" stroke="white" stroke-miterlimit="10"/>
<path d="M58.9876 18.6541C59.6178 18.6541 60.248 18.6226 60.8782 18.6541C61.9181 18.7171 62.6113 19.4103 62.6113 20.3556C62.6113 21.364 62.0441 22.0572 61.0988 22.1202C59.6178 22.2147 58.1053 22.2147 56.6243 22.1202C55.6475 22.0572 55.0803 21.364 55.0488 20.3556C55.0173 19.4418 55.7735 18.7171 56.7819 18.6226C56.8449 18.6226 56.9394 18.6226 57.0024 18.6226C57.6642 18.6541 58.3259 18.6541 58.9876 18.6541Z" fill="#19918E" stroke="white" stroke-miterlimit="10"/>
<path d="M58.8616 53.8828C58.1684 53.8828 57.4436 53.9143 56.7504 53.8828C55.7421 53.8198 55.0173 53.032 55.0488 52.1182C55.1119 51.1414 55.6791 50.4481 56.6559 50.3851C58.1054 50.2906 59.5548 50.2906 61.0043 50.3851C62.0126 50.4481 62.6429 51.2359 62.6113 52.2127C62.5798 53.1895 61.9181 53.8198 60.8468 53.8828C60.7837 53.8828 60.6892 53.8828 60.6262 53.8828C60.0275 53.9143 59.4288 53.9143 58.8616 53.8828C58.8616 53.9143 58.8616 53.9143 58.8616 53.8828Z" fill="#19918E"/>
<path d="M58.8616 53.8828C58.1684 53.8828 57.4436 53.9143 56.7504 53.8828C55.7421 53.8198 55.0173 53.032 55.0488 52.1182C55.1119 51.1414 55.6791 50.4481 56.6559 50.3851C58.1054 50.2906 59.5548 50.2906 61.0043 50.3851C62.0126 50.4481 62.6429 51.2359 62.6113 52.2127C62.5798 53.1895 61.9181 53.8198 60.8468 53.8828C60.7837 53.8828 60.6892 53.8828 60.6262 53.8828C60.0275 53.9143 59.4288 53.9143 58.8616 53.8828ZM58.8616 53.8828C58.8616 53.9143 58.8616 53.9143 58.8616 53.8828Z" stroke="white" stroke-miterlimit="10"/>
<path d="M58.7985 85.6137C58.1053 85.6137 57.3805 85.6452 56.6873 85.6137C55.679 85.5507 55.1118 84.889 55.0488 83.9436C55.0172 83.0298 55.5214 82.2736 56.4667 82.2106C58.0107 82.116 59.5863 82.0845 61.1618 82.2106C62.1701 82.2736 62.6428 83.0299 62.5798 84.0382C62.5167 84.9835 61.9495 85.5507 61.0042 85.6137C60.2795 85.6452 59.5232 85.6137 58.7985 85.6137Z" fill="#19918E" stroke="white" stroke-miterlimit="10"/>
<path d="M36.4575 60.0589C37.2453 58.9245 37.8125 58.0422 38.4427 57.1914C39.1359 56.2461 40.1443 56.0571 40.995 56.6558C41.8143 57.2544 41.9719 58.1998 41.3417 59.1766C40.3018 60.7521 39.262 62.3276 38.1591 63.8401C37.3083 65.006 36.1109 65.0375 35.1656 63.9662C34.5669 63.2729 34.0312 62.5482 33.4641 61.855C32.5818 60.7206 32.5818 59.7753 33.4325 59.0505C34.2518 58.3888 35.1656 58.5149 36.1109 59.4917C36.237 59.5862 36.3 59.7438 36.4575 60.0589Z" fill="#19918E" stroke="white" stroke-miterlimit="10"/>
<path d="M36.4261 28.3594C37.1824 27.2565 37.7811 26.3742 38.3798 25.5234C39.1045 24.5151 40.0498 24.2945 40.9321 24.8617C41.8459 25.4604 42.0035 26.4687 41.2787 27.5401C40.2704 29.0526 39.2621 30.5336 38.2222 32.0146C37.3084 33.275 36.0795 33.3065 35.1027 32.1091C34.5355 31.4474 33.9998 30.7542 33.4957 30.0924C32.6134 28.9896 32.6449 27.9812 33.4957 27.288C34.2834 26.6263 35.2602 26.8153 36.174 27.7922C36.2371 27.8867 36.3001 28.0443 36.4261 28.3594Z" fill="#19918E" stroke="white" stroke-miterlimit="10"/>
</g>
<defs>
<clipPath id="clip0_1218_2227">
<rect width="121" height="121" fill="white"/>
</clipPath>
</defs>
</svg>
