<svg width="139" height="139" viewBox="0 0 139 139" fill="none" xmlns="http://www.w3.org/2000/svg">
<path d="M93.246 109.607C91.0017 109.607 88.7212 109.607 86.4769 109.607C84.9928 109.607 84.0879 108.956 84.0879 107.797C84.0879 106.711 84.9204 106.024 86.3322 105.988C90.9293 105.807 95.5264 105.662 100.124 105.517C101.499 105.481 102.187 105.988 102.404 107.001C102.621 108.159 101.752 109.101 100.268 109.137C97.9155 109.173 95.5988 109.137 93.246 109.137C93.246 109.282 93.246 109.463 93.246 109.607Z" fill="#19918E" stroke="white" stroke-miterlimit="10"/>
<path d="M92.2322 55.8897C92.2322 52.9576 92.2322 50.0256 92.2322 47.0936C92.2322 45.2113 92.7752 44.4149 94.5127 43.872C100.558 41.9897 106.603 40.0712 112.684 38.2613C113.336 38.0441 114.168 38.0441 114.856 38.2613C120.973 40.1074 127.055 42.0259 133.172 43.9444C134.801 44.4511 135.38 45.2837 135.38 46.9488C135.38 52.7043 135.453 58.4235 135.344 64.179C135.163 76.2329 126.693 87.2733 115.109 90.6035C114.313 90.8207 113.336 90.8207 112.575 90.6035C100.847 87.2371 92.4132 76.1605 92.2684 63.9618C92.196 61.247 92.2322 58.5683 92.2322 55.8897ZM97.4809 57.0118C97.5171 59.5095 97.4447 62.0071 97.5171 64.5048C97.8067 73.5905 104.178 82.1694 112.793 85.0652C113.444 85.2824 114.277 85.2824 114.892 85.029C123.724 81.8798 129.878 73.3733 130.059 63.9618C130.168 59.1837 130.059 54.4056 130.131 49.6274C130.131 48.6501 129.806 48.2519 128.937 47.9985C124.195 46.5868 119.489 45.0665 114.783 43.6186C114.241 43.4376 113.553 43.4376 113.01 43.5824C108.159 45.0665 103.345 46.623 98.4944 48.0709C97.6619 48.3243 97.5171 48.7225 97.5171 49.4464C97.4809 52.0165 97.4809 54.5141 97.4809 57.0118Z" fill="#123D83" stroke="white" stroke-width="2.5" stroke-miterlimit="10"/>
<path d="M111.345 66.0976C114.421 63.0208 117.245 60.1611 120.104 57.3015C121.408 56.0346 123.109 55.9984 124.159 57.1567C125.064 58.1702 125.136 59.6182 124.159 60.6317C120.539 64.3239 116.883 67.9799 113.227 71.5997C112.213 72.577 110.693 72.577 109.679 71.5997C107.616 69.6088 105.553 67.5455 103.562 65.4822C102.476 64.3601 102.548 62.876 103.562 61.8262C104.575 60.7765 106.168 60.7403 107.327 61.8624C108.63 63.1656 109.897 64.6135 111.345 66.0976Z" fill="#123D83" stroke="white" stroke-width="2.5" stroke-miterlimit="10"/>
<path d="M118.765 97.9516C103.2 98.567 87.6713 99.0737 72.1062 99.6167C71.6718 99.6167 71.2374 99.6167 70.8031 99.6167C70.8031 97.3 70.8031 95.092 70.8031 92.8115C71.708 92.7753 72.5768 92.7029 73.4093 92.7029C82.7484 92.3771 92.1236 92.0875 101.463 91.7255L99.2546 88.1782C89.9156 88.5039 80.5403 88.8297 71.2012 89.1555C71.0564 89.1555 70.9117 89.0831 70.8031 89.0469C70.7669 88.9383 70.7307 88.9021 70.7307 88.8659C70.7307 75.6175 70.6945 62.3328 70.7307 49.0844C70.7307 48.7224 71.2012 48.2881 71.5632 47.9985C73.5903 46.5506 75.8346 45.356 77.6445 43.6909C80.0697 41.4466 82.2054 38.8766 84.4497 36.4513C87.4541 33.1935 90.9653 30.7683 95.4539 30.1167C95.9606 30.0443 96.6484 30.2615 97.0104 30.6235C98.4945 32.0714 99.8338 33.5917 101.282 35.0758C102.187 36.017 103.164 36.1256 103.96 35.4016C104.829 34.6776 104.829 33.6279 103.924 32.6144C96.9742 24.6508 88.7572 18.3524 79.0924 14.0448C76.3775 12.8503 73.5541 11.9091 70.6583 10.8232C70.6583 9.91826 70.6945 8.90472 70.6583 7.89118C70.5135 5.35732 68.6674 3.51123 66.1335 3.40264C64.939 3.36644 63.7083 3.36644 62.5137 3.40264C60.0523 3.51123 58.2062 5.39352 58.0976 7.85498C58.0614 8.94092 58.0252 10.0269 58.0976 11.1128C58.17 12.3797 57.8442 13.4657 57.3012 14.5878C49.5549 30.2615 41.8447 45.9352 34.0984 61.6089C29.9356 70.0792 25.7367 78.5495 21.5739 87.0198C20.3432 89.4813 20.5966 91.5084 22.2979 93.1011C22.6598 93.4631 23.1304 93.7164 23.601 94.0784C22.7322 96.3227 21.8997 98.5669 20.9947 100.739C20.8499 101.065 20.307 101.354 19.9088 101.354C15.8546 101.535 11.8367 101.68 7.7825 101.825C3.72833 101.97 1.62885 104.757 2.60619 108.702C3.54734 112.503 4.45229 116.304 5.57442 120.069C6.0088 121.553 6.73276 123.001 7.60151 124.267C8.90463 126.186 11.0403 126.982 13.2122 127.598C15.7098 127.598 18.2437 127.598 20.7413 127.598C21.4653 126.946 22.1893 126.258 21.7187 125.136C21.2843 124.014 20.307 123.942 19.2934 123.942C17.6645 123.942 16.0718 123.978 14.4429 123.942C11.9091 123.869 9.88197 122.24 9.33901 119.888C42.9307 118.657 76.5223 117.426 110.295 116.195C106.929 119.562 103.454 122.458 98.8203 123.399C97.119 123.725 95.3815 123.905 93.644 123.905C72.9025 123.942 52.1611 123.942 31.4197 123.942C31.1302 123.942 30.8406 123.942 30.5872 123.942C29.5736 123.905 28.6325 124.014 28.1981 125.136C27.7637 126.295 28.4877 126.946 29.2479 127.561C51.7268 127.561 74.2057 127.561 96.6846 127.561C98.0239 127.272 99.3632 127.055 100.666 126.693C104.069 125.752 107.037 124.05 109.68 121.697C114.385 117.571 119.055 113.408 123.761 109.282C125.064 108.159 125.969 106.856 126.475 105.227C126.475 104.503 126.475 103.779 126.475 103.055C125.426 99.2185 122.819 97.7706 118.765 97.9516ZM70.7669 14.805C79.02 17.2302 86.2234 21.393 92.8114 26.7503C91.2187 27.4743 89.6984 28.0534 88.2505 28.8136C85.5718 30.2253 83.3999 32.2886 81.3367 34.4604C78.839 37.1391 76.269 39.7815 73.6989 42.3878C72.9025 43.1479 71.889 43.6909 70.7669 44.4511C70.7669 34.3881 70.7669 24.6508 70.7669 14.805ZM61.7536 9.01331C61.7536 7.13102 61.826 7.02243 63.7445 7.02243C64.215 7.02243 64.7218 7.02243 65.1924 7.02243C66.9661 7.02243 67.1109 7.16722 67.1109 8.97712C67.1109 38.768 67.1109 68.5589 67.1109 98.3136C67.1109 98.7479 67.1109 99.1823 67.1109 99.7615C65.301 99.7615 63.6359 99.7615 61.7536 99.7615C61.7536 99.4357 61.7536 99.0013 61.7536 98.5669C61.7536 68.7399 61.7536 38.8766 61.7536 9.01331ZM24.5421 89.3727C24.6507 89.0107 24.7955 88.6849 24.9765 88.3591C35.7635 66.4232 46.5867 44.4873 57.4098 22.5513C57.5546 22.2256 57.7356 21.936 58.0614 21.3568C58.0614 44.2701 58.0614 66.8214 58.0614 89.4813C57.5908 89.5175 57.1203 89.5899 56.6497 89.6261C46.6229 89.9881 36.6322 90.3138 26.6054 90.6758C26.2072 90.6758 25.7729 90.712 25.4109 90.6758C24.6869 90.5672 24.3249 90.1328 24.5421 89.3727ZM58.0614 93.3183C58.0614 95.5987 58.0614 97.7344 58.0614 100.087C47.021 100.485 36.0169 100.847 24.7593 101.246C25.3385 99.7977 25.99 98.5308 26.2796 97.1914C26.7864 94.8024 28.0895 94.1508 30.4786 94.1146C39.4195 93.9698 48.3242 93.5716 57.265 93.2821C57.5184 93.2821 57.7356 93.2821 58.0614 93.3183ZM121.553 106.422C119.525 108.232 117.498 110.005 115.435 111.779C115.109 112.069 114.603 112.286 114.168 112.286C99.7252 112.865 85.246 113.444 70.8031 114.023C67.7262 114.132 64.6494 114.277 61.6088 114.422C61.6088 114.458 61.6088 114.458 61.6088 114.494C44.1614 115.037 26.714 115.544 9.26661 116.087C8.50645 116.123 8.21687 115.87 8.03588 115.146C7.45671 112.648 6.76895 110.15 6.15359 107.653C5.79161 106.205 6.26218 105.553 7.7463 105.517C18.9677 105.119 30.189 104.721 41.4466 104.322C56.7583 103.779 72.07 103.236 87.3817 102.73C98.1687 102.368 108.956 102.006 119.743 101.644C121.48 101.571 122.349 102.078 122.783 103.273C123.218 104.612 122.53 105.553 121.553 106.422Z" fill="#19918E" stroke="white" stroke-miterlimit="10"/>
</svg>
