<svg width="141" height="141" viewBox="0 0 141 141" fill="none" xmlns="http://www.w3.org/2000/svg">
<path d="M4.95703 100.72C5.58125 99.4344 6.64609 99.1407 8.04141 99.1407C13.1453 99.1774 18.2859 99.1774 23.6102 99.1774C23.6102 98.5899 23.6102 98.0391 23.6102 97.5251C23.7938 73.3274 23.9406 49.1297 24.1242 24.9688C24.1609 18.4696 28.1266 13.2188 34.1484 11.75C35.3602 11.4563 36.682 11.3461 37.9305 11.3461C65.8367 11.3094 93.743 11.3094 121.649 11.3461C130.021 11.3461 136.006 17.3313 136.043 25.7032C136.043 31.5415 136.043 37.3797 136.043 43.2547C136.043 45.7149 135.345 46.4126 132.922 46.4126C126.606 46.4126 120.291 46.4126 113.975 46.4126C113.498 46.4126 113.057 46.4126 112.433 46.4126C112.433 47.0735 112.433 47.5876 112.433 48.1383C112.433 69.0313 112.433 89.961 112.433 110.854C112.433 118.712 109.018 124.513 101.968 128.075C98.957 129.581 95.6891 129.727 92.3844 129.727C69.2516 129.691 46.1188 129.801 23.0227 129.691C12.8516 129.654 6.31563 122.09 5.17734 114.416C5.14063 114.232 5.03047 114.048 4.95703 113.865C4.95703 109.422 4.95703 105.052 4.95703 100.72ZM27.7961 99.1407C28.4937 99.1407 29.0078 99.1407 29.5219 99.1407C45.6047 99.1407 61.6875 99.1407 77.7703 99.1407C80.1203 99.1407 80.818 99.8016 80.818 102.188C80.818 105.089 80.8547 107.99 80.818 110.891C80.7813 115.738 82.6172 119.63 86.4359 122.677C91.6867 126.9 100.279 126.056 104.612 120.915C107.072 118.014 108.21 114.746 108.21 110.927C108.173 82.6907 108.21 54.454 108.173 26.1805C108.173 23.3899 108.688 20.7461 110.193 18.3594C110.744 17.4782 111.368 16.5969 112.102 15.5321C111.441 15.5321 110.927 15.5321 110.45 15.5321C96.1664 15.5321 81.8461 15.5321 67.5625 15.5321C57.832 15.5321 48.1016 15.5321 38.3711 15.5321C35.0664 15.5321 32.2758 16.4868 30.1828 19.1672C28.7141 21.0399 28.3469 23.243 28.3469 25.5563C28.1633 49.6071 27.9797 73.6946 27.8328 97.7454C27.7961 98.1493 27.7961 98.5899 27.7961 99.1407ZM9.36328 103.473C9.36328 107.035 9.03281 110.487 9.43672 113.828C10.2078 120.107 15.9359 125.505 23.6469 125.431C42.8875 125.321 62.1281 125.395 81.4055 125.395C81.8094 125.395 82.2133 125.358 82.8375 125.321C82.4703 124.954 82.2867 124.697 82.0297 124.477C79.2391 121.686 77.293 118.381 76.8891 114.416C76.5586 111.295 76.6688 108.1 76.5953 104.979C76.5953 104.502 76.5953 103.988 76.5953 103.473C54.0867 103.473 31.725 103.473 9.36328 103.473ZM112.433 42.0063C118.969 42.0063 125.284 42.0063 131.637 42.0063C131.673 41.8227 131.747 41.7125 131.747 41.5657C131.747 35.8375 131.747 30.1461 131.673 24.418C131.637 21.9211 130.498 19.7915 128.626 18.1391C125.615 15.4219 122.09 14.7977 118.418 16.3399C114.746 17.9188 112.69 20.8196 112.47 24.8586C112.359 27.1719 112.433 29.4485 112.433 31.7618C112.433 35.1766 112.433 38.5547 112.433 42.0063Z" fill="#123D83" stroke="white" stroke-miterlimit="10"/>
<path d="M85.7381 43.9523C85.6279 47.1101 85.7381 50.3046 85.2975 53.389C84.6365 57.7585 82.2865 61.3203 78.6147 63.8539C75.31 66.1304 72.0053 68.407 68.7006 70.6468C67.2686 71.6382 66.6443 71.6382 65.2123 70.6835C61.8709 68.407 58.4928 66.1671 55.1881 63.8171C50.635 60.5859 48.3217 56.1062 48.2115 50.5617C48.1381 45.825 48.2115 41.0882 48.1748 36.3515C48.1748 35.0296 48.6889 34.2218 49.8639 33.6343C55.0412 31.1375 60.1818 28.5671 65.3225 26.0335C66.3506 25.5195 67.342 25.4828 68.3701 25.9968C73.5475 28.5671 78.7615 31.1375 83.9389 33.671C85.1139 34.2585 85.6279 35.1031 85.5912 36.425C85.5178 38.9218 85.5912 41.4554 85.5912 43.989C85.6647 43.9523 85.7014 43.9523 85.7381 43.9523ZM52.4709 44.7601C52.4709 46.6695 52.4342 48.6156 52.4709 50.525C52.5811 54.7476 54.3068 58.089 57.7951 60.4757C60.549 62.3851 63.3397 64.2578 66.0936 66.2039C66.6811 66.6078 67.0483 66.6445 67.6725 66.2406C70.61 64.1843 73.6209 62.2382 76.5217 60.1453C79.3858 58.0523 81.1483 55.1515 81.2951 51.6265C81.5154 47.0734 81.4053 42.5203 81.3686 37.9304C81.3686 37.5632 80.9647 37.0125 80.5975 36.8289C76.3014 34.6625 72.0053 32.5328 67.6725 30.4398C67.2686 30.2562 66.5709 30.2562 66.167 30.4765C61.8709 32.5328 57.5748 34.6625 53.3522 36.8289C52.9482 37.0492 52.5443 37.7101 52.5443 38.1507C52.3975 40.3171 52.4709 42.5203 52.4709 44.7601Z" fill="#19918E" stroke="white" stroke-miterlimit="10"/>
<path d="M67.8196 91.2094C59.7047 91.2094 51.6266 91.2094 43.5117 91.2094C43.1446 91.2094 42.7407 91.2461 42.3735 91.1727C41.1617 91.0258 40.3172 90.218 40.2805 89.1165C40.2438 87.9782 41.0516 87.0969 42.3367 86.9133C42.7407 86.8399 43.1813 86.8766 43.6219 86.8766C59.7782 86.8766 75.9711 86.8766 92.1274 86.8766C92.7149 86.8766 93.3391 86.9133 93.8899 87.0602C94.8813 87.3172 95.3953 88.0149 95.3953 89.0063C95.3953 89.9977 94.918 90.7321 93.9266 90.9891C93.4125 91.136 92.825 91.136 92.2742 91.136C84.1227 91.2094 75.9711 91.2094 67.8196 91.2094Z" fill="#19918E" stroke="white" stroke-miterlimit="10"/>
<path d="M67.7831 77.146C75.9346 77.146 84.0862 77.146 92.2377 77.146C92.7151 77.146 93.1924 77.1093 93.633 77.2194C94.7346 77.4398 95.3588 78.1374 95.3588 79.2757C95.3588 80.414 94.7713 81.1116 93.633 81.2952C93.119 81.3687 92.6049 81.4054 92.0909 81.4054C75.8979 81.4054 59.6682 81.4054 43.4752 81.4054C42.9979 81.4054 42.5206 81.4054 42.0799 81.3319C40.9416 81.1484 40.2073 80.3038 40.244 79.239C40.2807 78.1741 41.0518 77.3296 42.1901 77.2194C42.594 77.1827 43.0346 77.1827 43.4752 77.1827C51.5901 77.146 59.7049 77.146 67.7831 77.146Z" fill="#19918E" stroke="white" stroke-miterlimit="10"/>
<path d="M64.772 49.754C67.0119 47.5141 69.1049 45.4211 71.1611 43.3649C71.5283 42.9977 71.8955 42.6305 72.3361 42.4102C73.2174 41.9696 74.0986 42.1165 74.7595 42.8508C75.4205 43.5852 75.5306 44.4665 75.0166 45.311C74.7963 45.6782 74.5025 45.9719 74.2088 46.3024C71.7486 48.7626 69.2885 51.2594 66.7916 53.7196C65.2861 55.2251 64.258 55.1883 62.7892 53.7196C61.6877 52.6547 60.6228 51.5532 59.558 50.4516C58.2361 49.093 58.0892 47.8813 59.0806 46.8899C60.0721 45.9352 61.2838 46.1555 62.6424 47.5141C63.34 48.1751 64.001 48.9094 64.772 49.754Z" fill="#19918E" stroke="white" stroke-miterlimit="10"/>
</svg>
