<svg width="124" height="124" viewBox="0 0 124 124" fill="none" xmlns="http://www.w3.org/2000/svg">
<g clip-path="url(#clip0_1218_2188)">
<path d="M0 59.0937C0.839583 56.3489 2.80937 55.025 5.58646 54.9927C7.33021 54.9604 8.1375 53.9916 8.71875 52.5385C9.46146 50.6333 10.6562 49.2125 12.8521 48.8895C15.0156 48.5666 17.0823 49.4062 17.8896 51.4083C18.8906 53.9916 20.5375 54.9927 23.25 55.3156C26.9958 55.7677 28.5135 60.3531 26.0594 63.2593C25.575 63.8406 25.026 64.4218 24.4448 64.8739C23.476 65.6166 23.3469 66.5208 23.5406 67.651C23.7344 68.8781 23.9927 70.1697 23.7667 71.3322C23.1854 74.4322 19.7625 76.2729 17.0823 74.7229C14.6281 73.302 12.7229 73.3343 10.2365 74.7229C7.00729 76.4989 3.22917 73.7864 3.39062 70.0406C3.42292 69.1687 3.58437 68.2645 3.77812 67.4249C4.03646 66.4562 3.77813 65.7135 3.00312 65.0677C1.74375 63.9374 0.484375 62.7749 0 61.0635C0 60.3854 0 59.7395 0 59.0937ZM7.00729 69.9114C6.975 71.2354 7.81458 71.8166 8.9125 71.3645C9.52604 71.1062 10.1396 70.7833 10.7208 70.4281C12.626 69.2979 14.5312 69.2656 16.4365 70.3958C16.9854 70.7187 17.5667 71.0739 18.1479 71.2676C18.6323 71.3968 19.3427 71.4937 19.6979 71.2354C20.0531 70.977 20.1823 70.2666 20.1823 69.7822C20.1823 69.0718 19.9562 68.3614 19.8271 67.651C19.5042 65.6812 19.9885 63.9697 21.5385 62.6135C22.0875 62.1291 22.6042 61.6124 23.0885 61.0958C23.9927 60.0947 23.6698 59.0614 22.3458 58.7708C21.5708 58.6093 20.7635 58.5124 19.9562 58.4156C18.1479 58.1895 16.824 57.2531 15.9844 55.6062C15.6937 55.025 15.5 54.3791 15.1125 53.8947C14.725 53.3458 14.1437 52.6031 13.6594 52.5708C13.175 52.5708 12.5938 53.3135 12.174 53.8302C11.8187 54.2822 11.625 54.8958 11.3667 55.4447C10.5271 57.1562 9.17083 58.1895 7.23333 58.4156C6.45833 58.5124 5.71562 58.6093 4.97292 58.7708C3.58437 59.0614 3.22917 60.127 4.19792 61.1281C4.71458 61.677 5.29583 62.1937 5.84479 62.7427C7.29792 64.1312 7.81458 65.8104 7.39479 67.8124C7.20104 68.5229 7.10417 69.2979 7.00729 69.9114Z" fill="#19918E" stroke="white" stroke-miterlimit="10"/>
<path d="M124 61.0314C123.483 62.7428 122.288 63.9053 120.997 65.0355C120.254 65.6814 119.996 66.3918 120.222 67.3928C120.448 68.3293 120.609 69.298 120.609 70.2668C120.641 73.7866 116.96 76.4345 113.892 74.7553C111.341 73.3345 109.307 73.2376 106.821 74.7876C105.206 75.7887 103.333 75.3366 101.848 74.0772C100.395 72.8824 99.6519 71.2678 100.169 69.4595C100.814 67.0699 100.459 65.2616 98.3602 63.6793C96.7456 62.4522 96.3581 60.5793 96.9716 58.6418C97.5852 56.672 99.006 55.348 101.105 55.2512C103.559 55.122 105.077 54.1209 105.916 51.7637C106.627 49.8262 108.306 48.8574 110.405 48.8897C112.439 48.8897 114.086 49.8585 114.797 51.7637C115.636 53.9918 116.992 55.1866 119.479 55.2512C121.901 55.348 123.257 56.9626 124 59.1584C124 59.7397 124 60.3855 124 61.0314ZM115.539 71.5584C116.573 71.4616 117.057 71.0095 116.992 70.1376C116.928 69.3303 116.799 68.523 116.637 67.748C116.217 65.7459 116.766 64.0991 118.22 62.7105C118.801 62.1616 119.414 61.6126 119.931 60.9991C120.706 60.0949 120.383 59.0939 119.221 58.8032C118.413 58.6095 117.541 58.5126 116.702 58.4157C114.829 58.1574 113.505 57.1887 112.665 55.5095C112.31 54.8314 112.052 54.0887 111.632 53.4751C111.341 53.0553 110.792 52.5387 110.405 52.5387C109.921 52.5709 109.372 53.0553 109.049 53.5074C108.597 54.1209 108.338 54.8637 108.015 55.5418C107.176 57.2209 105.82 58.1897 103.947 58.4157C103.236 58.5126 102.461 58.5126 101.815 58.7709C101.299 58.9324 100.685 59.3199 100.491 59.772C100.362 60.1272 100.685 60.8053 101.008 61.2251C101.428 61.8064 102.009 62.2584 102.558 62.7751C103.882 64.0345 104.431 65.5522 104.173 67.3605C104.044 68.2001 103.817 69.0397 103.785 69.8793C103.753 70.3637 103.914 71.0418 104.205 71.2678C104.592 71.5262 105.238 71.4293 105.755 71.397C106.046 71.3647 106.336 71.1387 106.627 70.9772C109.146 69.2334 111.664 69.2657 114.183 70.9772C114.603 71.2032 115.152 71.3647 115.539 71.5584Z" fill="#19918E" stroke="white" stroke-miterlimit="10"/>
<path d="M61.2899 59.1906C61.2899 55.9292 61.2576 52.6677 61.2899 49.374C61.3222 46.5 63.3889 44.2719 66.166 43.9812C68.9108 43.6906 71.3649 45.4344 72.0108 48.1469C72.1399 48.7281 72.1399 49.3417 72.1399 49.9552C72.1399 55.7677 72.3337 61.5802 72.0754 67.3927C71.9139 70.5896 75.2722 72.1396 77.6618 71.3323C79.6962 70.6542 80.4389 69.6531 80.4389 67.5219C80.4389 61.5802 80.4066 55.6708 80.4389 49.7292C80.4712 45.951 83.4097 43.4646 86.9295 44.0781C89.1899 44.4656 91.0629 46.4354 91.2566 48.6958C91.3535 50.0521 91.3212 51.4406 91.2889 52.7969C91.2566 53.8302 90.6754 54.4437 89.6097 54.5083C88.6087 54.5729 87.866 53.9594 87.7045 52.8937C87.6399 52.4094 87.6399 51.925 87.6722 51.4406C87.8014 48.3083 87.4785 47.7271 85.8962 47.6625C84.5077 47.5979 83.9587 48.1792 84.0233 51.5052C84.1202 56.7042 83.9264 61.9354 84.0879 67.1344C84.1847 70.525 82.8931 72.9146 79.8576 74.3354C76.7899 75.7562 73.8191 75.4979 71.1066 73.399C69.3629 72.0427 68.491 70.299 68.491 68.0708C68.5233 62.1937 68.491 56.2844 68.491 50.4073C68.491 50.0521 68.5233 49.6646 68.4587 49.3094C68.3618 48.276 67.7483 47.6625 66.7472 47.6302C65.7139 47.5979 65.1004 48.1792 64.9066 49.1802C64.842 49.5354 64.8743 49.8906 64.8743 50.2781C64.8743 55.9937 65.1326 61.7417 64.8097 67.4573C64.3576 75.4979 73.2379 81.2135 80.9233 77.8552C85.3472 75.9177 87.8983 72.6562 87.7045 67.5865C87.6077 65.326 87.6722 63.0656 87.7045 60.8052C87.7045 60.3531 87.7045 59.901 87.8337 59.4812C88.092 58.5771 88.7702 58.1573 89.6743 58.2219C90.5462 58.2865 91.2889 58.8031 91.2889 59.7396C91.2889 63.4208 91.6118 67.1344 91.0629 70.7187C90.1264 76.9187 85.7993 80.3417 80.0514 81.924C72.4306 84.0229 64.067 79.5344 61.9035 72.301C61.516 70.9771 61.3545 69.524 61.2899 68.1354C61.2254 65.1646 61.2899 62.1615 61.2899 59.1906Z" fill="#123D83" stroke="white" stroke-miterlimit="10"/>
<path d="M46.2738 54.9603C46.2738 55.9291 46.2738 56.7364 46.2738 57.7374C48.0499 57.7374 49.7613 57.7051 51.5051 57.7374C53.7978 57.802 55.5093 58.9322 56.4134 61.0312C57.2853 63.0656 56.9301 65.0031 55.5415 66.6822C54.4113 68.0385 52.8936 68.6197 51.1499 68.5874C49.5353 68.5874 47.953 68.5874 46.2738 68.5874C46.2738 69.5562 46.2738 70.3958 46.2738 71.3968C48.3082 71.3968 50.3749 71.3322 52.4093 71.3968C54.7343 71.4614 56.4134 72.6239 57.2853 74.7551C58.1572 76.8864 57.7697 78.8885 56.1874 80.5676C55.154 81.6978 53.8301 82.2468 52.3124 82.2468C48.4374 82.2791 44.5624 82.3114 40.6874 82.2468C37.652 82.2145 35.3592 79.8572 35.327 76.8218C35.2947 67.7156 35.2947 58.577 35.327 49.4708C35.327 46.3062 37.6842 44.0135 40.8811 44.0135C44.627 43.9812 48.3728 43.9812 52.1509 44.0135C55.3155 44.0458 57.6728 46.3062 57.7051 49.3416C57.7374 52.4416 55.4124 54.8312 52.2155 54.8958C50.278 54.9926 48.3728 54.9603 46.2738 54.9603ZM38.9759 63.1947C38.9759 67.5864 38.9759 71.9781 38.9759 76.3697C38.9759 78.0166 39.5895 78.6624 41.2363 78.6624C44.7884 78.6624 48.3405 78.6624 51.8926 78.6624C53.3134 78.6624 54.1207 77.9843 54.0884 76.8218C54.0884 75.6593 53.3134 75.0458 51.8603 75.0135C49.4707 75.0135 47.1134 75.0135 44.7238 75.0135C43.303 75.0135 42.6572 74.3353 42.6249 72.9468C42.5926 71.1062 42.6249 69.2333 42.6249 67.3926C42.6249 65.552 43.1738 65.0031 44.9822 64.9708C46.9843 64.9708 49.0186 65.0354 51.0207 64.9385C51.6988 64.9062 52.5707 64.551 52.9582 64.0343C53.8301 62.9041 52.8613 61.3864 51.2468 61.3541C49.1155 61.2895 46.9843 61.3541 44.8207 61.3218C43.2384 61.2895 42.6249 60.676 42.6249 59.126C42.6249 57.2208 42.5926 55.3479 42.6249 53.4426C42.6249 51.9572 43.2707 51.3114 44.7561 51.3114C47.0488 51.3114 49.3415 51.3114 51.6665 51.3114C53.2811 51.3114 54.1207 50.6656 54.0884 49.4708C54.0884 48.3083 53.2811 47.6947 51.7311 47.6947C48.2759 47.6947 44.7884 47.6947 41.3332 47.6947C39.5895 47.6947 39.0082 48.276 39.0082 50.0197C38.9436 54.4114 38.9759 58.8031 38.9759 63.1947Z" fill="#123D83" stroke="white" stroke-miterlimit="10"/>
<path d="M75.8854 108.565C75.4011 109.598 74.949 110.631 74.4 111.632C74.1094 112.149 73.625 112.569 73.1407 112.924C71.849 113.86 71.5584 115.023 72.0104 116.508C72.1719 117.057 72.2365 117.606 72.2688 118.187C72.624 121.836 69.0073 124.581 65.5844 123.225C64.874 122.934 64.1636 122.611 63.55 122.192C62.4844 121.449 61.4834 121.513 60.4177 122.224C59.7719 122.644 59.0938 122.999 58.3834 123.257C54.9605 124.581 51.15 121.772 51.8282 118.187C52.3448 115.507 51.8605 113.667 49.7938 111.761C46.8875 109.081 48.4698 104.237 52.3771 103.721C55.1219 103.366 56.6073 102.203 57.8021 99.7166C59.449 96.2291 64.5834 96.2291 66.1979 99.7489C67.3927 102.3 68.9104 103.43 71.6552 103.688C74.1094 103.882 75.5948 106.013 75.8854 108.565ZM72.2042 108.145C71.7198 107.757 71.3 107.305 70.7834 107.111C70.1698 106.885 69.4271 106.853 68.749 106.788C66.5854 106.562 65.0677 105.497 64.1959 103.527C63.9052 102.913 63.6146 102.3 63.2917 101.686C62.6136 100.459 61.4834 100.427 60.8052 101.654C60.4177 102.332 60.1271 103.01 59.7719 103.721C58.9 105.561 57.4469 106.53 55.4448 106.788C54.7344 106.885 53.9917 106.95 53.2813 107.079C52.0219 107.337 51.6344 108.468 52.5063 109.404C53.023 109.953 53.6042 110.47 54.1532 111.019C55.5417 112.375 56.1875 113.99 55.7677 115.927C55.6063 116.702 55.4771 117.509 55.3802 118.317C55.2511 119.576 56.1552 120.222 57.2854 119.705C58.0282 119.382 58.7386 118.995 59.4167 118.607C61.0959 117.671 62.8073 117.671 64.4865 118.575C65.1323 118.93 65.7459 119.35 66.424 119.544C66.9407 119.705 67.6511 119.802 68.0709 119.544C68.3938 119.35 68.4584 118.607 68.5552 118.091C68.6198 117.8 68.5229 117.445 68.4261 117.154C67.5865 114.377 68.2969 112.084 70.5896 110.276C70.9448 110.018 71.2677 109.695 71.5261 109.34C71.7521 109.081 71.8813 108.726 72.2042 108.145Z" fill="#19918E" stroke="white" stroke-miterlimit="10"/>
<path d="M32.453 40.9459C31.7749 40.6553 30.4187 40.1386 29.1916 39.4928C28.2228 38.9761 27.4155 38.8792 26.5114 39.4928C25.8655 39.9125 25.1874 40.2355 24.477 40.5584C22.701 41.3011 20.9895 41.1396 19.4718 39.9771C17.9541 38.7823 17.1468 37.1678 17.6635 35.2948C18.3416 32.8407 17.8895 31 15.7905 29.4178C14.2082 28.223 13.8853 26.35 14.4343 24.4771C15.0155 22.5396 16.3718 21.1511 18.4062 21.0865C21.1187 20.9896 22.6041 19.7303 23.5405 17.2761C24.251 15.4678 25.8978 14.6605 27.803 14.6282C29.7082 14.6282 31.452 15.4355 32.0978 17.2115C33.0343 19.8594 34.778 20.7313 37.4583 21.1188C41.301 21.6678 42.9478 26.4146 40.1385 29.0625C38.0718 31 37.4905 32.8407 38.0072 35.5855C38.5239 38.5563 36.1343 40.9459 32.453 40.9459ZM33.0989 37.3615C34.003 37.2323 34.4874 36.8125 34.4228 35.973C34.3582 35.1011 34.1968 34.2292 34.0353 33.3573C33.6801 31.5167 34.1968 29.9344 35.5208 28.6105C36.102 28.0292 36.7478 27.5448 37.2322 26.899C37.5228 26.5115 37.8135 25.8334 37.6843 25.4136C37.5551 24.9938 36.9093 24.6709 36.4249 24.5094C35.7791 24.2834 35.0687 24.2834 34.3905 24.1865C32.3885 23.9605 30.9353 22.9594 30.0635 21.1188C29.8374 20.6021 29.6437 20.0532 29.2885 19.6011C28.8687 19.0521 28.3197 18.2771 27.8353 18.2771C27.351 18.2448 26.7697 19.0198 26.3499 19.5688C25.9947 20.0209 25.7687 20.6344 25.5103 21.1834C24.6707 22.9594 23.2499 23.9605 21.2801 24.1865C20.5697 24.2834 19.827 24.2834 19.1489 24.5094C18.6645 24.6709 18.1155 25.0584 17.9541 25.4782C17.8249 25.8334 18.1478 26.4146 18.3416 26.8667C18.4707 27.125 18.7614 27.3511 19.0197 27.5448C21.377 29.3855 22.1843 31.7105 21.3447 34.6167C21.2478 35.0042 21.1832 35.3917 21.151 35.8115C21.0541 36.8771 21.8937 37.5553 22.9593 37.2323C23.0239 37.2 23.0885 37.1678 23.1853 37.1355C23.2499 37.1032 23.3468 37.0709 23.4114 37.0386C26.3499 34.9396 29.2885 34.875 32.227 37.0063C32.4853 37.2 32.8405 37.2646 33.0989 37.3615Z" fill="#19918E" stroke="white" stroke-miterlimit="10"/>
<path d="M100.782 40.9458C100.137 40.6552 98.8126 40.1708 97.6178 39.4927C96.6168 38.9437 95.7772 38.8469 94.8084 39.4927C94.1303 39.9448 93.4199 40.3 92.6772 40.5906C89.4157 41.9146 85.8636 39.525 85.9605 36.0052C85.9928 35.0042 86.1543 34.0031 86.3803 33.0344C86.5741 32.1948 86.3803 31.5489 85.7345 30.9677C85.1209 30.3864 84.4751 29.8052 83.9261 29.1917C81.2782 26.2531 82.6991 21.6031 86.6064 21.0864C89.2866 20.7312 90.8043 19.6979 91.9668 17.1791C93.6136 13.5948 98.748 13.5948 100.427 17.1469C101.622 19.6656 103.14 20.7312 105.884 21.1187C109.695 21.6354 111.116 26.2854 108.532 29.1594C108.113 29.6437 107.661 30.1281 107.144 30.5156C105.981 31.3552 105.884 32.4208 106.143 33.7125C106.337 34.8104 106.53 35.9729 106.337 37.0385C105.981 39.4281 103.915 40.9781 100.782 40.9458ZM96.2293 35.1979C97.0366 35.4562 97.8116 35.65 98.5543 35.9406C99.3293 36.2635 100.04 36.8125 100.815 37.0708C101.267 37.2323 101.977 37.2323 102.365 36.9739C102.688 36.7479 102.817 36.0698 102.817 35.6177C102.817 34.9396 102.623 34.2614 102.494 33.5833C102.074 31.4521 102.655 29.676 104.302 28.2552C104.754 27.8677 105.271 27.4802 105.562 26.9635C105.852 26.5114 106.207 25.801 106.046 25.3812C105.884 24.9614 105.206 24.6385 104.69 24.4448C104.076 24.251 103.43 24.2187 102.784 24.1542C100.847 23.9281 99.3939 22.9594 98.5543 21.1833C98.1991 20.4729 97.8762 19.7302 97.4564 19.0198C96.8105 17.8573 95.6803 17.8573 95.0345 18.9875C94.647 19.6979 94.3241 20.4406 93.9689 21.151C93.097 22.9271 91.6761 23.8958 89.7386 24.1219C89.0282 24.2187 88.2855 24.2187 87.6074 24.4448C87.123 24.6062 86.5741 24.9937 86.4126 25.4135C86.2834 25.7687 86.5741 26.4146 86.8647 26.7698C87.3491 27.3833 87.9949 27.9 88.5761 28.4812C89.9324 29.8375 90.4814 31.4198 90.0616 33.325C89.9324 34.0031 89.7386 34.6812 89.7386 35.3594C89.7386 35.9083 89.8678 36.6833 90.223 36.9417C90.5782 37.2 91.3532 37.0708 91.8699 36.9094C92.6126 36.651 93.2907 36.1344 94.0334 35.8437C94.647 35.6177 95.4543 35.4562 96.2293 35.1979Z" fill="#19918E" stroke="white" stroke-miterlimit="10"/>
<path d="M109.985 93.097C109.533 94.098 109.081 95.099 108.597 96.1001C108.403 96.4553 108.08 96.7459 107.757 96.972C106.078 98.1668 105.626 99.6522 106.207 101.654C106.789 103.786 106.304 105.755 104.399 107.144C102.526 108.5 100.459 108.5 98.6188 107.176C96.7136 105.82 95.1636 106.304 93.3229 107.338C89.8677 109.243 85.9604 107.144 85.8313 103.398C85.799 102.3 86.2188 101.17 86.2188 100.04C86.2188 99.3938 85.9604 98.6511 85.6052 98.1345C85.1209 97.424 84.3459 96.9074 83.7646 96.2293C81.2136 93.3553 82.699 88.673 86.5094 88.1886C89.1896 87.8657 90.9011 86.9293 91.8698 84.2813C92.5156 82.473 94.2594 81.698 96.1646 81.698C98.0375 81.698 99.7167 82.5053 100.363 84.249C101.331 86.897 103.043 87.9949 105.82 88.1886C108.177 88.3824 109.727 90.6105 109.985 93.097ZM101.299 104.496C102.3 104.399 102.817 103.947 102.752 103.075C102.688 102.203 102.526 101.331 102.365 100.459C102.009 98.6511 102.526 97.1011 103.818 95.8095C104.431 95.1636 105.109 94.6147 105.723 93.9365C106.498 93.0647 106.175 91.999 105.013 91.7407C104.205 91.547 103.333 91.4501 102.494 91.3532C100.685 91.0949 99.3292 90.1907 98.5219 88.5438C98.1344 87.8011 97.8438 86.9938 97.3594 86.2834C97.1011 85.8959 96.5844 85.4115 96.1969 85.4438C95.7448 85.4761 95.1959 85.8959 94.9052 86.3157C94.4531 86.9615 94.1625 87.7365 93.8073 88.447C92.9677 90.1261 91.6115 91.0949 89.7386 91.3209C89.0604 91.4178 88.35 91.4178 87.7042 91.6438C87.1875 91.8053 86.4125 92.1282 86.3156 92.548C86.1865 93.0324 86.5417 93.7428 86.8646 94.2272C87.3167 94.8407 87.9302 95.3251 88.4792 95.8418C89.7063 97.0688 90.2229 98.522 89.9323 100.266C89.7709 101.138 89.6094 102.009 89.5125 102.881C89.3511 104.108 90.2552 104.787 91.4177 104.334C91.7406 104.205 92.0959 104.044 92.3865 103.818C94.9052 102.106 97.424 102.106 99.9427 103.818C100.363 104.108 100.911 104.302 101.299 104.496Z" fill="#19918E" stroke="white" stroke-miterlimit="10"/>
<path d="M75.8854 11.8188C75.401 12.8521 74.9489 13.8855 74.3999 14.8865C74.1093 15.4032 73.6249 15.823 73.1406 16.1782C71.8489 17.1146 71.5583 18.2771 71.9781 19.7626C72.1718 20.473 72.301 21.2803 72.2687 22.023C72.2041 25.5105 68.7166 27.7709 65.4874 26.4146C64.6479 26.0594 63.8729 25.4782 63.001 25.2199C62.3875 25.0261 61.6124 25.0261 60.9666 25.2199C60.127 25.4782 59.3843 26.0271 58.577 26.3824C54.9927 27.9001 51.0854 25.0907 51.7958 21.3126C52.2802 18.6646 51.9572 16.7271 49.7614 15.0157C48.2437 13.8532 48.05 11.9803 48.6312 10.1396C49.2447 8.23444 50.6333 6.94277 52.5708 6.8459C55.1541 6.71673 56.6718 5.6834 57.576 3.26152C58.2864 1.38861 59.9333 0.452148 61.9677 0.452148C64.0343 0.452148 65.6812 1.38861 66.3593 3.26152C67.2635 5.6834 68.8135 6.68444 71.3645 6.8459C73.9479 7.00736 75.5947 9.20319 75.8854 11.8188ZM61.9999 21.0542C62.8395 21.3126 63.6145 21.5063 64.3572 21.7969C65.0999 22.1199 65.7458 22.6042 66.5208 22.8626C67.0052 23.024 67.7156 23.1209 68.0708 22.8949C68.426 22.6688 68.5874 21.9584 68.5874 21.4417C68.5874 20.6344 68.3937 19.8594 68.2322 19.0521C67.877 17.2438 68.426 15.7261 69.7176 14.4344C70.2666 13.8855 70.8801 13.4011 71.3322 12.8199C71.6551 12.3678 71.9458 11.7219 71.8489 11.2376C71.752 10.8501 71.0739 10.5271 70.5895 10.3657C69.9114 10.1396 69.1687 10.1074 68.4583 10.0105C66.4239 9.75215 65.0677 8.68652 64.2281 6.8459C63.9374 6.20007 63.6145 5.52194 63.2593 4.9084C62.6135 3.7459 61.4833 3.7459 60.8374 4.87611C60.4177 5.61881 60.0624 6.39382 59.7072 7.13652C58.8999 8.71881 57.6406 9.68756 55.8968 9.9459C55.025 10.0751 54.1531 10.2042 53.2812 10.3657C52.0541 10.624 51.7312 11.6896 52.5385 12.6261C53.0552 13.2074 53.6041 13.724 54.1854 14.2407C55.6385 15.6292 56.252 17.2761 55.8322 19.2782C55.6708 20.0532 55.5416 20.8605 55.4447 21.6678C55.3479 22.8303 56.252 23.4761 57.3177 23.024C58.0927 22.6688 58.8031 22.1844 59.5781 21.8615C60.3208 21.5386 61.1604 21.3126 61.9999 21.0542Z" fill="#19918E" stroke="white" stroke-miterlimit="10"/>
<path d="M41.7852 93.0646C41.2363 94.1625 40.9457 95.5834 40.0738 96.2615C37.878 98.0052 37.4905 99.9104 38.0394 102.591C38.7821 106.272 34.8425 109.178 31.355 107.725C30.5477 107.37 29.7405 106.982 28.9977 106.53C28.2227 106.046 27.5123 106.046 26.7373 106.53C25.9946 106.982 25.1873 107.402 24.38 107.725C21.0217 109.114 17.405 106.563 17.5988 102.946C17.6634 101.977 17.9863 101.041 17.9863 100.072C17.9863 99.4261 17.728 98.6833 17.3727 98.1667C16.8884 97.4886 16.178 96.9719 15.5967 96.3583C14.305 94.9375 13.8852 93.2584 14.4988 91.4177C15.1123 89.5771 16.404 88.2854 18.3415 88.1886C20.9894 88.0594 22.4748 86.9292 23.5405 84.4427C24.7998 81.4719 28.578 80.8261 30.9998 82.8604C32.0332 83.7323 32.2915 84.8625 31.5811 85.7021C30.903 86.5417 29.9342 86.574 28.804 85.7667C27.8352 85.0886 27.1894 85.25 26.6082 86.2188C26.5113 86.3479 26.4467 86.5094 26.3821 86.6386C25.2842 89.9 23.0238 91.5146 19.5686 91.6115C19.0196 91.6438 18.1477 92.1281 17.9863 92.5802C17.8248 93.0323 18.3092 93.8073 18.6644 94.2917C19.1488 94.9375 19.8269 95.4219 20.3436 96.0031C21.4415 97.1979 21.8613 98.6188 21.603 100.233C21.4415 101.105 21.28 101.977 21.1832 102.849C21.0863 104.108 21.9582 104.722 23.1207 104.205C23.7988 103.915 24.4123 103.559 25.0582 103.204C26.8988 102.139 28.7394 102.171 30.58 103.236C31.1613 103.592 31.7748 103.979 32.4207 104.173C32.905 104.302 33.5832 104.334 33.9707 104.076C34.2936 103.85 34.2936 103.172 34.4227 102.72C34.455 102.655 34.3905 102.558 34.3905 102.494C33.3248 99.1031 34.229 96.3261 37.0707 94.1625C37.4905 93.8396 37.7811 93 37.6519 92.5156C37.555 92.1281 36.8123 91.7729 36.2957 91.5792C35.7144 91.3531 34.9071 91.5146 34.4227 91.1917C33.8738 90.8042 33.2602 90.0292 33.2925 89.4479C33.3248 88.8667 34.0998 87.9302 34.6165 87.8979C36.8123 87.7365 39.0405 87.9625 40.4613 89.9969C41.0425 90.8365 41.3009 91.9021 41.7852 93.0646Z" fill="#19918E" stroke="white" stroke-miterlimit="10"/>
</g>
<defs>
<clipPath id="clip0_1218_2188">
<rect width="124" height="124" fill="white"/>
</clipPath>
</defs>
</svg>
