<svg width="143" height="121" viewBox="0 0 143 121" fill="none" xmlns="http://www.w3.org/2000/svg">
<g clip-path="url(#clip0_1201_2182)">
<path d="M0.13916 72.5162C0.974603 71.8176 1.67081 70.9792 2.50625 70.5601C7.65815 68.3245 12.9493 66.2286 18.2404 64.1328C18.6581 63.9931 19.0759 63.8534 19.4936 63.5739C18.9366 60.7794 18.2404 57.985 17.9619 55.1905C17.405 50.8591 16.9873 46.5277 16.848 42.0566C16.7088 36.0485 16.848 29.9007 16.848 23.8926C16.848 20.8187 17.8227 19.8406 20.886 19.5612C28.6835 18.8626 35.5063 13.9723 37.5949 6.98614C37.8733 5.86836 38.1518 4.75058 38.2911 3.77252C38.5695 1.11778 39.6835 0 42.329 0C61.6835 0 81.1771 0 100.532 0C103.038 0 104.291 0.97806 104.57 3.49307C105.266 11.3176 111.671 17.7448 120.164 19.2818C121 19.4215 121.975 19.4215 122.81 19.5612C124.759 19.8406 126.013 20.9584 126.013 22.9146C125.873 33.254 126.57 43.5935 125.177 53.933C124.759 57.1467 123.924 60.2206 123.367 63.5739C125.177 64.2725 126.987 64.9711 128.797 65.6697C132.835 67.3464 136.873 69.0231 140.772 70.6998C143.139 71.6778 143.278 73.7737 141.329 75.4503C138.127 78.1051 135.063 80.7598 131.861 83.2748C131.025 83.9734 130.886 84.5323 131.164 85.6501C132.557 90.261 133.81 95.0116 135.202 99.7621C135.62 101.02 135.899 102.277 134.646 103.395C133.392 104.373 132.278 103.954 131.025 103.395C123.785 100.042 116.266 97.2471 108.468 95.0116C107.354 94.7321 106.658 94.7321 105.823 95.7102C96.7721 106.609 85.3544 114.293 72.8227 120.441C71.7088 121 70.7341 121 69.6202 120.441C57.0885 114.293 45.6708 106.469 36.6202 95.5704C35.924 94.7321 35.2278 94.5924 34.2531 94.8718C26.4556 97.1074 18.9366 99.9019 11.5569 103.255C11.1392 103.674 10.443 103.954 9.74676 104.094C8.07587 104.233 6.82271 102.557 7.37967 100.74C8.63283 95.8499 10.0252 91.0993 11.5569 86.209C11.9746 84.8118 11.8354 83.9734 10.7214 83.1351C7.93663 80.8995 5.15182 78.5243 2.36701 76.149C1.67081 75.5901 0.974603 74.8915 0.278401 74.1928C0.13916 73.6339 0.13916 73.0751 0.13916 72.5162ZM42.6075 4.47113C40.2404 16.4873 32.5822 22.3557 21.0252 24.0323C21.0252 29.4815 20.886 34.9307 21.0252 40.3799C21.1645 45.2702 21.443 50.3002 22.1392 55.0508C23.81 65.9492 27.9873 76.0092 34.1138 85.2309C42.329 97.5266 53.329 106.888 66.2784 113.734C67.9493 114.573 69.6202 116.11 71.1518 116.11C72.8227 116.11 74.6328 114.712 76.3037 113.734C93.4303 104.932 106.519 92.2171 114.734 74.612C118.911 65.8095 121.278 56.5878 121.696 46.8072C121.975 39.4018 121.835 32.1363 121.975 24.7309C121.975 24.4515 121.975 24.1721 121.835 24.0323C110.278 22.2159 102.759 16.3476 100.392 4.47113C81.1771 4.47113 61.962 4.47113 42.6075 4.47113ZM12.5316 79.2229C13.5063 80.0612 14.3417 80.8995 15.1771 81.5982C16.4303 82.5762 16.7088 83.8337 16.1518 85.3707C15.7341 86.4885 15.4556 87.6062 15.0379 89.0035C19.6328 87.3268 23.9493 85.7898 28.2657 84.2529C26.7341 81.179 25.2025 78.2448 23.5316 75.1709C19.9113 76.4284 16.4303 77.6859 12.5316 79.2229ZM127.823 88.724C127.544 87.746 127.405 86.9076 126.987 86.0693C126.013 83.8337 126.57 82.1571 128.519 80.8995C129.215 80.4804 129.772 79.7818 130.468 79.0831C126.57 77.6859 122.949 76.2887 119.19 75.0312C117.658 78.1051 116.127 81.0393 114.595 84.1132C119.051 85.6501 123.367 87.1871 127.823 88.724ZM130.608 98.2252C130.19 96.828 129.911 95.5704 129.494 94.3129C129.354 94.0335 129.076 93.754 128.797 93.6143C123.506 91.7979 118.354 89.8418 113.063 88.1651C112.785 88.0254 112.089 88.1651 111.949 88.4446C111.253 89.1432 110.696 90.1213 110.278 90.8199C116.823 93.1952 123.646 95.7102 130.608 98.2252ZM12.3923 98.2252C19.3544 95.7102 26.0379 93.3349 32.8607 90.8199C32.443 90.261 32.0252 89.7021 31.6075 89.0035C31.0506 88.0254 30.4936 87.8857 29.3797 88.1651C24.367 90.1212 19.3544 91.9376 14.3417 93.754C13.924 93.8938 13.5063 94.1732 13.367 94.5924C12.9493 95.8499 12.6708 96.9677 12.3923 98.2252ZM20.886 67.6259C15.8733 69.582 10.9999 71.5381 5.84802 73.634C6.82271 74.4723 7.65815 75.1709 8.35435 75.7298C8.63283 75.8695 9.18979 76.0092 9.46828 76.0092C13.6455 74.4723 17.8227 72.7956 22.1392 71.2587C21.7214 69.8614 21.3037 68.8834 20.886 67.6259ZM137.013 73.4942C132 71.5381 126.987 69.582 121.975 67.4861C121.557 68.8834 121.139 69.8614 120.721 70.9792C124.342 72.2367 127.823 73.4942 131.304 74.8915C133.392 75.8695 135.063 75.5901 136.456 73.9134C136.595 73.9134 136.734 73.9134 137.013 73.4942Z" fill="#123D83" stroke="white" stroke-width="2" stroke-miterlimit="10"/>
<path d="M79.7848 70.5601C81.7341 70.5601 83.5443 70.5601 85.2151 70.5601C87.5822 70.5601 88.6962 71.6779 88.6962 74.0532C88.6962 76.2887 88.6962 78.5243 88.6962 80.7599C88.6962 82.9954 87.5822 83.9735 85.3544 83.9735C75.886 83.9735 66.2784 83.9735 56.8101 83.9735C54.5822 83.9735 53.6076 82.8557 53.6076 80.6202C53.6076 78.3846 53.6076 76.149 53.6076 73.9135C53.6076 71.6779 54.7215 70.5601 57.0886 70.5601C59.3164 70.5601 61.5443 70.5601 63.9114 70.5601C63.9114 62.037 63.9114 53.6536 63.9114 44.9908C62.7974 45.9689 61.6835 46.8072 60.5696 47.7853C58.3417 49.6017 56.9493 49.462 55.1392 47.2264C53.7468 45.41 52.3544 43.7333 51.1012 41.9169C49.7088 40.1005 49.8481 38.7033 51.5189 37.1663C56.3924 32.9747 61.2658 28.9227 66.2784 24.8707C66.9746 24.3118 68.0886 24.0324 68.924 23.8927C71.4303 23.7529 73.7974 23.8927 76.3038 23.8927C78.6708 23.8927 79.7848 25.0104 79.7848 27.5255C79.7848 36.328 79.7848 44.9908 79.7848 53.7934C79.7848 59.3823 79.7848 64.8315 79.7848 70.5601ZM58.2025 44.2922C59.8734 42.895 61.405 41.6375 62.9367 40.38C64.0506 39.4019 65.1645 38.9827 66.4177 39.5416C67.8101 40.1005 68.0886 41.358 68.0886 42.7553C68.0886 52.2564 68.0886 61.7576 68.0886 71.2587C68.0886 73.9135 67.1139 74.8915 64.4683 74.8915C62.2405 74.8915 60.0126 74.8915 57.7848 74.8915C57.7848 76.5682 57.7848 78.2449 57.7848 79.7818C66.6962 79.7818 75.4683 79.7818 84.2405 79.7818C84.2405 78.1051 84.2405 76.5682 84.2405 74.8915C82.5696 74.8915 81.0379 74.8915 79.5063 74.8915C76.3038 74.8915 75.4683 74.0532 75.4683 70.8396C75.4683 57.1467 75.4683 43.5936 75.4683 29.9007C75.4683 29.3419 75.4683 28.783 75.4683 28.0844C73.5189 28.0844 71.5696 28.0844 69.7594 28.0844C69.2025 28.0844 68.5063 28.3638 68.0886 28.783C63.9114 32.276 59.7341 35.7691 55.5569 39.2622C55.2784 39.5416 55 39.6813 54.5822 39.8211C55.9746 41.4977 57.0886 42.895 58.2025 44.2922Z" fill="#19918E" stroke="white" stroke-width="2" stroke-miterlimit="10"/>
<path d="M71.5696 10.6189C78.3924 10.6189 85.3544 10.6189 92.1772 10.6189C94.2658 10.6189 95.6582 11.4572 96.4936 13.4134C99.6962 20.3995 105.127 25.2898 112.228 28.0843C115.152 29.202 115.57 29.9007 115.57 32.9746C115.57 37.8649 115.43 42.8949 115.43 47.7852C115.43 48.4838 115.291 49.1824 115.152 49.881C114.873 50.8591 114.177 51.418 113.063 51.418C111.949 51.2783 111.253 50.7194 111.114 49.6016C111.114 49.0427 111.114 48.4838 111.114 47.9249C111.114 43.0346 111.253 38.284 111.253 33.3937C111.253 32.5554 110.975 32.2759 110.278 31.9965C102.481 28.7829 96.6329 23.4734 92.7341 15.7886C92.5949 15.3695 91.8987 14.9503 91.3417 14.9503C77.9746 14.9503 64.4683 14.9503 51.1012 14.9503C50.5443 14.9503 49.8481 15.3695 49.7088 15.9284C45.9493 23.4734 40.1012 28.6431 32.443 31.8568C31.6076 32.1362 31.3291 32.5554 31.3291 33.5334C31.4683 38.7032 31.4683 43.7332 31.6076 48.903C31.6076 50.4399 30.9113 51.418 29.6582 51.5577C28.405 51.6974 27.4303 50.8591 27.4303 49.3221C27.2911 44.4318 27.1519 39.4018 27.1519 34.5115C27.1519 29.6212 27.1519 29.7609 31.6076 27.8048C37.8734 25.0104 42.886 20.6789 45.8101 14.2517C47.0633 11.7367 48.5949 10.7586 51.3797 10.7586C58.2025 10.6189 64.886 10.6189 71.5696 10.6189Z" fill="#19918E" stroke="white" stroke-width="2" stroke-miterlimit="10"/>
<path d="M113.62 59.522C113.481 60.2206 113.063 61.1986 112.785 62.3164C108.19 77.8257 99.1394 90.4007 86.3293 100.181C82.4305 103.255 77.9748 105.631 73.7976 108.425C72.266 109.403 70.8736 109.403 69.2027 108.425C56.671 101.718 46.3672 92.776 38.5698 80.7598C34.3926 74.3326 31.3293 67.3464 29.3799 59.9411C28.9622 58.4042 29.5191 57.2864 30.6331 57.0069C31.8862 56.5878 32.8609 57.4261 33.4179 58.9631C34.9495 63.2945 36.3419 67.6259 38.1521 71.6779C42.8862 81.7379 49.8483 89.9815 58.4812 96.5485C62.2407 99.343 66.2786 101.718 70.1774 104.233C70.8736 104.652 71.4305 104.652 72.266 104.233C83.6837 98.0855 93.2913 89.7021 100.393 78.8037C104.431 72.9354 107.215 66.7876 109.025 60.0809C109.165 59.3822 109.443 58.6836 109.722 58.1247C110.139 57.1467 110.975 56.7275 112.089 57.0069C113.063 57.2864 113.62 57.985 113.62 59.522Z" fill="#19918E" stroke="white" stroke-width="2" stroke-miterlimit="10"/>
</g>
<defs>
<clipPath id="clip0_1201_2182">
<rect width="143" height="121" fill="white"/>
</clipPath>
</defs>
</svg>
