<?xml version="1.0" encoding="utf-8"?>
<!-- Generator: Adobe Illustrator 22.1.0, SVG Export Plug-In . SVG Version: 6.00 Build 0)  -->
<svg version="1.1" id="Слой_1" xmlns="http://www.w3.org/2000/svg" xmlns:xlink="http://www.w3.org/1999/xlink" x="0px" y="0px"
	 viewBox="0 0 264.8 87.2" style="enable-background:new 0 0 264.8 87.2;" xml:space="preserve">
<style type="text/css">
	.st0{fill:none;}
	.st1{opacity:0.35;fill:#FFFFFF;enable-background:new    ;}
	.st2{opacity:0.19;fill:#FFFFFF;enable-background:new    ;}
	.st3{fill:#FFFFFF;}
</style>
<path class="st0" d="M-837.4,370.6v111.6c32.4-10.9,168.1-47.9,408.4-1.2c55.3,10.7,122.6,17.6,195.9,21.5
	c138.4-9.5,283.7-24.9,417.2-49.4c399.4-73.5,785.6-12.5,865.5,1.7v-84.2L-837.4,370.6L-837.4,370.6z"/>
<path class="st1" d="M-233.1,502.5c-73.3-3.9-140.7-10.8-195.9-21.5c-240.3-46.7-376-9.7-408.4,1.2V493
	c18.7,4.8,66.4,15.8,141.3,23.9C-581.3,517.2-413.1,514.8-233.1,502.5z"/>
<path class="st2" d="M184.1,453.1C50.7,477.6-94.7,493-233.1,502.5c27.9,1.5,56.7,2.5,85.9,3.2c130.3-12.3,251.4-26.8,332.7-33.1
	c98.8-7.7,203.8-6.7,299.8,2.2c25-3.4,44.6-6.7,57.6-9.8c110-26,236-48,326-26c80.1,19.6,158.6,21.7,180.5,19.2v-3.4
	C969.7,440.5,583.4,379.6,184.1,453.1z"/>
<path class="st1" d="M869,439c-90-22-216,0-326,26c-13,3.1-32.7,6.4-57.6,9.8C538,479.7,588,487,632.6,496.6
	c126,27,289.5,39,325.5,39c27.8,0,72.5-6.2,91.5-9.1v-68.3C1027.6,460.7,949.1,458.6,869,439z"/>
<path class="st2" d="M869,439c-90-22-216,0-326,26c-13,3.1-32.7,6.4-57.6,9.8C538,479.7,588,487,632.6,496.6
	c126,27,289.5,39,325.5,39c27.8,0,72.5-6.2,91.5-9.1v-68.3C1027.6,460.7,949.1,458.6,869,439z"/>
<path class="st1" d="M-696.1,516.9c54,5.8,122.1,10.2,203.7,9.6c108.2-0.7,230.3-10,345.2-20.9c-29.3-0.7-58-1.7-85.9-3.2
	C-413.1,514.8-581.3,517.2-696.1,516.9z"/>
<path class="st2" d="M-696.1,516.9c54,5.8,122.1,10.2,203.7,9.6c108.2-0.7,230.3-10,345.2-20.9c-29.3-0.7-58-1.7-85.9-3.2
	C-413.1,514.8-581.3,517.2-696.1,516.9z"/>
<path class="st3" d="M-837.3,515v107h1886.9v-95.4c-19,2.9-63.7,9.1-91.5,9.1c-36.1-0.2-199.6-12.2-325.5-39.2
	c-44.6-9.6-94.5-16.9-147.2-21.8c-0.1,0-0.3,0-0.4,0.1c-95.9-9-200.7-9.9-299.4-2.2c-81.3,6.4-202.4,20.8-332.7,33.1
	c-114.9,10.9-237,20.2-345.2,20.9c-81.5,0.5-149.5-3.8-203.5-9.6c-74.9-8.1-122.9-19.1-141.6-24v21.9"/>
</svg>
