<svg width="1366" height="196" viewBox="0 0 1366 196" fill="none" xmlns="http://www.w3.org/2000/svg">
<path opacity="0.35" d="M437.453 95.5064C384.391 92.6825 335.6 87.6864 295.641 79.9387C121.688 46.1241 23.4544 72.9151 0 80.8076V88.6277C13.5369 92.1033 48.067 100.068 102.287 105.933C185.391 106.15 307.151 104.413 437.453 95.5064Z" fill="#19918E"/>
<path opacity="0.35" d="M0 183.047V183.409H323.728L0 183.047Z" fill="#19918E"/>
<path opacity="0.19" d="M739.464 59.7368C642.896 77.4768 537.641 88.6277 437.453 95.5064C457.65 96.5925 478.498 97.3166 499.636 97.8235C593.96 88.9173 681.625 78.4181 740.478 73.8564C811.999 68.281 888.009 69.005 957.503 75.4494C975.601 72.9875 989.789 70.598 999.2 68.3534C1078.83 49.5273 1170.04 33.5975 1235.19 49.5273C1293.18 63.7193 1350 65.2398 1365.86 63.4296V60.9677C1308.16 50.6134 1028.52 6.51686 739.464 59.7368Z" fill="#19918E"/>
<path opacity="0.19" d="M1365.93 184.568V183.41H323.728L1365.93 184.568Z" fill="#19918E"/>
<path opacity="0.35" d="M1235.26 49.527C1170.11 33.5973 1078.9 49.527 999.272 68.3531C989.861 70.5978 975.601 72.9872 957.575 75.4491C995.653 78.9971 1031.85 84.2829 1064.13 91.2341C1155.34 110.784 1273.7 119.473 1299.76 119.473C1319.89 119.473 1352.25 114.984 1366 112.884V63.4294C1350.07 65.2396 1293.25 63.719 1235.26 49.527Z" fill="#19918E"/>
<path opacity="0.19" d="M1235.26 49.527C1170.11 33.5973 1078.9 49.527 999.272 68.3531C989.861 70.5978 975.601 72.9872 957.575 75.4491C995.653 78.9971 1031.85 84.2829 1064.13 91.2341C1155.34 110.784 1273.7 119.473 1299.76 119.473C1319.89 119.473 1352.25 114.984 1366 112.884V63.4294C1350.07 65.2396 1293.25 63.719 1235.26 49.527Z" fill="#19918E"/>
<path opacity="0.35" d="M102.287 105.933C141.378 110.132 190.675 113.318 249.746 112.884C328.072 112.377 416.46 105.643 499.636 97.7507C478.426 97.2438 457.65 96.5197 437.453 95.4336C307.151 104.412 185.391 106.15 102.287 105.933Z" fill="#19918E"/>
<path opacity="0.19" d="M102.287 105.933C141.378 110.132 190.675 113.318 249.746 112.884C328.072 112.377 416.46 105.643 499.636 97.7507C478.426 97.2438 457.65 96.5197 437.453 95.4336C307.151 104.412 185.391 106.15 102.287 105.933Z" fill="#19918E"/>
<path opacity="0.35" d="M0 183.048L323.728 183.41H1365.93V181.961H0V183.048Z" fill="#19918E"/>
<path opacity="0.19" d="M0 183.048L323.728 183.41H1365.93V181.961H0V183.048Z" fill="#19918E"/>
<path d="M0 88.6274V104.485C14.9847 104.919 51.397 105.788 102.287 105.933C48.067 100.068 13.5369 92.1754 0 88.6274Z" fill="#19918E"/>
<path d="M957.575 75.4493C888.081 68.9326 812.071 68.2085 740.55 73.8563C681.697 78.4905 594.033 88.9172 499.708 97.8234C669.897 101.733 864.699 88.0483 957.575 75.4493Z" fill="#19918E"/>
<path d="M1064.13 91.1619C1031.85 84.2107 995.725 78.9249 957.575 75.377C864.699 88.0484 669.897 101.733 499.708 97.8235C416.532 105.716 328.144 112.45 249.818 112.957C190.748 113.319 141.45 110.205 102.359 106.006C51.4692 105.861 15.0571 104.992 0.0723267 104.557V182.034H1366V112.957C1352.25 115.057 1319.89 119.546 1299.76 119.546C1273.63 119.401 1155.27 110.712 1064.13 91.1619Z" fill="#19918E"/>
</svg>
