<svg width="1366" height="48" viewBox="0 0 1366 48" fill="none" xmlns="http://www.w3.org/2000/svg">
<path fill-rule="evenodd" clip-rule="evenodd" d="M1355.57 14.7941C1343.1 14.7941 1333.36 10.9152 1324.01 7.21664C1314.65 3.51811 1305.79 0 1294.39 0C1282.99 0 1274.12 3.51811 1264.77 7.21664C1255.41 10.9152 1245.67 14.7941 1233.2 14.7941C1220.73 14.7941 1210.99 10.9152 1201.63 7.21664C1192.28 3.51811 1183.41 0 1172.01 0C1160.52 0 1151.75 3.51811 1142.39 7.21664C1133.04 10.9152 1123.3 14.7941 1110.82 14.7941C1098.35 14.7941 1088.61 10.9152 1079.26 7.21664C1069.9 3.51811 1061.04 0 1049.64 0C1038.14 0 1029.37 3.51811 1020.02 7.21664C1010.66 10.9152 1000.92 14.7941 988.547 14.7941C976.076 14.7941 966.43 10.9152 957.077 7.21664C947.723 3.51811 938.857 0 927.457 0C916.058 0 907.192 3.51811 897.838 7.21664C888.485 10.9152 878.741 14.7941 866.27 14.7941C853.799 14.7941 844.055 10.9152 834.702 7.21664C825.349 3.51811 816.482 0 805.083 0C793.586 0 784.817 3.51811 775.463 7.21664C768.448 10.0131 761.335 12.8095 753.054 14.0725C749.936 14.5235 746.916 14.7941 743.895 14.7941C731.424 14.7941 721.778 10.9152 712.327 7.21664C702.974 3.51811 694.107 0 682.708 0C671.211 0 662.442 3.51811 653.088 7.21664C643.735 10.9152 633.992 14.7941 621.52 14.7941C618.5 14.7941 615.382 14.5235 612.362 14.0725C604.08 12.8095 596.87 9.92288 589.952 7.21664C580.599 3.51811 571.732 0 560.333 0C548.836 0 540.067 3.51811 530.713 7.21664C521.36 10.9152 511.617 14.7941 499.145 14.7941C486.674 14.7941 476.931 10.9152 467.577 7.21664C458.224 3.51811 449.357 0 437.958 0C426.461 0 417.692 3.51811 408.338 7.21664C398.985 10.9152 389.242 14.7941 376.868 14.7941C364.397 14.7941 354.751 10.9152 345.397 7.21664C336.044 3.51811 327.177 0 315.778 0C304.378 0 295.512 3.51811 286.159 7.21664C276.805 10.9152 267.062 14.7941 254.59 14.7941C242.119 14.7941 232.376 10.9152 223.022 7.21664C213.669 3.51811 204.803 0 193.403 0C181.906 0 173.137 3.51811 163.784 7.21664C154.43 10.9152 144.687 14.7941 132.216 14.7941C119.744 14.7941 110.001 10.9152 100.648 7.21664C91.294 3.51811 82.4277 0 71.0281 0C59.5311 0 50.7622 3.51811 41.4087 7.21664C32.0552 10.9152 22.312 14.7941 9.84066 14.7941C6.82026 14.7941 3.70242 14.5235 0.682023 14.0725V16.7787H0V47.1788H367.32H386.124H612.264H753.443H979.584H998.388H1365.71V31.8434C1365.81 31.8434 1365.9 31.8434 1366 31.7532V14.0725C1361.71 14.6137 1358.69 14.7941 1355.57 14.7941Z" fill="white"/>
</svg>
