<svg width="276" height="12" viewBox="0 0 276 12" fill="none" xmlns="http://www.w3.org/2000/svg">
<path d="M273.612 6.16667C272.757 6.2952 271.924 6.6808 271.138 7.11781C266.999 9.4057 262.882 9.71418 258.72 7.22064C257.91 6.73222 257.055 6.32091 256.222 5.8839C248.822 2.10503 241.144 0.511226 233.051 2.28498C228.865 3.21042 224.957 4.90705 221.118 7.01499C216.678 9.45711 212.053 9.89412 207.428 7.29776C205.462 6.19238 203.496 5.1127 201.461 4.21297C194.685 1.25672 187.702 -0.131438 180.556 2.10503C177.55 3.05618 174.682 4.64998 171.814 6.08955C171.722 6.14096 171.629 6.19238 171.537 6.24379C170.797 6.39803 170.08 6.75792 169.409 7.11781C168.646 7.55482 167.883 7.88901 167.12 8.17178C165.686 8.6345 164.206 8.86586 162.657 8.6345C160.599 8.35173 158.61 7.60624 156.598 6.96357C155.904 6.57798 155.21 6.24379 154.517 5.8839C147.116 2.10503 139.439 0.511226 131.345 2.28498C127.159 3.21042 123.251 4.90705 119.412 7.01499C114.972 9.45711 110.347 9.89412 105.722 7.29776C103.756 6.19238 101.791 5.1127 99.7556 4.21297C92.9336 1.25672 85.9729 -0.131438 78.804 2.10503C75.7977 3.05618 72.9302 4.64998 70.0626 6.08955C69.9701 6.14096 69.8776 6.19238 69.7851 6.24379C69.0451 6.39803 68.3282 6.75792 67.6576 7.11781C66.8944 7.55482 66.1313 7.88901 65.3682 8.17178C63.9344 8.6345 62.4544 8.86586 60.905 8.6345C58.8468 8.35173 56.858 7.60624 54.8461 6.96357C54.1523 6.57798 53.4586 6.24379 52.7648 5.8839C45.3647 2.10503 37.687 0.511226 29.5931 2.28498C25.4074 3.21042 21.4993 4.90705 17.6604 7.01499C13.2204 9.45711 8.59528 9.89412 3.9702 7.29776C2.00454 6.19238 0.0388756 5.1127 -1.99616 4.21297C-8.81815 1.25672 -15.7789 -0.131438 -22.9478 2.10503C-25.9541 3.05618 -28.8216 4.64998 -31.6892 6.08955C-34.6261 7.55482 -37.6093 9.09722 -40.87 8.6345C-43.3675 8.27461 -45.7726 7.24635 -48.2239 6.57798C-48.8945 6.39803 -49.6345 6.34662 -50.3283 6.37232C-50.5826 6.37232 -50.9758 6.80933 -50.9989 7.09211C-51.022 7.32347 -50.6751 7.76048 -50.4208 7.88901C-45.9344 10.0998 -41.3556 11.4365 -36.3836 10.254C-32.9842 9.4314 -29.9317 7.70906 -26.856 6.01243C-22.6009 3.67313 -18.1608 2.69628 -13.4201 3.18471C-8.14752 3.72455 -3.29118 5.72966 1.3339 8.42885C4.10895 10.0484 7.02275 11.0252 10.1909 10.9995C14.3073 11.0252 18.0767 9.58564 21.6611 7.50341C26.1706 4.90705 30.9807 3.69884 35.9989 3.57031C41.2484 3.44177 46.1741 4.95846 50.8223 7.42629C50.9379 7.63194 51.146 7.8376 51.3079 7.91472C52.0479 8.27461 52.7879 8.6345 53.5511 8.94298C58.2224 11.3851 62.8244 11.5136 67.3801 9.66276C69.9932 8.73733 72.4214 7.37488 74.8727 6.01243C79.1278 3.67313 83.5678 2.69628 88.3085 3.18471C93.5811 3.72455 98.4375 5.72966 103.063 8.42885C105.838 10.0484 108.751 11.0252 111.92 10.9995C116.036 11.0252 119.805 9.58564 123.39 7.50341C127.899 4.90705 132.709 3.69884 137.728 3.57031C142.977 3.44177 147.903 4.95846 152.551 7.42629C152.667 7.63194 152.875 7.8376 153.037 7.91472C153.777 8.27461 154.517 8.6345 155.28 8.94298C159.951 11.3851 164.553 11.5136 169.109 9.66276C171.722 8.73733 174.15 7.37488 176.601 6.01243C180.856 3.67313 185.297 2.69628 190.037 3.18471C195.31 3.72455 200.166 5.72966 204.791 8.42885C207.566 10.0484 210.48 11.0252 213.648 10.9995C217.765 11.0252 221.534 9.58564 225.118 7.50341C229.628 4.90705 234.438 3.69884 239.456 3.57031C245.423 3.44177 250.95 5.39547 256.153 8.45456C262.212 12.0021 268.155 11.5908 274.052 8.04325C274.445 7.81189 274.699 7.29776 275 6.93787C274.561 6.6551 274.052 6.08955 273.612 6.16667Z" fill="white" stroke="white"/>
</svg>
