<?xml version="1.0" encoding="utf-8"?>
<!-- Generator: Adobe Illustrator 22.1.0, SVG Export Plug-In . SVG Version: 6.00 Build 0)  -->
<svg version="1.1" id="Слой_1" xmlns="http://www.w3.org/2000/svg" xmlns:xlink="http://www.w3.org/1999/xlink" x="0px" y="0px"
	 viewBox="0 0 1920 251.4" style="enable-background:new 0 0 1920 251.4;" xml:space="preserve">
<style type="text/css">
	.st0{fill:none;}
	.st1{opacity:0.35;fill:#FFFFFF;enable-background:new    ;}
	.st2{opacity:0.19;fill:#FFFFFF;enable-background:new    ;}
	.st3{fill:#FFFFFF;}
</style>
<g>
	<path class="st0" d="M1651.4,59.4c-77.6-0.3-166.5,16.3-246.9,35c-13.1,3.1-32.9,6.4-58.1,9.7c0,0,0,0,0.1,0
		c25.1-3.4,45-6.7,58.2-9.7C1485,75.7,1573.8,59.1,1651.4,59.4z"/>
	<path class="st0" d="M1039.4,82.5c-135.6,24.5-283.1,39.8-423.7,49.3h0C756.3,122.3,903.9,107,1039.4,82.5z"/>
	<path class="st0" d="M41.2,100.9c-0.4,0.1-0.9,0.2-1.3,0.3C40.3,101.1,40.7,101,41.2,100.9z"/>
	<path class="st0" d="M160.6,146.3c1.9,0,3.8,0,5.8,0C164.4,146.3,162.5,146.3,160.6,146.3z"/>
	<path class="st0" d="M613.1,131.8c-73.9-3.9-141.8-10.8-197.6-21.4C471.3,121,539.2,127.9,613.1,131.8z"/>
	<path class="st0" d="M351.1,156c110.1-0.7,234.3-10,351.2-20.9c132.6-12.3,255.8-26.7,338.5-33.1c2.5-0.2,5.1-0.4,7.6-0.5
		c-2.6,0.2-5.2,0.4-7.7,0.5c-82.7,6.3-205.9,20.8-338.5,33.1c-0.3,0-0.6,0-0.9,0c-116.7,10.9-240.6,20.1-350.4,20.8
		c-83,0.6-152.3-3.8-207.3-9.6h0C67.6,138.2,19,127.2,0,122.4c19,4.9,67.9,15.9,144.1,24C199,152.2,268.2,156.5,351.1,156z"/>
	<path class="st0" d="M29.6,103.4c3.2-0.7,6.6-1.5,10.2-2.3c0.4-0.1,0.9-0.2,1.3-0.3c5-1,10.3-2,16-3c1.5-0.3,3-0.5,4.6-0.8
		c9.3-1.5,19.5-3,30.6-4.3c20.4-2.4,43.9-4.3,70.5-5c7.3-0.2,14.8-0.3,22.5-0.4c18-0.1,37.3,0.4,57.9,1.5c5.9,0.3,11.9,0.7,17.9,1.1
		c9.1,0.6,18.5,1.4,28.1,2.3c12.8,1.2,26,2.6,39.6,4.4c13.6,1.7,27.7,3.7,42.1,6c10.8,1.7,21.9,3.6,33.2,5.7
		c3.8,0.7,7.6,1.4,11.4,2.1c55.8,10.6,123.7,17.5,197.6,21.4c0.3,0,0.6,0,0.9,0c0.3,0,0.6,0,0.8-0.1c0.3,0,0.6,0,0.8,0
		c140.6-9.5,288.1-24.9,423.7-49.3c367-66.4,723.1-23.1,848.4-3.6c13.5,2.1,24.4,3.9,32.3,5.3V0H0v111.6c4.6-1.5,11.4-3.6,20.1-5.8
		C23.1,105,26.2,104.2,29.6,103.4z"/>
	<path class="st1" d="M143.8,146.3L143.8,146.3c5.5,0,11.1,0,16.8,0c1.9,0,3.8,0,5.8,0c115.5-0.1,276.3-2.9,447.7-14.5
		c-0.3,0-0.6,0-0.9,0c-73.9-3.9-141.9-10.8-197.6-21.4c-3.8-0.7-7.6-1.4-11.4-2.1c-11.3-2.1-22.4-4-33.2-5.7
		c-14.5-2.3-28.5-4.3-42.1-6c-13.6-1.7-26.8-3.2-39.6-4.4c-9.6-0.9-19-1.7-28.1-2.3c-6.1-0.4-12.1-0.8-17.9-1.1
		c-20.6-1.1-39.9-1.5-57.9-1.5c-7.7,0-15.2,0.2-22.5,0.4c-26.6,0.8-50.1,2.6-70.5,5c-11.1,1.3-21.3,2.8-30.6,4.3
		c-1.5,0.3-3.1,0.5-4.6,0.8c-5.7,1-11,2-16,3c-0.4,0.1-0.9,0.2-1.3,0.3c-3.6,0.8-7,1.5-10.2,2.3c-3.4,0.8-6.6,1.6-9.5,2.3
		c-8.8,2.3-15.5,4.3-20.1,5.8v10.8C19,127.2,67.6,138.2,143.8,146.3L143.8,146.3z"/>
	<path class="st1" d="M57.2,97.9c-5.7,1-11,2-16,3C46.1,99.9,51.5,98.9,57.2,97.9z"/>
	<path class="st1" d="M92.3,92.8c-11.1,1.3-21.3,2.8-30.6,4.3C71,95.5,81.2,94.1,92.3,92.8z"/>
	<path class="st1" d="M29.6,103.4c-3.4,0.8-6.6,1.6-9.5,2.3C23.1,105,26.2,104.2,29.6,103.4z"/>
	<path class="st1" d="M185.3,87.4c-7.7,0-15.2,0.2-22.5,0.4C170.1,87.5,177.6,87.4,185.3,87.4z"/>
	<path class="st1" d="M39.9,101.2c-3.6,0.8-7,1.5-10.2,2.3C32.8,102.7,36.2,101.9,39.9,101.2z"/>
	<path class="st1" d="M404.2,108.3c-11.3-2.1-22.4-4-33.2-5.7C381.8,104.3,392.9,106.2,404.2,108.3z"/>
	<path class="st1" d="M370.9,102.6c-14.5-2.3-28.5-4.3-42.1-6C342.5,98.3,356.5,100.3,370.9,102.6z"/>
	<path class="st1" d="M289.2,92.2c-9.6-0.9-19-1.7-28.1-2.3C270.3,90.6,279.6,91.3,289.2,92.2z"/>
	<path class="st1" d="M243.2,88.8c-20.6-1.1-39.9-1.5-57.9-1.5C203.3,87.3,222.6,87.8,243.2,88.8z"/>
	<path class="st1" d="M328.8,96.6c-13.6-1.7-26.8-3.2-39.6-4.4C302,93.4,315.2,94.9,328.8,96.6z"/>
	<path class="st1" d="M162.8,87.7c-26.6,0.8-50.1,2.6-70.5,5C112.7,90.4,136.2,88.5,162.8,87.7z"/>
	<path class="st1" d="M613.1,131.8c0.3,0,0.6,0,0.9,0l0,0C613.7,131.8,613.4,131.8,613.1,131.8z"/>
	<path class="st2" d="M1039.4,82.5c-135.5,24.5-283.1,39.8-423.7,49.3c28.1,1.5,57,2.5,86.6,3.2c-0.3,0-0.6,0.1-0.9,0.1
		c0.3,0,0.6,0,0.9,0c132.6-12.3,255.8-26.8,338.5-33.1c2.6-0.2,5.2-0.4,7.7-0.5c98.1-7.2,201.9-6,297,2.7c0.2,0,0.3,0,0.5-0.1
		c0.1,0,0.3,0,0.4,0c25.2-3.4,45-6.7,58.1-9.7c80.4-18.7,169.3-35.3,246.9-35c30.4,0.1,59.1,2.8,84.9,9
		c64.9,15.6,128.7,20.1,163.3,20c8.8,0,15.7-0.3,20.2-0.8v-3.4c-7.8-1.4-18.6-3.2-32-5.3C1762.2,59.4,1406.3,16.1,1039.4,82.5z"/>
	<path class="st2" d="M1039.4,82.5c366.9-66.4,722.9-23.1,848.4-3.6C1762.5,59.4,1406.3,16.1,1039.4,82.5z"/>
	<path class="st1" d="M1736.1,68.4c-25.8-6.2-54.4-8.9-84.8-9c-77.6-0.3-166.4,16.3-246.8,35c-13.2,3.1-33,6.4-58.2,9.7
		c53.5,4.9,104.1,12.2,149.3,21.8c100.6,21.2,224.7,33.1,291.2,37.4c18.2,1.1,32.1,1.7,40,1.7c28.3,0,73.8-6.2,93.1-9.1V87.6
		c-4.6,0.5-11.5,0.8-20.4,0.8C1865,88.5,1801.1,84,1736.1,68.4z"/>
	<path class="st2" d="M1736.1,68.4c-25.8-6.2-54.4-8.9-84.8-9c-77.6-0.3-166.4,16.3-246.8,35c-13.2,3.1-33,6.4-58.2,9.7
		c53.5,4.9,104.1,12.2,149.3,21.8c100.6,21.2,224.7,33.1,291.2,37.4c18.2,1.1,32.1,1.7,40,1.7c28.3,0,73.8-6.2,93.1-9.1V87.6
		c-4.6,0.5-11.5,0.8-20.4,0.8C1865,88.5,1801.1,84,1736.1,68.4z"/>
	<path class="st2" d="M1651.4,59.4c30.4,0.1,59,2.8,84.8,9c65,15.6,128.9,20.1,163.4,20c-34.6,0.1-98.5-4.4-163.3-20
		C1710.5,62.2,1681.8,59.5,1651.4,59.4z"/>
	<path class="st1" d="M1651.4,59.4c30.4,0.1,59,2.8,84.8,9c65,15.6,128.9,20.1,163.4,20c-34.6,0.1-98.5-4.4-163.3-20
		C1710.5,62.2,1681.8,59.5,1651.4,59.4z"/>
	<path class="st2" d="M1651.4,59.4c30.4,0.1,59,2.8,84.8,9c65,15.6,128.9,20.1,163.4,20c-34.6,0.1-98.5-4.4-163.3-20
		C1710.5,62.2,1681.8,59.5,1651.4,59.4z"/>
	<path class="st1" d="M166.3,146.3c-1.9,0-3.8,0-5.8,0c-5.7,0-11.3,0-16.8,0c54.9,5.8,124.2,10.2,207.3,9.6
		c109.8-0.7,233.7-10,350.4-20.8c-29.4-0.7-58.4-1.7-86.6-3.2C443.2,143.4,282,146.3,166.3,146.3z"/>
	<path class="st2" d="M166.3,146.3c-1.9,0-3.8,0-5.8,0c-5.7,0-11.3,0-16.8,0c54.9,5.8,124.2,10.2,207.3,9.6
		c109.8-0.7,233.7-10,350.4-20.8c-29.4-0.7-58.4-1.7-86.6-3.2C443.2,143.4,282,146.3,166.3,146.3z"/>
	<path class="st1" d="M614.9,131.9c0.3,0,0.6,0,0.8-0.1h0C615.4,131.9,615.1,131.9,614.9,131.9L614.9,131.9z"/>
	<path class="st2" d="M614.9,131.9c0.3,0,0.6,0,0.8-0.1h0C615.4,131.9,615.1,131.9,614.9,131.9L614.9,131.9z"/>
	<path class="st1" d="M615.7,131.8c-0.3,0-0.6,0-0.8,0c-0.3,0-0.6,0-0.8,0.1c0.3,0,0.6,0,0.8,0C615.1,131.9,615.4,131.9,615.7,131.8
		z"/>
	<path class="st2" d="M615.7,131.8c-0.3,0-0.6,0-0.8,0c-0.3,0-0.6,0-0.8,0.1c0.3,0,0.6,0,0.8,0C615.1,131.9,615.4,131.9,615.7,131.8
		z"/>
	<path class="st1" d="M614.9,131.9L614.9,131.9c-0.3,0-0.6,0-0.8,0c-171.4,11.6-332.2,14.4-447.7,14.5
		C282,146.3,443.2,143.4,614.9,131.9L614.9,131.9z"/>
	<path class="st1" d="M614.9,131.9L614.9,131.9c-0.3,0-0.6,0-0.8,0c-171.4,11.6-332.2,14.4-447.7,14.5
		C282,146.3,443.2,143.4,614.9,131.9L614.9,131.9z"/>
	<path class="st2" d="M614.9,131.9L614.9,131.9c-0.3,0-0.6,0-0.8,0c-171.4,11.6-332.2,14.4-447.7,14.5
		C282,146.3,443.2,143.4,614.9,131.9L614.9,131.9z"/>
	<path class="st1" d="M143.8,146.3L143.8,146.3c5.5,0,11.1,0,16.8,0C154.8,146.3,149.2,146.3,143.8,146.3z"/>
	<path class="st1" d="M143.8,146.3L143.8,146.3c5.5,0,11.1,0,16.8,0C154.8,146.3,149.2,146.3,143.8,146.3z"/>
	<path class="st2" d="M143.8,146.3L143.8,146.3c5.5,0,11.1,0,16.8,0C154.8,146.3,149.2,146.3,143.8,146.3z"/>
	<path class="st1" d="M614.9,131.9c-0.3,0-0.6,0-0.8,0l0,0C614.3,131.9,614.6,131.9,614.9,131.9L614.9,131.9z"/>
	<path class="st1" d="M614.9,131.9c-0.3,0-0.6,0-0.8,0l0,0C614.3,131.9,614.6,131.9,614.9,131.9L614.9,131.9z"/>
	<path class="st2" d="M614.9,131.9c-0.3,0-0.6,0-0.8,0l0,0C614.3,131.9,614.6,131.9,614.9,131.9L614.9,131.9z"/>
	<path class="st2" d="M615.7,131.8c-0.3,0-0.6,0-0.8,0.1c28.1,1.5,57.1,2.5,86.6,3.2c0.3,0,0.6-0.1,0.9-0.1
		C672.8,134.3,643.8,133.3,615.7,131.8z"/>
	<path class="st1" d="M615.7,131.8c-0.3,0-0.6,0-0.8,0.1c28.1,1.5,57.1,2.5,86.6,3.2c0.3,0,0.6-0.1,0.9-0.1
		C672.8,134.3,643.8,133.3,615.7,131.8z"/>
	<path class="st2" d="M615.7,131.8c-0.3,0-0.6,0-0.8,0.1c28.1,1.5,57.1,2.5,86.6,3.2c0.3,0,0.6-0.1,0.9-0.1
		C672.8,134.3,643.8,133.3,615.7,131.8z"/>
	<path class="st3" d="M1826.9,165.1c-7.9,0-21.8-0.6-40-1.8c-66.5-4.2-190.6-16.1-291.2-37.3c-45.4-9.6-96.3-16.9-149.8-21.8
		c0.1,0,0.3,0,0.4-0.1c0,0,0,0-0.1,0c-0.2,0-0.3,0-0.5,0.1c-95.2-8.7-199-9.8-297.3-2.7c-2.5,0.2-5.1,0.4-7.6,0.5
		c-82.7,6.4-205.9,20.8-338.5,33.1C585.5,146,461.2,155.3,351.1,156c-82.9,0.5-152.2-3.8-207.1-9.6C67.9,138.3,19,127.3,0,122.4
		v21.9l0.1,0.1v107H1920V156C1900.7,158.9,1855.2,165.1,1826.9,165.1z"/>
	<path class="st3" d="M1345.5,104.2c-95.1-8.7-198.8-9.9-297-2.7c98.3-7.1,202.1-5.9,297.3,2.7c0.2,0,0.3,0,0.5-0.1
		c-0.1,0-0.2,0-0.4,0C1345.8,104.1,1345.6,104.1,1345.5,104.2z"/>
	<path class="st3" d="M1346.4,104.1c-0.1,0-0.3,0-0.4,0.1c53.5,4.9,104.4,12.2,149.8,21.8c100.6,21.2,224.7,33.1,291.2,37.3
		c-66.5-4.3-190.6-16.2-291.2-37.4C1450.5,116.3,1399.8,109,1346.4,104.1z"/>
</g>
</svg>
