<svg width="30" height="22" viewBox="0 0 30 22" fill="none" xmlns="http://www.w3.org/2000/svg">
<path d="M12.9462 13.3096L17.8997 10.7305L12.9462 8.10629V13.3096Z" fill="white"/>
<path d="M29.7794 5.19241L29.778 5.17912C29.7526 4.94532 29.4997 2.86557 28.4555 1.80807C27.2486 0.563983 25.8804 0.412849 25.2223 0.340384C25.1678 0.334179 25.118 0.328861 25.0733 0.323099L25.0209 0.317781C21.0548 0.0385592 15.0652 0.000443209 15.0053 0H14.9947C14.9348 0.000443209 8.94516 0.0385592 4.94339 0.317781L4.89052 0.323099C4.84795 0.328639 4.80103 0.333736 4.74998 0.339498C4.0995 0.412184 2.7459 0.56354 1.53557 1.85239C0.541077 2.89903 0.253601 4.93402 0.224075 5.16272L0.220642 5.19241C0.211716 5.2897 0 7.60569 0 9.93076V12.1043C0 14.4293 0.211716 16.7453 0.220642 16.8426L0.222244 16.8574C0.24765 17.0873 0.500336 19.1287 1.53969 20.1868C2.67448 21.3895 4.10934 21.5484 4.88113 21.6339C5.00313 21.6474 5.10841 21.6592 5.17982 21.6714L5.24918 21.6804C7.53914 21.8916 14.7189 21.9956 15.0233 21.9998L15.0325 22L15.0414 21.9998C15.1016 21.9996 21.091 21.9614 25.0571 21.682L25.1095 21.6769C25.1594 21.6705 25.2157 21.6647 25.2775 21.6585C25.9245 21.592 27.2706 21.454 28.4644 20.1826C29.4589 19.136 29.7464 17.101 29.7759 16.8723L29.7794 16.8426C29.7883 16.7453 30 14.4293 30 12.1043V9.93076C30 7.60569 29.7883 5.28992 29.7794 5.19241ZM19.6099 11.7727L12.9822 15.2233C12.8002 15.3182 12.6025 15.3654 12.4052 15.3654C12.1898 15.3654 11.9749 15.3091 11.781 15.1972C11.4098 14.9822 11.1882 14.604 11.1882 14.1853V7.22342C11.1882 6.80281 11.4111 6.42387 11.7847 6.20936C12.1582 5.99506 12.6089 5.98731 12.99 6.18919L19.6177 9.70051C20.0098 9.90816 20.2524 10.3062 20.2508 10.739C20.2492 11.1715 20.0036 11.5678 19.6099 11.7727Z" fill="white"/>
</svg>
